  0
SECTION
  2
HEADER
  9
$ACADVER
  1
AC1032
  9
$ACADMAINTVER
 90
      155
  9
$DWGCODEPAGE
  3
ANSI_1251
  9
$LASTSAVEDBY
  1
Ladniy
  9
$REQUIREDVERSIONS
160
                 0
  9
$INSBASE
 10
0.0
 20
0.0
 30
0.0
  9
$EXTMIN
 10
0.0
 20
-104.775
 30
0.0
  9
$EXTMAX
 10
327.658658778629
 20
113.6914509468389
 30
0.0
  9
$LIMMIN
 10
0.0
 20
0.0
  9
$LIMMAX
 10
12.0
 20
9.0
  9
$ORTHOMODE
 70
     0
  9
$REGENMODE
 70
     1
  9
$FILLMODE
 70
     1
  9
$QTEXTMODE
 70
     0
  9
$MIRRTEXT
 70
     0
  9
$LTSCALE
 40
1.0
  9
$ATTMODE
 70
     1
  9
$TEXTSIZE
 40
0.2
  9
$TRACEWID
 40
0.05
  9
$TEXTSTYLE
  7
Notes
  9
$CLAYER
  8
0
  9
$CELTYPE
  6
ByLayer
  9
$CECOLOR
 62
   256
  9
$CELTSCALE
 40
1.0
  9
$DISPSILH
 70
     0
  9
$DIMSCALE
 40
1.0
  9
$DIMASZ
 40
3.0
  9
$DIMEXO
 40
1.5
  9
$DIMDLI
 40
6.0
  9
$DIMRND
 40
0.0
  9
$DIMDLE
 40
0.0
  9
$DIMEXE
 40
3.0
  9
$DIMTP
 40
0.0
  9
$DIMTM
 40
0.0
  9
$DIMTXT
 40
3.0
  9
$DIMCEN
 40
3.0
  9
$DIMTSZ
 40
0.0
  9
$DIMTOL
 70
     0
  9
$DIMLIM
 70
     0
  9
$DIMTIH
 70
     0
  9
$DIMTOH
 70
     0
  9
$DIMSE1
 70
     0
  9
$DIMSE2
 70
     0
  9
$DIMTAD
 70
     1
  9
$DIMZIN
 70
     3
  9
$DIMBLK
  1

  9
$DIMASO
 70
     1
  9
$DIMSHO
 70
     1
  9
$DIMPOST
  1

  9
$DIMAPOST
  1

  9
$DIMALT
 70
     0
  9
$DIMALTD
 70
     2
  9
$DIMALTF
 40
25.4
  9
$DIMLFAC
 40
1.0
  9
$DIMTOFL
 70
     0
  9
$DIMTVP
 40
0.0
  9
$DIMTIX
 70
     0
  9
$DIMSOXD
 70
     0
  9
$DIMSAH
 70
     0
  9
$DIMBLK1
  1

  9
$DIMBLK2
  1

  9
$DIMSTYLE
  2
Civil-Metric
  9
$DIMCLRD
 70
     0
  9
$DIMCLRE
 70
     0
  9
$DIMCLRT
 70
     0
  9
$DIMTFAC
 40
1.0
  9
$DIMGAP
 40
2.0
  9
$DIMJUST
 70
     0
  9
$DIMSD1
 70
     0
  9
$DIMSD2
 70
     0
  9
$DIMTOLJ
 70
     1
  9
$DIMTZIN
 70
     0
  9
$DIMALTZ
 70
     0
  9
$DIMALTTZ
 70
     0
  9
$DIMUPT
 70
     0
  9
$DIMDEC
 70
     2
  9
$DIMTDEC
 70
     2
  9
$DIMALTU
 70
     2
  9
$DIMALTTD
 70
     2
  9
$DIMTXSTY
  7
Standard
  9
$DIMAUNIT
 70
     0
  9
$DIMADEC
 70
     2
  9
$DIMALTRND
 40
0.0
  9
$DIMAZIN
 70
     2
  9
$DIMDSEP
 70
    46
  9
$DIMATFIT
 70
     3
  9
$DIMFRAC
 70
     1
  9
$DIMLDRBLK
  1

  9
$DIMLUNIT
 70
     2
  9
$DIMLWD
 70
    -2
  9
$DIMLWE
 70
    -2
  9
$DIMTMOVE
 70
     0
  9
$DIMFXL
 40
1.0
  9
$DIMFXLON
 70
     0
  9
$DIMJOGANG
 40
0.7853981633974483
  9
$DIMTFILL
 70
     0
  9
$DIMTFILLCLR
 70
     0
  9
$DIMARCSYM
 70
     0
  9
$DIMLTYPE
  6

  9
$DIMLTEX1
  6

  9
$DIMLTEX2
  6

  9
$DIMTXTDIRECTION
 70
     0
  9
$LUNITS
 70
     2
  9
$LUPREC
 70
     4
  9
$SKETCHINC
 40
0.1
  9
$FILLETRAD
 40
0.0
  9
$AUNITS
 70
     4
  9
$AUPREC
 70
     5
  9
$MENU
  1
.
  9
$ELEVATION
 40
0.0
  9
$PELEVATION
 40
0.0
  9
$THICKNESS
 40
0.0
  9
$LIMCHECK
 70
     0
  9
$CHAMFERA
 40
0.0
  9
$CHAMFERB
 40
0.0
  9
$CHAMFERC
 40
0.0
  9
$CHAMFERD
 40
0.0
  9
$SKPOLY
 70
     0
  9
$TDCREATE
 40
2458969.250057871
  9
$TDUCREATE
 40
2458968.916724537
  9
$TDUPDATE
 40
2458969.885451389
  9
$TDUUPDATE
 40
2458969.552118055
  9
$TDINDWG
 40
0.0103240741
  9
$TDUSRTIMER
 40
0.0103240741
  9
$USRTIMER
 70
     1
  9
$ANGBASE
 50
0.0
  9
$ANGDIR
 70
     0
  9
$PDMODE
 70
     0
  9
$PDSIZE
 40
0.0
  9
$PLINEWID
 40
0.0
  9
$SPLFRAME
 70
     0
  9
$SPLINETYPE
 70
     6
  9
$SPLINESEGS
 70
     8
  9
$HANDSEED
  5
7FC
  9
$SURFTAB1
 70
     6
  9
$SURFTAB2
 70
     6
  9
$SURFTYPE
 70
     6
  9
$SURFU
 70
     6
  9
$SURFV
 70
     6
  9
$UCSBASE
  2

  9
$UCSNAME
  2

  9
$UCSORG
 10
0.0
 20
0.0
 30
0.0
  9
$UCSXDIR
 10
1.0
 20
0.0
 30
0.0
  9
$UCSYDIR
 10
0.0
 20
1.0
 30
0.0
  9
$UCSORTHOREF
  2

  9
$UCSORTHOVIEW
 70
     0
  9
$UCSORGTOP
 10
0.0
 20
0.0
 30
0.0
  9
$UCSORGBOTTOM
 10
0.0
 20
0.0
 30
0.0
  9
$UCSORGLEFT
 10
0.0
 20
0.0
 30
0.0
  9
$UCSORGRIGHT
 10
0.0
 20
0.0
 30
0.0
  9
$UCSORGFRONT
 10
0.0
 20
0.0
 30
0.0
  9
$UCSORGBACK
 10
0.0
 20
0.0
 30
0.0
  9
$PUCSBASE
  2

  9
$PUCSNAME
  2

  9
$PUCSORG
 10
0.0
 20
0.0
 30
0.0
  9
$PUCSXDIR
 10
1.0
 20
0.0
 30
0.0
  9
$PUCSYDIR
 10
0.0
 20
1.0
 30
0.0
  9
$PUCSORTHOREF
  2

  9
$PUCSORTHOVIEW
 70
     0
  9
$PUCSORGTOP
 10
0.0
 20
0.0
 30
0.0
  9
$PUCSORGBOTTOM
 10
0.0
 20
0.0
 30
0.0
  9
$PUCSORGLEFT
 10
0.0
 20
0.0
 30
0.0
  9
$PUCSORGRIGHT
 10
0.0
 20
0.0
 30
0.0
  9
$PUCSORGFRONT
 10
0.0
 20
0.0
 30
0.0
  9
$PUCSORGBACK
 10
0.0
 20
0.0
 30
0.0
  9
$USERI1
 70
     0
  9
$USERI2
 70
     0
  9
$USERI3
 70
     0
  9
$USERI4
 70
     0
  9
$USERI5
 70
     0
  9
$USERR1
 40
0.0
  9
$USERR2
 40
0.0
  9
$USERR3
 40
0.0
  9
$USERR4
 40
0.0
  9
$USERR5
 40
0.0
  9
$WORLDVIEW
 70
     1
  9
$SHADEDGE
 70
     3
  9
$SHADEDIF
 70
    70
  9
$TILEMODE
 70
     1
  9
$MAXACTVP
 70
    64
  9
$PINSBASE
 10
0.0
 20
0.0
 30
0.0
  9
$PLIMCHECK
 70
     0
  9
$PEXTMIN
 10
0.6288667663970601
 20
0.7999999523162842
 30
0.0
  9
$PEXTMAX
 10
9.028866384927335
 20
7.199999570846557
 30
0.0
  9
$PLIMMIN
 10
-0.7005418191744587
 20
-0.2281003861915408
  9
$PLIMMAX
 10
10.29945794052965
 20
8.271899373512571
  9
$UNITMODE
 70
     0
  9
$VISRETAIN
 70
     1
  9
$PLINEGEN
 70
     0
  9
$PSLTSCALE
 70
     1
  9
$TREEDEPTH
 70
  3020
  9
$CMLSTYLE
  2
Standard
  9
$CMLJUST
 70
     0
  9
$CMLSCALE
 40
1.0
  9
$PROXYGRAPHICS
 70
     1
  9
$MEASUREMENT
 70
     1
  9
$CELWEIGHT
370
    -1
  9
$ENDCAPS
280
     0
  9
$JOINSTYLE
280
     0
  9
$LWDISPLAY
290
     0
  9
$INSUNITS
 70
     4
  9
$HYPERLINKBASE
  1

  9
$STYLESHEET
  1

  9
$XEDIT
290
     1
  9
$CEPSNTYPE
380
     0
  9
$PSTYLEMODE
290
     1
  9
$FINGERPRINTGUID
  2
589C88AC-8A19-11EA-A2DF-A2E09655AA3B
  9
$VERSIONGUID
  2
{42B558EF-BB27-E644-91B4-17A513F70AF7}
  9
$EXTNAMES
290
     1
  9
$PSVPSCALE
 40
0.0
  9
$OLESTARTUP
290
     0
  9
$SORTENTS
280
   127
  9
$INDEXCTL
280
     0
  9
$HIDETEXT
280
     1
  9
$XCLIPFRAME
280
     0
  9
$HALOGAP
280
     0
  9
$OBSCOLOR
 70
   257
  9
$OBSLTYPE
280
     0
  9
$INTERSECTIONDISPLAY
280
     0
  9
$INTERSECTIONCOLOR
 70
   257
  9
$DIMASSOC
280
     2
  9
$PROJECTNAME
  1

  9
$CAMERADISPLAY
290
     0
  9
$LENSLENGTH
 40
50.0
  9
$CAMERAHEIGHT
 40
0.0
  9
$STEPSPERSEC
 40
2.0
  9
$STEPSIZE
 40
6.0
  9
$3DDWFPREC
 40
2.0
  9
$PSOLWIDTH
 40
0.25
  9
$PSOLHEIGHT
 40
4.0
  9
$LOFTANG1
 40
1.570796326794896
  9
$LOFTANG2
 40
1.570796326794896
  9
$LOFTMAG1
 40
0.0
  9
$LOFTMAG2
 40
0.0
  9
$LOFTPARAM
 70
     7
  9
$LOFTNORMALS
280
     1
  9
$LATITUDE
 40
37.795
  9
$LONGITUDE
 40
-122.394
  9
$NORTHDIRECTION
 40
0.0
  9
$TIMEZONE
 70
 -8000
  9
$LIGHTGLYPHDISPLAY
280
     1
  9
$TILEMODELIGHTSYNCH
280
     1
  9
$CMATERIAL
347
781
  9
$SOLIDHIST
280
     1
  9
$SHOWHIST
280
     1
  9
$DWFFRAME
280
     2
  9
$DGNFRAME
280
     0
  9
$REALWORLDSCALE
290
     1
  9
$INTERFERECOLOR
 62
     1
  9
$INTERFEREOBJVS
345
A3
  9
$INTERFEREVPVS
346
A0
  9
$CSHADOW
280
     0
  9
$SHADOWPLANELOCATION
 40
0.0
  0
ENDSEC
  0
SECTION
  2
CLASSES
  0
CLASS
  1
ACDBDICTIONARYWDFLT
  2
AcDbDictionaryWithDefault
  3
ObjectDBX Classes
 90
        0
 91
        1
280
     0
281
     0
  0
CLASS
  1
DICTIONARYVAR
  2
AcDbDictionaryVar
  3
ObjectDBX Classes
 90
        0
 91
       10
280
     0
281
     0
  0
CLASS
  1
TABLESTYLE
  2
AcDbTableStyle
  3
ObjectDBX Classes
 90
     4095
 91
        1
280
     0
281
     0
  0
CLASS
  1
MATERIAL
  2
AcDbMaterial
  3
ObjectDBX Classes
 90
     1153
 91
        3
280
     0
281
     0
  0
CLASS
  1
VISUALSTYLE
  2
AcDbVisualStyle
  3
ObjectDBX Classes
 90
     4095
 91
       24
280
     0
281
     0
  0
CLASS
  1
SCALE
  2
AcDbScale
  3
ObjectDBX Classes
 90
     1153
 91
       17
280
     0
281
     0
  0
CLASS
  1
MLEADERSTYLE
  2
AcDbMLeaderStyle
  3
ACDB_MLEADERSTYLE_CLASS
 90
     4095
 91
        1
280
     0
281
     0
  0
CLASS
  1
CELLSTYLEMAP
  2
AcDbCellStyleMap
  3
ObjectDBX Classes
 90
     1152
 91
        1
280
     0
281
     0
  0
CLASS
  1
EXACXREFPANELOBJECT
  2
ExAcXREFPanelObject
  3
EXAC_ESW
 90
     1025
 91
        0
280
     0
281
     0
  0
CLASS
  1
NPOCOLLECTION
  2
AcDbImpNonPersistentObjectsCollection
  3
ObjectDBX Classes
 90
     1153
 91
        0
280
     0
281
     0
  0
CLASS
  1
LAYER_INDEX
  2
AcDbLayerIndex
  3
ObjectDBX Classes
 90
        0
 91
        0
280
     0
281
     0
  0
CLASS
  1
SPATIAL_INDEX
  2
AcDbSpatialIndex
  3
ObjectDBX Classes
 90
        0
 91
        0
280
     0
281
     0
  0
CLASS
  1
IDBUFFER
  2
AcDbIdBuffer
  3
ObjectDBX Classes
 90
        0
 91
        0
280
     0
281
     0
  0
CLASS
  1
DIMASSOC
  2
AcDbDimAssoc
  3
"AcDbDimAssoc|Product Desc:     AcDim ARX App For Dimension|Company:          Autodesk, Inc.|WEB Address:      www.autodesk.com"
 90
        0
 91
        0
280
     0
281
     0
  0
CLASS
  1
IMAGEDEF
  2
AcDbRasterImageDef
  3
ISM
 90
        0
 91
        0
280
     0
281
     0
  0
CLASS
  1
RASTERVARIABLES
  2
AcDbRasterVariables
  3
ISM
 90
        0
 91
        0
280
     0
281
     0
  0
CLASS
  1
IMAGEDEF_REACTOR
  2
AcDbRasterImageDefReactor
  3
ISM
 90
        1
 91
        0
280
     0
281
     0
  0
CLASS
  1
IMAGE
  2
AcDbRasterImage
  3
ISM
 90
     2175
 91
        0
280
     0
281
     1
  0
CLASS
  1
PDFDEFINITION
  2
AcDbPdfDefinition
  3
ObjectDBX Classes
 90
     1153
 91
        0
280
     0
281
     0
  0
CLASS
  1
PDFUNDERLAY
  2
AcDbPdfReference
  3
ObjectDBX Classes
 90
     4095
 91
        0
280
     0
281
     1
  0
CLASS
  1
DWFDEFINITION
  2
AcDbDwfDefinition
  3
ObjectDBX Classes
 90
     1153
 91
        0
280
     0
281
     0
  0
CLASS
  1
DWFUNDERLAY
  2
AcDbDwfReference
  3
ObjectDBX Classes
 90
     1153
 91
        0
280
     0
281
     1
  0
CLASS
  1
DGNDEFINITION
  2
AcDbDgnDefinition
  3
ObjectDBX Classes
 90
     1153
 91
        0
280
     0
281
     0
  0
CLASS
  1
DGNUNDERLAY
  2
AcDbDgnReference
  3
ObjectDBX Classes
 90
     1153
 91
        0
280
     0
281
     1
  0
CLASS
  1
ACDBSECTIONVIEWSTYLE
  2
AcDbSectionViewStyle
  3
ObjectDBX Classes
 90
     1025
 91
        1
280
     0
281
     0
  0
CLASS
  1
ACDBDETAILVIEWSTYLE
  2
AcDbDetailViewStyle
  3
ObjectDBX Classes
 90
     1025
 91
        1
280
     0
281
     0
  0
ENDSEC
  0
SECTION
  2
TABLES
  0
TABLE
  2
VPORT
  5
8
330
0
100
AcDbSymbolTable
 70
     1
  0
VPORT
  5
7CC
330
8
100
AcDbSymbolTableRecord
100
AcDbViewportTableRecord
  2
*Active
 70
     0
 10
0.0
 20
0.0
 11
1.0
 21
1.0
 12
118.3480696173154
 22
79.36780573513107
 13
0.0
 23
0.0
 14
1.0
 24
1.0
 15
0.0
 25
0.0
 16
0.0
 26
0.0
 36
1.0
 17
0.0
 27
0.0
 37
0.0
 40
173.7319936459644
 41
2.278375149342891
 42
50.0
 43
0.0
 44
0.0
 50
0.0
 51
0.0
 71
     0
 72
  1000
 73
     1
 74
     3
 75
     0
 76
     1
 77
     0
 78
     0
281
     0
 65
     1
110
0.0
120
0.0
130
0.0
111
1.0
121
0.0
131
0.0
112
0.0
122
1.0
132
0.0
 79
     0
146
0.0
348
79E
 60
     3
 61
     5
292
     1
282
     1
141
0.0
142
0.0
 63
   250
421
  3355443
1001
ACAD_NAV_VCDISPLAY
1070
     1
  0
ENDTAB
  0
TABLE
  2
LTYPE
  5
5F
330
0
100
AcDbSymbolTable
 70
     6
  0
LTYPE
  5
14
330
5F
100
AcDbSymbolTableRecord
100
AcDbLinetypeTableRecord
  2
ByBlock
 70
     0
  3

 72
    65
 73
     0
 40
0.0
  0
LTYPE
  5
15
330
5F
100
AcDbSymbolTableRecord
100
AcDbLinetypeTableRecord
  2
ByLayer
 70
     0
  3

 72
    65
 73
     0
 40
0.0
  0
LTYPE
  5
16
330
5F
100
AcDbSymbolTableRecord
100
AcDbLinetypeTableRecord
  2
Continuous
 70
     0
  3
Solid line
 72
    65
 73
     0
 40
0.0
  0
LTYPE
  5
1B1
330
5F
100
AcDbSymbolTableRecord
100
AcDbLinetypeTableRecord
  2
CENTER
 70
     0
  3
Center ____ _ ____ _ ____ _ ____ _ ____ _ ____
 72
    65
 73
     4
 40
2.0
 49
1.25
 74
     0
 49
-0.25
 74
     0
 49
0.25
 74
     0
 49
-0.25
 74
     0
  0
LTYPE
  5
1B2
330
5F
100
AcDbSymbolTableRecord
100
AcDbLinetypeTableRecord
  2
DASHED
 70
     0
  3
Dashed __ __ __ __ __ __ __ __ __ __ __ __ __ _
 72
    65
 73
     2
 40
0.75
 49
0.5
 74
     0
 49
-0.25
 74
     0
  0
LTYPE
  5
1B3
330
5F
100
AcDbSymbolTableRecord
100
AcDbLinetypeTableRecord
  2
PHANTOM
 70
     0
  3
Phantom ______  __  __  ______  __  __  ______
 72
    65
 73
     6
 40
2.5
 49
1.25
 74
     0
 49
-0.25
 74
     0
 49
0.25
 74
     0
 49
-0.25
 74
     0
 49
0.25
 74
     0
 49
-0.25
 74
     0
  0
LTYPE
  5
39E
330
5F
100
AcDbSymbolTableRecord
100
AcDbLinetypeTableRecord
  2
HIDDEN
 70
     0
  3
Hidden __ __ __ __ __ __ __ __ __ __ __ __ __ __
 72
    65
 73
     2
 40
9.525
 49
6.349999999999999
 74
     0
 49
-3.174999999999999
 74
     0
  0
ENDTAB
  0
TABLE
  2
LAYER
  5
2
330
0
100
AcDbSymbolTable
 70
     3
  0
LAYER
  5
10
330
2
100
AcDbSymbolTableRecord
100
AcDbLayerTableRecord
  2
0
 70
     0
 62
     7
  6
Continuous
370
    -3
390
4E8
347
791
348
0
  0
LAYER
  5
1B4
330
2
100
AcDbSymbolTableRecord
100
AcDbLayerTableRecord
  2
View Port
 70
     0
 62
     7
  6
Continuous
290
     0
370
    -3
390
4E8
347
791
348
0
  0
LAYER
  5
21D
330
2
100
AcDbSymbolTableRecord
100
AcDbLayerTableRecord
  2
Defpoints
 70
     0
 62
     7
  6
Continuous
290
     0
370
    -3
390
4E8
347
791
348
0
  0
ENDTAB
  0
TABLE
  2
STYLE
  5
3
330
0
100
AcDbSymbolTable
 70
     3
  0
STYLE
  5
11
330
3
100
AcDbSymbolTableRecord
100
AcDbTextStyleTableRecord
  2
Standard
 70
     0
 40
0.0
 41
1.0
 50
0.0
 71
     0
 42
0.2
  3
arial.ttf
  4

1001
ACAD
1000
Arial
1071
       34
  0
STYLE
  5
DC
330
3
100
AcDbSymbolTableRecord
100
AcDbTextStyleTableRecord
  2
Annotative
 70
     0
 40
0.0
 41
1.0
 50
0.0
 71
     0
 42
0.2
  3
arial.ttf
  4

1001
ACAD
1000
Arial
1071
       34
  0
STYLE
  5
178
330
3
100
AcDbSymbolTableRecord
100
AcDbTextStyleTableRecord
  2
Notes
 70
     0
 40
3.0
 41
1.0
 50
0.0
 71
     0
 42
0.2
  3
arial.ttf
  4

1001
ACAD
1000
Arial
1071
       34
  0
ENDTAB
  0
TABLE
  2
VIEW
  5
6
330
0
100
AcDbSymbolTable
 70
     0
  0
ENDTAB
  0
TABLE
  2
UCS
  5
7
330
0
100
AcDbSymbolTable
 70
     0
  0
ENDTAB
  0
TABLE
  2
APPID
  5
9
330
0
100
AcDbSymbolTable
 70
    12
  0
APPID
  5
12
330
9
100
AcDbSymbolTableRecord
100
AcDbRegAppTableRecord
  2
ACAD
 70
     0
  0
APPID
  5
DD
330
9
100
AcDbSymbolTableRecord
100
AcDbRegAppTableRecord
  2
AcadAnnoPO
 70
     0
  0
APPID
  5
DE
330
9
100
AcDbSymbolTableRecord
100
AcDbRegAppTableRecord
  2
AcadAnnotative
 70
     0
  0
APPID
  5
DF
330
9
100
AcDbSymbolTableRecord
100
AcDbRegAppTableRecord
  2
ACAD_DSTYLE_DIMJAG
 70
     0
  0
APPID
  5
E0
330
9
100
AcDbSymbolTableRecord
100
AcDbRegAppTableRecord
  2
ACAD_DSTYLE_DIMTALN
 70
     0
  0
APPID
  5
107
330
9
100
AcDbSymbolTableRecord
100
AcDbRegAppTableRecord
  2
ACAD_MLEADERVER
 70
     0
  0
APPID
  5
1B5
330
9
100
AcDbSymbolTableRecord
100
AcDbRegAppTableRecord
  2
AcAecLayerStandard
 70
     0
  0
APPID
  5
1BA
330
9
100
AcDbSymbolTableRecord
100
AcDbRegAppTableRecord
  2
ACAD_EXEMPT_FROM_CAD_STANDARDS
 70
     0
  0
APPID
  5
237
330
9
100
AcDbSymbolTableRecord
100
AcDbRegAppTableRecord
  2
ACAD_DSTYLE_DIMBREAK
 70
     0
  0
APPID
  5
28E
330
9
100
AcDbSymbolTableRecord
100
AcDbRegAppTableRecord
  2
ACAD_PSEXT
 70
     0
  0
APPID
  5
4C4
330
9
100
AcDbSymbolTableRecord
100
AcDbRegAppTableRecord
  2
HATCHBACKGROUNDCOLOR
 70
     0
  0
APPID
  5
7CB
330
9
100
AcDbSymbolTableRecord
100
AcDbRegAppTableRecord
  2
ACAD_NAV_VCDISPLAY
 70
     0
  0
ENDTAB
  0
TABLE
  2
DIMSTYLE
  5
A
330
0
100
AcDbSymbolTable
 70
     4
100
AcDbDimStyleTable
 71
     3
340
242
340
27
340
E1
  0
DIMSTYLE
105
27
330
A
100
AcDbSymbolTableRecord
100
AcDbDimStyleTableRecord
  2
Standard
 70
     0
 41
3.0
 42
2.0
 43
9.0
 44
5.0
140
3.0
141
2.0
147
2.0
340
11
1001
ACAD_DSTYLE_DIMJAG
1070
   388
1040
38.0
1001
ACAD_DSTYLE_DIMBREAK
1070
   391
1040
90.0
1001
ACAD_DSTYLE_DIMTALN
1070
   392
1070
     0
  0
DIMSTYLE
105
E1
330
A
100
AcDbSymbolTableRecord
100
AcDbDimStyleTableRecord
  2
Annotative
 70
     0
 40
0.0
 41
3.0
 42
2.5
 43
10.0
 44
5.0
140
3.0
141
2.0
147
2.0
340
11
1001
AcadAnnotative
1000
AnnotativeData
1002
{
1070
     1
1070
     1
1002
}
1001
ACAD_DSTYLE_DIMJAG
1070
   388
1040
38.0
1001
ACAD_DSTYLE_DIMBREAK
1070
   391
1040
90.0
1001
ACAD_DSTYLE_DIMTALN
1070
   392
1070
     0
  0
DIMSTYLE
105
242
330
A
100
AcDbSymbolTableRecord
100
AcDbDimStyleTableRecord
  2
Civil-Metric
 70
     0
 41
3.0
 42
1.5
 43
6.0
 44
3.0
 73
     0
 74
     0
 77
     1
 78
     3
 79
     2
140
3.0
141
3.0
147
2.0
179
     2
271
     2
272
     2
276
     1
340
11
1001
ACAD_DSTYLE_DIMBREAK
1070
   391
1040
3.0
1001
ACAD_DSTYLE_DIMJAG
1070
   388
1040
38.0
1001
ACAD_DSTYLE_DIMTALN
1070
   392
1070
     0
  0
ENDTAB
  0
TABLE
  2
BLOCK_RECORD
  5
1
330
0
100
AcDbSymbolTable
 70
     3
  0
BLOCK_RECORD
  5
1F
330
1
100
AcDbSymbolTableRecord
100
AcDbBlockTableRecord
  2
*Model_Space
340
4ED
 70
     0
280
     1
281
     0
  0
BLOCK_RECORD
  5
58
330
1
100
AcDbSymbolTableRecord
100
AcDbBlockTableRecord
  2
*Paper_Space
340
4EE
 70
     0
280
     1
281
     0
  0
BLOCK_RECORD
  5
238
330
1
100
AcDbSymbolTableRecord
100
AcDbBlockTableRecord
  2
_ArchTick
340
0
 70
     0
280
     1
281
     0
  0
BLOCK_RECORD
  5
23C
330
1
100
AcDbSymbolTableRecord
100
AcDbBlockTableRecord
  2
_Open30
340
0
 70
     0
280
     1
281
     0
  0
ENDTAB
  0
ENDSEC
  0
SECTION
  2
BLOCKS
  0
BLOCK
  5
20
330
1F
100
AcDbEntity
  8
0
100
AcDbBlockBegin
  2
*Model_Space
 70
     0
 10
0.0
 20
0.0
 30
0.0
  3
*Model_Space
  1

  0
ENDBLK
  5
21
330
1F
100
AcDbEntity
  8
0
100
AcDbBlockEnd
  0
BLOCK
  5
5A
330
58
100
AcDbEntity
 67
     1
  8
0
100
AcDbBlockBegin
  2
*Paper_Space
 70
     0
 10
0.0
 20
0.0
 30
0.0
  3
*Paper_Space
  1

  0
ENDBLK
  5
5B
330
58
100
AcDbEntity
 67
     1
  8
0
100
AcDbBlockEnd
  0
BLOCK
  5
23A
330
238
100
AcDbEntity
  8
0
100
AcDbBlockBegin
  2
_ArchTick
 70
     0
 10
0.0
 20
0.0
 30
0.0
  3
_ArchTick
  1

  0
LWPOLYLINE
  5
239
330
238
100
AcDbEntity
  8
0
  6
ByBlock
 62
     0
100
AcDbPolyline
 90
        2
 70
     0
 43
0.15
 10
-0.5
 20
-0.5
 10
0.5
 20
0.5
  0
ENDBLK
  5
23B
330
238
100
AcDbEntity
  8
0
100
AcDbBlockEnd
  0
BLOCK
  5
240
330
23C
100
AcDbEntity
  8
0
100
AcDbBlockBegin
  2
_Open30
 70
     0
 10
0.0
 20
0.0
 30
0.0
  3
_Open30
  1

  0
LINE
  5
23D
330
23C
100
AcDbEntity
  8
0
  6
ByBlock
 62
     0
370
    -2
100
AcDbLine
 10
-1.0
 20
0.26794919
 30
0.0
 11
0.0
 21
0.0
 31
0.0
  0
LINE
  5
23E
330
23C
100
AcDbEntity
  8
0
  6
ByBlock
 62
     0
370
    -2
100
AcDbLine
 10
0.0
 20
0.0
 30
0.0
 11
-1.0
 21
-0.26794919
 31
0.0
  0
LINE
  5
23F
330
23C
100
AcDbEntity
  8
0
  6
ByBlock
 62
     0
370
    -2
100
AcDbLine
 10
0.0
 20
0.0
 30
0.0
 11
-1.0
 21
0.0
 31
0.0
  0
ENDBLK
  5
241
330
23C
100
AcDbEntity
  8
0
100
AcDbBlockEnd
  0
ENDSEC
  0
SECTION
  2
ENTITIES
  0
LINE
  5
56B
330
1F
100
AcDbEntity
  8
0
100
AcDbLine
 10
11.09615877862901
 20
111.1664509468389
 30
0.0
 11
25.09615877862901
 21
111.1664509468389
 31
0.0
  0
LINE
  5
56C
330
1F
100
AcDbEntity
  8
0
100
AcDbLine
 10
11.09615877862901
 20
97.1664509468389
 30
0.0
 11
25.09615877862901
 21
97.1664509468389
 31
0.0
  0
LINE
  5
56D
330
1F
100
AcDbEntity
  8
0
100
AcDbLine
 10
11.09615877862901
 20
111.1664509468389
 30
0.0
 11
11.09615877862901
 21
97.1664509468389
 31
0.0
  0
LINE
  5
56E
330
1F
100
AcDbEntity
  8
0
100
AcDbLine
 10
25.09615877862901
 20
111.1664509468389
 30
0.0
 11
25.09615877862901
 21
97.1664509468389
 31
0.0
  0
ARC
  5
56F
330
1F
100
AcDbEntity
  8
0
100
AcDbCircle
 10
11.09615877862901
 20
111.1664509468389
 30
0.0
 40
0.0
100
AcDbArc
 50
90.0
 51
180.0
  0
ARC
  5
570
330
1F
100
AcDbEntity
  8
0
100
AcDbCircle
 10
25.09615877862901
 20
111.1664509468389
 30
0.0
 40
0.0
100
AcDbArc
 50
0.0
 51
90.0
  0
ARC
  5
571
330
1F
100
AcDbEntity
  8
0
100
AcDbCircle
 10
11.09615877862901
 20
97.1664509468389
 30
0.0
 40
0.0
100
AcDbArc
 50
180.0
 51
270.0
  0
ARC
  5
572
330
1F
100
AcDbEntity
  8
0
100
AcDbCircle
 10
25.09615877862901
 20
97.1664509468389
 30
0.0
 40
0.0
100
AcDbArc
 50
270.0
 51
0.0
  0
LINE
  5
573
330
1F
100
AcDbEntity
  8
0
100
AcDbLine
 10
30.14615877862901
 20
111.1664509468389
 30
0.0
 11
44.14615877862901
 21
111.1664509468389
 31
0.0
  0
LINE
  5
574
330
1F
100
AcDbEntity
  8
0
100
AcDbLine
 10
30.14615877862901
 20
97.1664509468389
 30
0.0
 11
44.14615877862901
 21
97.1664509468389
 31
0.0
  0
LINE
  5
575
330
1F
100
AcDbEntity
  8
0
100
AcDbLine
 10
30.14615877862901
 20
111.1664509468389
 30
0.0
 11
30.14615877862901
 21
97.1664509468389
 31
0.0
  0
LINE
  5
576
330
1F
100
AcDbEntity
  8
0
100
AcDbLine
 10
44.14615877862901
 20
111.1664509468389
 30
0.0
 11
44.14615877862901
 21
97.1664509468389
 31
0.0
  0
ARC
  5
577
330
1F
100
AcDbEntity
  8
0
100
AcDbCircle
 10
30.14615877862901
 20
111.1664509468389
 30
0.0
 40
0.0
100
AcDbArc
 50
90.0
 51
180.0
  0
ARC
  5
578
330
1F
100
AcDbEntity
  8
0
100
AcDbCircle
 10
44.14615877862901
 20
111.1664509468389
 30
0.0
 40
0.0
100
AcDbArc
 50
0.0
 51
90.0
  0
ARC
  5
579
330
1F
100
AcDbEntity
  8
0
100
AcDbCircle
 10
30.14615877862901
 20
97.1664509468389
 30
0.0
 40
0.0
100
AcDbArc
 50
180.0
 51
270.0
  0
ARC
  5
57A
330
1F
100
AcDbEntity
  8
0
100
AcDbCircle
 10
44.14615877862901
 20
97.1664509468389
 30
0.0
 40
0.0
100
AcDbArc
 50
270.0
 51
0.0
  0
LINE
  5
57B
330
1F
100
AcDbEntity
  8
0
100
AcDbLine
 10
49.19615877862901
 20
111.1664509468389
 30
0.0
 11
63.19615877862901
 21
111.1664509468389
 31
0.0
  0
LINE
  5
57C
330
1F
100
AcDbEntity
  8
0
100
AcDbLine
 10
49.19615877862901
 20
97.1664509468389
 30
0.0
 11
63.19615877862901
 21
97.1664509468389
 31
0.0
  0
LINE
  5
57D
330
1F
100
AcDbEntity
  8
0
100
AcDbLine
 10
49.19615877862901
 20
111.1664509468389
 30
0.0
 11
49.19615877862901
 21
97.1664509468389
 31
0.0
  0
LINE
  5
57E
330
1F
100
AcDbEntity
  8
0
100
AcDbLine
 10
63.19615877862901
 20
111.1664509468389
 30
0.0
 11
63.19615877862901
 21
97.1664509468389
 31
0.0
  0
ARC
  5
57F
330
1F
100
AcDbEntity
  8
0
100
AcDbCircle
 10
49.19615877862901
 20
111.1664509468389
 30
0.0
 40
0.0
100
AcDbArc
 50
90.0
 51
180.0
  0
ARC
  5
580
330
1F
100
AcDbEntity
  8
0
100
AcDbCircle
 10
63.19615877862901
 20
111.1664509468389
 30
0.0
 40
0.0
100
AcDbArc
 50
0.0
 51
90.0
  0
ARC
  5
581
330
1F
100
AcDbEntity
  8
0
100
AcDbCircle
 10
49.19615877862901
 20
97.1664509468389
 30
0.0
 40
0.0
100
AcDbArc
 50
180.0
 51
270.0
  0
ARC
  5
582
330
1F
100
AcDbEntity
  8
0
100
AcDbCircle
 10
63.19615877862901
 20
97.1664509468389
 30
0.0
 40
0.0
100
AcDbArc
 50
270.0
 51
0.0
  0
LINE
  5
583
330
1F
100
AcDbEntity
  8
0
100
AcDbLine
 10
68.24615877862901
 20
111.1664509468389
 30
0.0
 11
82.246158778629
 21
111.1664509468389
 31
0.0
  0
LINE
  5
584
330
1F
100
AcDbEntity
  8
0
100
AcDbLine
 10
68.24615877862901
 20
97.1664509468389
 30
0.0
 11
82.246158778629
 21
97.1664509468389
 31
0.0
  0
LINE
  5
585
330
1F
100
AcDbEntity
  8
0
100
AcDbLine
 10
68.24615877862901
 20
111.1664509468389
 30
0.0
 11
68.24615877862901
 21
97.1664509468389
 31
0.0
  0
LINE
  5
586
330
1F
100
AcDbEntity
  8
0
100
AcDbLine
 10
82.246158778629
 20
111.1664509468389
 30
0.0
 11
82.246158778629
 21
97.1664509468389
 31
0.0
  0
ARC
  5
587
330
1F
100
AcDbEntity
  8
0
100
AcDbCircle
 10
68.24615877862901
 20
111.1664509468389
 30
0.0
 40
0.0
100
AcDbArc
 50
90.0
 51
180.0
  0
ARC
  5
588
330
1F
100
AcDbEntity
  8
0
100
AcDbCircle
 10
82.246158778629
 20
111.1664509468389
 30
0.0
 40
0.0
100
AcDbArc
 50
0.0
 51
90.0
  0
ARC
  5
589
330
1F
100
AcDbEntity
  8
0
100
AcDbCircle
 10
68.24615877862901
 20
97.1664509468389
 30
0.0
 40
0.0
100
AcDbArc
 50
180.0
 51
270.0
  0
ARC
  5
58A
330
1F
100
AcDbEntity
  8
0
100
AcDbCircle
 10
82.246158778629
 20
97.1664509468389
 30
0.0
 40
0.0
100
AcDbArc
 50
270.0
 51
0.0
  0
LINE
  5
58B
330
1F
100
AcDbEntity
  8
0
100
AcDbLine
 10
87.29615877862901
 20
111.1664509468389
 30
0.0
 11
101.296158778629
 21
111.1664509468389
 31
0.0
  0
LINE
  5
58C
330
1F
100
AcDbEntity
  8
0
100
AcDbLine
 10
87.29615877862901
 20
97.1664509468389
 30
0.0
 11
101.296158778629
 21
97.1664509468389
 31
0.0
  0
LINE
  5
58D
330
1F
100
AcDbEntity
  8
0
100
AcDbLine
 10
87.29615877862901
 20
111.1664509468389
 30
0.0
 11
87.29615877862901
 21
97.1664509468389
 31
0.0
  0
LINE
  5
58E
330
1F
100
AcDbEntity
  8
0
100
AcDbLine
 10
101.296158778629
 20
111.1664509468389
 30
0.0
 11
101.296158778629
 21
97.1664509468389
 31
0.0
  0
ARC
  5
58F
330
1F
100
AcDbEntity
  8
0
100
AcDbCircle
 10
87.29615877862901
 20
111.1664509468389
 30
0.0
 40
0.0
100
AcDbArc
 50
90.0
 51
180.0
  0
ARC
  5
590
330
1F
100
AcDbEntity
  8
0
100
AcDbCircle
 10
101.296158778629
 20
111.1664509468389
 30
0.0
 40
0.0
100
AcDbArc
 50
0.0
 51
90.0
  0
ARC
  5
591
330
1F
100
AcDbEntity
  8
0
100
AcDbCircle
 10
87.29615877862901
 20
97.1664509468389
 30
0.0
 40
0.0
100
AcDbArc
 50
180.0
 51
270.0
  0
ARC
  5
592
330
1F
100
AcDbEntity
  8
0
100
AcDbCircle
 10
101.296158778629
 20
97.1664509468389
 30
0.0
 40
0.0
100
AcDbArc
 50
270.0
 51
0.0
  0
LINE
  5
593
330
1F
100
AcDbEntity
  8
0
100
AcDbLine
 10
106.346158778629
 20
111.1664509468389
 30
0.0
 11
120.346158778629
 21
111.1664509468389
 31
0.0
  0
LINE
  5
594
330
1F
100
AcDbEntity
  8
0
100
AcDbLine
 10
106.346158778629
 20
97.1664509468389
 30
0.0
 11
120.346158778629
 21
97.1664509468389
 31
0.0
  0
LINE
  5
595
330
1F
100
AcDbEntity
  8
0
100
AcDbLine
 10
106.346158778629
 20
111.1664509468389
 30
0.0
 11
106.346158778629
 21
97.1664509468389
 31
0.0
  0
LINE
  5
596
330
1F
100
AcDbEntity
  8
0
100
AcDbLine
 10
120.346158778629
 20
111.1664509468389
 30
0.0
 11
120.346158778629
 21
97.1664509468389
 31
0.0
  0
ARC
  5
597
330
1F
100
AcDbEntity
  8
0
100
AcDbCircle
 10
106.346158778629
 20
111.1664509468389
 30
0.0
 40
0.0
100
AcDbArc
 50
90.0
 51
180.0
  0
ARC
  5
598
330
1F
100
AcDbEntity
  8
0
100
AcDbCircle
 10
120.346158778629
 20
111.1664509468389
 30
0.0
 40
0.0
100
AcDbArc
 50
0.0
 51
90.0
  0
ARC
  5
599
330
1F
100
AcDbEntity
  8
0
100
AcDbCircle
 10
106.346158778629
 20
97.1664509468389
 30
0.0
 40
0.0
100
AcDbArc
 50
180.0
 51
270.0
  0
ARC
  5
59A
330
1F
100
AcDbEntity
  8
0
100
AcDbCircle
 10
120.346158778629
 20
97.1664509468389
 30
0.0
 40
0.0
100
AcDbArc
 50
270.0
 51
0.0
  0
LINE
  5
59B
330
1F
100
AcDbEntity
  8
0
100
AcDbLine
 10
125.396158778629
 20
111.1664509468389
 30
0.0
 11
139.396158778629
 21
111.1664509468389
 31
0.0
  0
LINE
  5
59C
330
1F
100
AcDbEntity
  8
0
100
AcDbLine
 10
125.396158778629
 20
97.1664509468389
 30
0.0
 11
139.396158778629
 21
97.1664509468389
 31
0.0
  0
LINE
  5
59D
330
1F
100
AcDbEntity
  8
0
100
AcDbLine
 10
125.396158778629
 20
111.1664509468389
 30
0.0
 11
125.396158778629
 21
97.1664509468389
 31
0.0
  0
LINE
  5
59E
330
1F
100
AcDbEntity
  8
0
100
AcDbLine
 10
139.396158778629
 20
111.1664509468389
 30
0.0
 11
139.396158778629
 21
97.1664509468389
 31
0.0
  0
ARC
  5
59F
330
1F
100
AcDbEntity
  8
0
100
AcDbCircle
 10
125.396158778629
 20
111.1664509468389
 30
0.0
 40
0.0
100
AcDbArc
 50
90.0
 51
180.0
  0
ARC
  5
5A0
330
1F
100
AcDbEntity
  8
0
100
AcDbCircle
 10
139.396158778629
 20
111.1664509468389
 30
0.0
 40
0.0
100
AcDbArc
 50
0.0
 51
90.0
  0
ARC
  5
5A1
330
1F
100
AcDbEntity
  8
0
100
AcDbCircle
 10
125.396158778629
 20
97.1664509468389
 30
0.0
 40
0.0
100
AcDbArc
 50
180.0
 51
270.0
  0
ARC
  5
5A2
330
1F
100
AcDbEntity
  8
0
100
AcDbCircle
 10
139.396158778629
 20
97.1664509468389
 30
0.0
 40
0.0
100
AcDbArc
 50
270.0
 51
0.0
  0
LINE
  5
5A3
330
1F
100
AcDbEntity
  8
0
100
AcDbLine
 10
144.446158778629
 20
111.1664509468389
 30
0.0
 11
158.446158778629
 21
111.1664509468389
 31
0.0
  0
LINE
  5
5A4
330
1F
100
AcDbEntity
  8
0
100
AcDbLine
 10
144.446158778629
 20
97.1664509468389
 30
0.0
 11
158.446158778629
 21
97.1664509468389
 31
0.0
  0
LINE
  5
5A5
330
1F
100
AcDbEntity
  8
0
100
AcDbLine
 10
144.446158778629
 20
111.1664509468389
 30
0.0
 11
144.446158778629
 21
97.1664509468389
 31
0.0
  0
LINE
  5
5A6
330
1F
100
AcDbEntity
  8
0
100
AcDbLine
 10
158.446158778629
 20
111.1664509468389
 30
0.0
 11
158.446158778629
 21
97.1664509468389
 31
0.0
  0
ARC
  5
5A7
330
1F
100
AcDbEntity
  8
0
100
AcDbCircle
 10
144.446158778629
 20
111.1664509468389
 30
0.0
 40
0.0
100
AcDbArc
 50
90.0
 51
180.0
  0
ARC
  5
5A8
330
1F
100
AcDbEntity
  8
0
100
AcDbCircle
 10
158.446158778629
 20
111.1664509468389
 30
0.0
 40
0.0
100
AcDbArc
 50
0.0
 51
90.0
  0
ARC
  5
5A9
330
1F
100
AcDbEntity
  8
0
100
AcDbCircle
 10
144.446158778629
 20
97.1664509468389
 30
0.0
 40
0.0
100
AcDbArc
 50
180.0
 51
270.0
  0
ARC
  5
5AA
330
1F
100
AcDbEntity
  8
0
100
AcDbCircle
 10
158.446158778629
 20
97.1664509468389
 30
0.0
 40
0.0
100
AcDbArc
 50
270.0
 51
0.0
  0
LINE
  5
5AB
330
1F
100
AcDbEntity
  8
0
100
AcDbLine
 10
163.496158778629
 20
111.1664509468389
 30
0.0
 11
177.496158778629
 21
111.1664509468389
 31
0.0
  0
LINE
  5
5AC
330
1F
100
AcDbEntity
  8
0
100
AcDbLine
 10
163.496158778629
 20
97.1664509468389
 30
0.0
 11
177.496158778629
 21
97.1664509468389
 31
0.0
  0
LINE
  5
5AD
330
1F
100
AcDbEntity
  8
0
100
AcDbLine
 10
163.496158778629
 20
111.1664509468389
 30
0.0
 11
163.496158778629
 21
97.1664509468389
 31
0.0
  0
LINE
  5
5AE
330
1F
100
AcDbEntity
  8
0
100
AcDbLine
 10
177.496158778629
 20
111.1664509468389
 30
0.0
 11
177.496158778629
 21
97.1664509468389
 31
0.0
  0
ARC
  5
5AF
330
1F
100
AcDbEntity
  8
0
100
AcDbCircle
 10
163.496158778629
 20
111.1664509468389
 30
0.0
 40
0.0
100
AcDbArc
 50
90.0
 51
180.0
  0
ARC
  5
5B0
330
1F
100
AcDbEntity
  8
0
100
AcDbCircle
 10
177.496158778629
 20
111.1664509468389
 30
0.0
 40
0.0
100
AcDbArc
 50
0.0
 51
90.0
  0
ARC
  5
5B1
330
1F
100
AcDbEntity
  8
0
100
AcDbCircle
 10
163.496158778629
 20
97.1664509468389
 30
0.0
 40
0.0
100
AcDbArc
 50
180.0
 51
270.0
  0
ARC
  5
5B2
330
1F
100
AcDbEntity
  8
0
100
AcDbCircle
 10
177.496158778629
 20
97.1664509468389
 30
0.0
 40
0.0
100
AcDbArc
 50
270.0
 51
0.0
  0
LINE
  5
5B3
330
1F
100
AcDbEntity
  8
0
100
AcDbLine
 10
182.546158778629
 20
111.1664509468389
 30
0.0
 11
196.546158778629
 21
111.1664509468389
 31
0.0
  0
LINE
  5
5B4
330
1F
100
AcDbEntity
  8
0
100
AcDbLine
 10
182.546158778629
 20
97.1664509468389
 30
0.0
 11
196.546158778629
 21
97.1664509468389
 31
0.0
  0
LINE
  5
5B5
330
1F
100
AcDbEntity
  8
0
100
AcDbLine
 10
182.546158778629
 20
111.1664509468389
 30
0.0
 11
182.546158778629
 21
97.1664509468389
 31
0.0
  0
LINE
  5
5B6
330
1F
100
AcDbEntity
  8
0
100
AcDbLine
 10
196.546158778629
 20
111.1664509468389
 30
0.0
 11
196.546158778629
 21
97.1664509468389
 31
0.0
  0
ARC
  5
5B7
330
1F
100
AcDbEntity
  8
0
100
AcDbCircle
 10
182.546158778629
 20
111.1664509468389
 30
0.0
 40
0.0
100
AcDbArc
 50
90.0
 51
180.0
  0
ARC
  5
5B8
330
1F
100
AcDbEntity
  8
0
100
AcDbCircle
 10
196.546158778629
 20
111.1664509468389
 30
0.0
 40
0.0
100
AcDbArc
 50
0.0
 51
90.0
  0
ARC
  5
5B9
330
1F
100
AcDbEntity
  8
0
100
AcDbCircle
 10
182.546158778629
 20
97.1664509468389
 30
0.0
 40
0.0
100
AcDbArc
 50
180.0
 51
270.0
  0
ARC
  5
5BA
330
1F
100
AcDbEntity
  8
0
100
AcDbCircle
 10
196.546158778629
 20
97.1664509468389
 30
0.0
 40
0.0
100
AcDbArc
 50
270.0
 51
0.0
  0
LINE
  5
5BB
330
1F
100
AcDbEntity
  8
0
100
AcDbLine
 10
201.596158778629
 20
111.1664509468389
 30
0.0
 11
215.596158778629
 21
111.1664509468389
 31
0.0
  0
LINE
  5
5BC
330
1F
100
AcDbEntity
  8
0
100
AcDbLine
 10
201.596158778629
 20
97.1664509468389
 30
0.0
 11
215.596158778629
 21
97.1664509468389
 31
0.0
  0
LINE
  5
5BD
330
1F
100
AcDbEntity
  8
0
100
AcDbLine
 10
201.596158778629
 20
111.1664509468389
 30
0.0
 11
201.596158778629
 21
97.1664509468389
 31
0.0
  0
LINE
  5
5BE
330
1F
100
AcDbEntity
  8
0
100
AcDbLine
 10
215.596158778629
 20
111.1664509468389
 30
0.0
 11
215.596158778629
 21
97.1664509468389
 31
0.0
  0
ARC
  5
5BF
330
1F
100
AcDbEntity
  8
0
100
AcDbCircle
 10
201.596158778629
 20
111.1664509468389
 30
0.0
 40
0.0
100
AcDbArc
 50
90.0
 51
180.0
  0
ARC
  5
5C0
330
1F
100
AcDbEntity
  8
0
100
AcDbCircle
 10
215.596158778629
 20
111.1664509468389
 30
0.0
 40
0.0
100
AcDbArc
 50
0.0
 51
90.0
  0
ARC
  5
5C1
330
1F
100
AcDbEntity
  8
0
100
AcDbCircle
 10
201.596158778629
 20
97.1664509468389
 30
0.0
 40
0.0
100
AcDbArc
 50
180.0
 51
270.0
  0
ARC
  5
5C2
330
1F
100
AcDbEntity
  8
0
100
AcDbCircle
 10
215.596158778629
 20
97.1664509468389
 30
0.0
 40
0.0
100
AcDbArc
 50
270.0
 51
0.0
  0
LINE
  5
5C3
330
1F
100
AcDbEntity
  8
0
100
AcDbLine
 10
220.646158778629
 20
111.1664509468389
 30
0.0
 11
234.646158778629
 21
111.1664509468389
 31
0.0
  0
LINE
  5
5C4
330
1F
100
AcDbEntity
  8
0
100
AcDbLine
 10
220.646158778629
 20
97.1664509468389
 30
0.0
 11
234.646158778629
 21
97.1664509468389
 31
0.0
  0
LINE
  5
5C5
330
1F
100
AcDbEntity
  8
0
100
AcDbLine
 10
220.646158778629
 20
111.1664509468389
 30
0.0
 11
220.646158778629
 21
97.1664509468389
 31
0.0
  0
LINE
  5
5C6
330
1F
100
AcDbEntity
  8
0
100
AcDbLine
 10
234.646158778629
 20
111.1664509468389
 30
0.0
 11
234.646158778629
 21
97.1664509468389
 31
0.0
  0
ARC
  5
5C7
330
1F
100
AcDbEntity
  8
0
100
AcDbCircle
 10
220.646158778629
 20
111.1664509468389
 30
0.0
 40
0.0
100
AcDbArc
 50
90.0
 51
180.0
  0
ARC
  5
5C8
330
1F
100
AcDbEntity
  8
0
100
AcDbCircle
 10
234.646158778629
 20
111.1664509468389
 30
0.0
 40
0.0
100
AcDbArc
 50
0.0
 51
90.0
  0
ARC
  5
5C9
330
1F
100
AcDbEntity
  8
0
100
AcDbCircle
 10
220.646158778629
 20
97.1664509468389
 30
0.0
 40
0.0
100
AcDbArc
 50
180.0
 51
270.0
  0
ARC
  5
5CA
330
1F
100
AcDbEntity
  8
0
100
AcDbCircle
 10
234.646158778629
 20
97.1664509468389
 30
0.0
 40
0.0
100
AcDbArc
 50
270.0
 51
0.0
  0
LINE
  5
5CB
330
1F
100
AcDbEntity
  8
0
100
AcDbLine
 10
239.696158778629
 20
111.1664509468389
 30
0.0
 11
253.696158778629
 21
111.1664509468389
 31
0.0
  0
LINE
  5
5CC
330
1F
100
AcDbEntity
  8
0
100
AcDbLine
 10
239.696158778629
 20
97.1664509468389
 30
0.0
 11
253.696158778629
 21
97.1664509468389
 31
0.0
  0
LINE
  5
5CD
330
1F
100
AcDbEntity
  8
0
100
AcDbLine
 10
239.696158778629
 20
111.1664509468389
 30
0.0
 11
239.696158778629
 21
97.1664509468389
 31
0.0
  0
LINE
  5
5CE
330
1F
100
AcDbEntity
  8
0
100
AcDbLine
 10
253.696158778629
 20
111.1664509468389
 30
0.0
 11
253.696158778629
 21
97.1664509468389
 31
0.0
  0
ARC
  5
5CF
330
1F
100
AcDbEntity
  8
0
100
AcDbCircle
 10
239.696158778629
 20
111.1664509468389
 30
0.0
 40
0.0
100
AcDbArc
 50
90.0
 51
180.0
  0
ARC
  5
5D0
330
1F
100
AcDbEntity
  8
0
100
AcDbCircle
 10
253.696158778629
 20
111.1664509468389
 30
0.0
 40
0.0
100
AcDbArc
 50
0.0
 51
90.0
  0
ARC
  5
5D1
330
1F
100
AcDbEntity
  8
0
100
AcDbCircle
 10
239.696158778629
 20
97.1664509468389
 30
0.0
 40
0.0
100
AcDbArc
 50
180.0
 51
270.0
  0
ARC
  5
5D2
330
1F
100
AcDbEntity
  8
0
100
AcDbCircle
 10
253.696158778629
 20
97.1664509468389
 30
0.0
 40
0.0
100
AcDbArc
 50
270.0
 51
0.0
  0
LINE
  5
5D3
330
1F
100
AcDbEntity
  8
0
100
AcDbLine
 10
258.746158778629
 20
111.1664509468389
 30
0.0
 11
272.746158778629
 21
111.1664509468389
 31
0.0
  0
LINE
  5
5D4
330
1F
100
AcDbEntity
  8
0
100
AcDbLine
 10
258.746158778629
 20
97.1664509468389
 30
0.0
 11
272.746158778629
 21
97.1664509468389
 31
0.0
  0
LINE
  5
5D5
330
1F
100
AcDbEntity
  8
0
100
AcDbLine
 10
258.746158778629
 20
111.1664509468389
 30
0.0
 11
258.746158778629
 21
97.1664509468389
 31
0.0
  0
LINE
  5
5D6
330
1F
100
AcDbEntity
  8
0
100
AcDbLine
 10
272.746158778629
 20
111.1664509468389
 30
0.0
 11
272.746158778629
 21
97.1664509468389
 31
0.0
  0
ARC
  5
5D7
330
1F
100
AcDbEntity
  8
0
100
AcDbCircle
 10
258.746158778629
 20
111.1664509468389
 30
0.0
 40
0.0
100
AcDbArc
 50
90.0
 51
180.0
  0
ARC
  5
5D9
330
1F
100
AcDbEntity
  8
0
100
AcDbCircle
 10
258.746158778629
 20
97.1664509468389
 30
0.0
 40
0.0
100
AcDbArc
 50
180.0
 51
270.0
  0
ARC
  5
5DA
330
1F
100
AcDbEntity
  8
0
100
AcDbCircle
 10
272.746158778629
 20
97.1664509468389
 30
0.0
 40
0.0
100
AcDbArc
 50
270.0
 51
0.0
  0
LINE
  5
5DB
330
1F
100
AcDbEntity
  8
0
100
AcDbLine
 10
13.47740877862901
 20
92.11645094683889
 30
0.0
 11
27.47740877862901
 21
92.11645094683889
 31
0.0
  0
LINE
  5
5DC
330
1F
100
AcDbEntity
  8
0
100
AcDbLine
 10
13.47740877862901
 20
78.11645094683889
 30
0.0
 11
27.47740877862901
 21
78.11645094683889
 31
0.0
  0
LINE
  5
5DD
330
1F
100
AcDbEntity
  8
0
100
AcDbLine
 10
13.47740877862901
 20
92.11645094683889
 30
0.0
 11
13.47740877862901
 21
78.11645094683889
 31
0.0
  0
LINE
  5
5DE
330
1F
100
AcDbEntity
  8
0
100
AcDbLine
 10
27.47740877862901
 20
92.11645094683889
 30
0.0
 11
27.47740877862901
 21
78.11645094683889
 31
0.0
  0
ARC
  5
5DF
330
1F
100
AcDbEntity
  8
0
100
AcDbCircle
 10
13.47740877862901
 20
92.11645094683889
 30
0.0
 40
0.0
100
AcDbArc
 50
90.0
 51
180.0
  0
ARC
  5
5E0
330
1F
100
AcDbEntity
  8
0
100
AcDbCircle
 10
27.47740877862901
 20
92.11645094683889
 30
0.0
 40
0.0
100
AcDbArc
 50
0.0
 51
90.0
  0
ARC
  5
5E1
330
1F
100
AcDbEntity
  8
0
100
AcDbCircle
 10
13.47740877862901
 20
78.11645094683889
 30
0.0
 40
0.0
100
AcDbArc
 50
180.0
 51
270.0
  0
ARC
  5
5E2
330
1F
100
AcDbEntity
  8
0
100
AcDbCircle
 10
27.47740877862901
 20
78.11645094683889
 30
0.0
 40
0.0
100
AcDbArc
 50
270.0
 51
0.0
  0
LINE
  5
5E3
330
1F
100
AcDbEntity
  8
0
100
AcDbLine
 10
34.90865877862901
 20
92.11645094683889
 30
0.0
 11
48.90865877862901
 21
92.11645094683889
 31
0.0
  0
LINE
  5
5E4
330
1F
100
AcDbEntity
  8
0
100
AcDbLine
 10
34.90865877862901
 20
78.11645094683889
 30
0.0
 11
48.90865877862901
 21
78.11645094683889
 31
0.0
  0
LINE
  5
5E5
330
1F
100
AcDbEntity
  8
0
100
AcDbLine
 10
34.90865877862901
 20
92.11645094683889
 30
0.0
 11
34.90865877862901
 21
78.11645094683889
 31
0.0
  0
LINE
  5
5E6
330
1F
100
AcDbEntity
  8
0
100
AcDbLine
 10
48.90865877862901
 20
92.11645094683889
 30
0.0
 11
48.90865877862901
 21
78.11645094683889
 31
0.0
  0
ARC
  5
5E7
330
1F
100
AcDbEntity
  8
0
100
AcDbCircle
 10
34.90865877862901
 20
92.11645094683889
 30
0.0
 40
0.0
100
AcDbArc
 50
90.0
 51
180.0
  0
ARC
  5
5E8
330
1F
100
AcDbEntity
  8
0
100
AcDbCircle
 10
48.90865877862901
 20
92.11645094683889
 30
0.0
 40
0.0
100
AcDbArc
 50
0.0
 51
90.0
  0
ARC
  5
5E9
330
1F
100
AcDbEntity
  8
0
100
AcDbCircle
 10
34.90865877862901
 20
78.11645094683889
 30
0.0
 40
0.0
100
AcDbArc
 50
180.0
 51
270.0
  0
ARC
  5
5EA
330
1F
100
AcDbEntity
  8
0
100
AcDbCircle
 10
48.90865877862901
 20
78.11645094683889
 30
0.0
 40
0.0
100
AcDbArc
 50
270.0
 51
0.0
  0
LINE
  5
5EB
330
1F
100
AcDbEntity
  8
0
100
AcDbLine
 10
53.95865877862902
 20
92.11645094683889
 30
0.0
 11
67.95865877862901
 21
92.11645094683889
 31
0.0
  0
LINE
  5
5EC
330
1F
100
AcDbEntity
  8
0
100
AcDbLine
 10
53.95865877862902
 20
78.11645094683889
 30
0.0
 11
67.95865877862901
 21
78.11645094683889
 31
0.0
  0
LINE
  5
5ED
330
1F
100
AcDbEntity
  8
0
100
AcDbLine
 10
53.95865877862902
 20
92.11645094683889
 30
0.0
 11
53.95865877862902
 21
78.11645094683889
 31
0.0
  0
LINE
  5
5EE
330
1F
100
AcDbEntity
  8
0
100
AcDbLine
 10
67.95865877862901
 20
92.11645094683889
 30
0.0
 11
67.95865877862901
 21
78.11645094683889
 31
0.0
  0
ARC
  5
5EF
330
1F
100
AcDbEntity
  8
0
100
AcDbCircle
 10
53.95865877862902
 20
92.11645094683889
 30
0.0
 40
0.0
100
AcDbArc
 50
90.0
 51
180.0
  0
ARC
  5
5F0
330
1F
100
AcDbEntity
  8
0
100
AcDbCircle
 10
67.95865877862901
 20
92.11645094683889
 30
0.0
 40
0.0
100
AcDbArc
 50
0.0
 51
90.0
  0
ARC
  5
5F1
330
1F
100
AcDbEntity
  8
0
100
AcDbCircle
 10
53.95865877862902
 20
78.11645094683889
 30
0.0
 40
0.0
100
AcDbArc
 50
180.0
 51
270.0
  0
ARC
  5
5F2
330
1F
100
AcDbEntity
  8
0
100
AcDbCircle
 10
67.95865877862901
 20
78.11645094683889
 30
0.0
 40
0.0
100
AcDbArc
 50
270.0
 51
0.0
  0
LINE
  5
5F3
330
1F
100
AcDbEntity
  8
0
100
AcDbLine
 10
73.00865877862901
 20
92.11645094683889
 30
0.0
 11
87.008658778629
 21
92.11645094683889
 31
0.0
  0
LINE
  5
5F4
330
1F
100
AcDbEntity
  8
0
100
AcDbLine
 10
73.00865877862901
 20
78.11645094683889
 30
0.0
 11
87.008658778629
 21
78.11645094683889
 31
0.0
  0
LINE
  5
5F5
330
1F
100
AcDbEntity
  8
0
100
AcDbLine
 10
73.00865877862901
 20
92.11645094683889
 30
0.0
 11
73.00865877862901
 21
78.11645094683889
 31
0.0
  0
LINE
  5
5F6
330
1F
100
AcDbEntity
  8
0
100
AcDbLine
 10
87.008658778629
 20
92.11645094683889
 30
0.0
 11
87.008658778629
 21
78.11645094683889
 31
0.0
  0
ARC
  5
5F7
330
1F
100
AcDbEntity
  8
0
100
AcDbCircle
 10
73.00865877862901
 20
92.11645094683889
 30
0.0
 40
0.0
100
AcDbArc
 50
90.0
 51
180.0
  0
ARC
  5
5F8
330
1F
100
AcDbEntity
  8
0
100
AcDbCircle
 10
87.008658778629
 20
92.11645094683889
 30
0.0
 40
0.0
100
AcDbArc
 50
0.0
 51
90.0
  0
ARC
  5
5F9
330
1F
100
AcDbEntity
  8
0
100
AcDbCircle
 10
73.00865877862901
 20
78.11645094683889
 30
0.0
 40
0.0
100
AcDbArc
 50
180.0
 51
270.0
  0
ARC
  5
5FA
330
1F
100
AcDbEntity
  8
0
100
AcDbCircle
 10
87.008658778629
 20
78.11645094683889
 30
0.0
 40
0.0
100
AcDbArc
 50
270.0
 51
0.0
  0
LINE
  5
5FB
330
1F
100
AcDbEntity
  8
0
100
AcDbLine
 10
92.05865877862901
 20
92.11645094683889
 30
0.0
 11
106.058658778629
 21
92.11645094683889
 31
0.0
  0
LINE
  5
5FC
330
1F
100
AcDbEntity
  8
0
100
AcDbLine
 10
92.05865877862901
 20
78.11645094683889
 30
0.0
 11
106.058658778629
 21
78.11645094683889
 31
0.0
  0
LINE
  5
5FD
330
1F
100
AcDbEntity
  8
0
100
AcDbLine
 10
92.05865877862901
 20
92.11645094683889
 30
0.0
 11
92.05865877862901
 21
78.11645094683889
 31
0.0
  0
LINE
  5
5FE
330
1F
100
AcDbEntity
  8
0
100
AcDbLine
 10
106.058658778629
 20
92.11645094683889
 30
0.0
 11
106.058658778629
 21
78.11645094683889
 31
0.0
  0
ARC
  5
5FF
330
1F
100
AcDbEntity
  8
0
100
AcDbCircle
 10
92.05865877862901
 20
92.11645094683889
 30
0.0
 40
0.0
100
AcDbArc
 50
90.0
 51
180.0
  0
ARC
  5
600
330
1F
100
AcDbEntity
  8
0
100
AcDbCircle
 10
106.058658778629
 20
92.11645094683889
 30
0.0
 40
0.0
100
AcDbArc
 50
0.0
 51
90.0
  0
ARC
  5
601
330
1F
100
AcDbEntity
  8
0
100
AcDbCircle
 10
92.05865877862901
 20
78.11645094683889
 30
0.0
 40
0.0
100
AcDbArc
 50
180.0
 51
270.0
  0
ARC
  5
602
330
1F
100
AcDbEntity
  8
0
100
AcDbCircle
 10
106.058658778629
 20
78.11645094683889
 30
0.0
 40
0.0
100
AcDbArc
 50
270.0
 51
0.0
  0
LINE
  5
603
330
1F
100
AcDbEntity
  8
0
100
AcDbLine
 10
111.108658778629
 20
92.11645094683889
 30
0.0
 11
125.108658778629
 21
92.11645094683889
 31
0.0
  0
LINE
  5
604
330
1F
100
AcDbEntity
  8
0
100
AcDbLine
 10
111.108658778629
 20
78.11645094683889
 30
0.0
 11
125.108658778629
 21
78.11645094683889
 31
0.0
  0
LINE
  5
605
330
1F
100
AcDbEntity
  8
0
100
AcDbLine
 10
111.108658778629
 20
92.11645094683889
 30
0.0
 11
111.108658778629
 21
78.11645094683889
 31
0.0
  0
LINE
  5
606
330
1F
100
AcDbEntity
  8
0
100
AcDbLine
 10
125.108658778629
 20
92.11645094683889
 30
0.0
 11
125.108658778629
 21
78.11645094683889
 31
0.0
  0
ARC
  5
607
330
1F
100
AcDbEntity
  8
0
100
AcDbCircle
 10
111.108658778629
 20
92.11645094683889
 30
0.0
 40
0.0
100
AcDbArc
 50
90.0
 51
180.0
  0
ARC
  5
608
330
1F
100
AcDbEntity
  8
0
100
AcDbCircle
 10
125.108658778629
 20
92.11645094683889
 30
0.0
 40
0.0
100
AcDbArc
 50
0.0
 51
90.0
  0
ARC
  5
609
330
1F
100
AcDbEntity
  8
0
100
AcDbCircle
 10
111.108658778629
 20
78.11645094683889
 30
0.0
 40
0.0
100
AcDbArc
 50
180.0
 51
270.0
  0
ARC
  5
60A
330
1F
100
AcDbEntity
  8
0
100
AcDbCircle
 10
125.108658778629
 20
78.11645094683889
 30
0.0
 40
0.0
100
AcDbArc
 50
270.0
 51
0.0
  0
LINE
  5
60B
330
1F
100
AcDbEntity
  8
0
100
AcDbLine
 10
130.158658778629
 20
92.11645094683889
 30
0.0
 11
144.158658778629
 21
92.11645094683889
 31
0.0
  0
LINE
  5
60C
330
1F
100
AcDbEntity
  8
0
100
AcDbLine
 10
130.158658778629
 20
78.11645094683889
 30
0.0
 11
144.158658778629
 21
78.11645094683889
 31
0.0
  0
LINE
  5
60D
330
1F
100
AcDbEntity
  8
0
100
AcDbLine
 10
130.158658778629
 20
92.11645094683889
 30
0.0
 11
130.158658778629
 21
78.11645094683889
 31
0.0
  0
LINE
  5
60E
330
1F
100
AcDbEntity
  8
0
100
AcDbLine
 10
144.158658778629
 20
92.11645094683889
 30
0.0
 11
144.158658778629
 21
78.11645094683889
 31
0.0
  0
ARC
  5
60F
330
1F
100
AcDbEntity
  8
0
100
AcDbCircle
 10
130.158658778629
 20
92.11645094683889
 30
0.0
 40
0.0
100
AcDbArc
 50
90.0
 51
180.0
  0
ARC
  5
610
330
1F
100
AcDbEntity
  8
0
100
AcDbCircle
 10
144.158658778629
 20
92.11645094683889
 30
0.0
 40
0.0
100
AcDbArc
 50
0.0
 51
90.0
  0
ARC
  5
611
330
1F
100
AcDbEntity
  8
0
100
AcDbCircle
 10
130.158658778629
 20
78.11645094683889
 30
0.0
 40
0.0
100
AcDbArc
 50
180.0
 51
270.0
  0
ARC
  5
612
330
1F
100
AcDbEntity
  8
0
100
AcDbCircle
 10
144.158658778629
 20
78.11645094683889
 30
0.0
 40
0.0
100
AcDbArc
 50
270.0
 51
0.0
  0
LINE
  5
613
330
1F
100
AcDbEntity
  8
0
100
AcDbLine
 10
149.208658778629
 20
92.11645094683889
 30
0.0
 11
163.208658778629
 21
92.11645094683889
 31
0.0
  0
LINE
  5
614
330
1F
100
AcDbEntity
  8
0
100
AcDbLine
 10
149.208658778629
 20
78.11645094683889
 30
0.0
 11
163.208658778629
 21
78.11645094683889
 31
0.0
  0
LINE
  5
615
330
1F
100
AcDbEntity
  8
0
100
AcDbLine
 10
149.208658778629
 20
92.11645094683889
 30
0.0
 11
149.208658778629
 21
78.11645094683889
 31
0.0
  0
LINE
  5
616
330
1F
100
AcDbEntity
  8
0
100
AcDbLine
 10
163.208658778629
 20
92.11645094683889
 30
0.0
 11
163.208658778629
 21
78.11645094683889
 31
0.0
  0
ARC
  5
617
330
1F
100
AcDbEntity
  8
0
100
AcDbCircle
 10
149.208658778629
 20
92.11645094683889
 30
0.0
 40
0.0
100
AcDbArc
 50
90.0
 51
180.0
  0
ARC
  5
618
330
1F
100
AcDbEntity
  8
0
100
AcDbCircle
 10
163.208658778629
 20
92.11645094683889
 30
0.0
 40
0.0
100
AcDbArc
 50
0.0
 51
90.0
  0
ARC
  5
619
330
1F
100
AcDbEntity
  8
0
100
AcDbCircle
 10
149.208658778629
 20
78.11645094683889
 30
0.0
 40
0.0
100
AcDbArc
 50
180.0
 51
270.0
  0
ARC
  5
61A
330
1F
100
AcDbEntity
  8
0
100
AcDbCircle
 10
163.208658778629
 20
78.11645094683889
 30
0.0
 40
0.0
100
AcDbArc
 50
270.0
 51
0.0
  0
LINE
  5
61B
330
1F
100
AcDbEntity
  8
0
100
AcDbLine
 10
168.258658778629
 20
92.11645094683889
 30
0.0
 11
182.258658778629
 21
92.11645094683889
 31
0.0
  0
LINE
  5
61C
330
1F
100
AcDbEntity
  8
0
100
AcDbLine
 10
168.258658778629
 20
78.11645094683889
 30
0.0
 11
182.258658778629
 21
78.11645094683889
 31
0.0
  0
LINE
  5
61D
330
1F
100
AcDbEntity
  8
0
100
AcDbLine
 10
168.258658778629
 20
92.11645094683889
 30
0.0
 11
168.258658778629
 21
78.11645094683889
 31
0.0
  0
LINE
  5
61E
330
1F
100
AcDbEntity
  8
0
100
AcDbLine
 10
182.258658778629
 20
92.11645094683889
 30
0.0
 11
182.258658778629
 21
78.11645094683889
 31
0.0
  0
ARC
  5
61F
330
1F
100
AcDbEntity
  8
0
100
AcDbCircle
 10
168.258658778629
 20
92.11645094683889
 30
0.0
 40
0.0
100
AcDbArc
 50
90.0
 51
180.0
  0
ARC
  5
620
330
1F
100
AcDbEntity
  8
0
100
AcDbCircle
 10
182.258658778629
 20
92.11645094683889
 30
0.0
 40
0.0
100
AcDbArc
 50
0.0
 51
90.0
  0
ARC
  5
621
330
1F
100
AcDbEntity
  8
0
100
AcDbCircle
 10
168.258658778629
 20
78.11645094683889
 30
0.0
 40
0.0
100
AcDbArc
 50
180.0
 51
270.0
  0
ARC
  5
622
330
1F
100
AcDbEntity
  8
0
100
AcDbCircle
 10
182.258658778629
 20
78.11645094683889
 30
0.0
 40
0.0
100
AcDbArc
 50
270.0
 51
0.0
  0
LINE
  5
623
330
1F
100
AcDbEntity
  8
0
100
AcDbLine
 10
187.308658778629
 20
92.11645094683889
 30
0.0
 11
201.308658778629
 21
92.11645094683889
 31
0.0
  0
LINE
  5
624
330
1F
100
AcDbEntity
  8
0
100
AcDbLine
 10
187.308658778629
 20
78.11645094683889
 30
0.0
 11
201.308658778629
 21
78.11645094683889
 31
0.0
  0
LINE
  5
625
330
1F
100
AcDbEntity
  8
0
100
AcDbLine
 10
187.308658778629
 20
92.11645094683889
 30
0.0
 11
187.308658778629
 21
78.11645094683889
 31
0.0
  0
LINE
  5
626
330
1F
100
AcDbEntity
  8
0
100
AcDbLine
 10
201.308658778629
 20
92.11645094683889
 30
0.0
 11
201.308658778629
 21
78.11645094683889
 31
0.0
  0
ARC
  5
627
330
1F
100
AcDbEntity
  8
0
100
AcDbCircle
 10
187.308658778629
 20
92.11645094683889
 30
0.0
 40
0.0
100
AcDbArc
 50
90.0
 51
180.0
  0
ARC
  5
628
330
1F
100
AcDbEntity
  8
0
100
AcDbCircle
 10
201.308658778629
 20
92.11645094683889
 30
0.0
 40
0.0
100
AcDbArc
 50
0.0
 51
90.0
  0
ARC
  5
629
330
1F
100
AcDbEntity
  8
0
100
AcDbCircle
 10
187.308658778629
 20
78.11645094683889
 30
0.0
 40
0.0
100
AcDbArc
 50
180.0
 51
270.0
  0
ARC
  5
62A
330
1F
100
AcDbEntity
  8
0
100
AcDbCircle
 10
201.308658778629
 20
78.11645094683889
 30
0.0
 40
0.0
100
AcDbArc
 50
270.0
 51
0.0
  0
LINE
  5
62B
330
1F
100
AcDbEntity
  8
0
100
AcDbLine
 10
206.358658778629
 20
92.11645094683889
 30
0.0
 11
220.358658778629
 21
92.11645094683889
 31
0.0
  0
LINE
  5
62C
330
1F
100
AcDbEntity
  8
0
100
AcDbLine
 10
206.358658778629
 20
78.11645094683889
 30
0.0
 11
220.358658778629
 21
78.11645094683889
 31
0.0
  0
LINE
  5
62D
330
1F
100
AcDbEntity
  8
0
100
AcDbLine
 10
206.358658778629
 20
92.11645094683889
 30
0.0
 11
206.358658778629
 21
78.11645094683889
 31
0.0
  0
LINE
  5
62E
330
1F
100
AcDbEntity
  8
0
100
AcDbLine
 10
220.358658778629
 20
92.11645094683889
 30
0.0
 11
220.358658778629
 21
78.11645094683889
 31
0.0
  0
ARC
  5
62F
330
1F
100
AcDbEntity
  8
0
100
AcDbCircle
 10
206.358658778629
 20
92.11645094683889
 30
0.0
 40
0.0
100
AcDbArc
 50
90.0
 51
180.0
  0
ARC
  5
630
330
1F
100
AcDbEntity
  8
0
100
AcDbCircle
 10
220.358658778629
 20
92.11645094683889
 30
0.0
 40
0.0
100
AcDbArc
 50
0.0
 51
90.0
  0
ARC
  5
631
330
1F
100
AcDbEntity
  8
0
100
AcDbCircle
 10
206.358658778629
 20
78.11645094683889
 30
0.0
 40
0.0
100
AcDbArc
 50
180.0
 51
270.0
  0
ARC
  5
632
330
1F
100
AcDbEntity
  8
0
100
AcDbCircle
 10
220.358658778629
 20
78.11645094683889
 30
0.0
 40
0.0
100
AcDbArc
 50
270.0
 51
0.0
  0
LINE
  5
633
330
1F
100
AcDbEntity
  8
0
100
AcDbLine
 10
225.408658778629
 20
92.11645094683889
 30
0.0
 11
239.408658778629
 21
92.11645094683889
 31
0.0
  0
LINE
  5
634
330
1F
100
AcDbEntity
  8
0
100
AcDbLine
 10
225.408658778629
 20
78.11645094683889
 30
0.0
 11
239.408658778629
 21
78.11645094683889
 31
0.0
  0
LINE
  5
635
330
1F
100
AcDbEntity
  8
0
100
AcDbLine
 10
225.408658778629
 20
92.11645094683889
 30
0.0
 11
225.408658778629
 21
78.11645094683889
 31
0.0
  0
LINE
  5
636
330
1F
100
AcDbEntity
  8
0
100
AcDbLine
 10
239.408658778629
 20
92.11645094683889
 30
0.0
 11
239.408658778629
 21
78.11645094683889
 31
0.0
  0
ARC
  5
637
330
1F
100
AcDbEntity
  8
0
100
AcDbCircle
 10
225.408658778629
 20
92.11645094683889
 30
0.0
 40
0.0
100
AcDbArc
 50
90.0
 51
180.0
  0
ARC
  5
638
330
1F
100
AcDbEntity
  8
0
100
AcDbCircle
 10
239.408658778629
 20
92.11645094683889
 30
0.0
 40
0.0
100
AcDbArc
 50
0.0
 51
90.0
  0
ARC
  5
639
330
1F
100
AcDbEntity
  8
0
100
AcDbCircle
 10
225.408658778629
 20
78.11645094683889
 30
0.0
 40
0.0
100
AcDbArc
 50
180.0
 51
270.0
  0
ARC
  5
63A
330
1F
100
AcDbEntity
  8
0
100
AcDbCircle
 10
239.408658778629
 20
78.11645094683889
 30
0.0
 40
0.0
100
AcDbArc
 50
270.0
 51
0.0
  0
LINE
  5
63B
330
1F
100
AcDbEntity
  8
0
100
AcDbLine
 10
251.602408778629
 20
92.11645094683889
 30
0.0
 11
265.602408778629
 21
92.11645094683889
 31
0.0
  0
LINE
  5
63C
330
1F
100
AcDbEntity
  8
0
100
AcDbLine
 10
251.602408778629
 20
78.11645094683889
 30
0.0
 11
265.602408778629
 21
78.11645094683889
 31
0.0
  0
LINE
  5
63D
330
1F
100
AcDbEntity
  8
0
100
AcDbLine
 10
251.602408778629
 20
92.11645094683889
 30
0.0
 11
251.602408778629
 21
78.11645094683889
 31
0.0
  0
LINE
  5
63E
330
1F
100
AcDbEntity
  8
0
100
AcDbLine
 10
265.602408778629
 20
92.11645094683889
 30
0.0
 11
265.602408778629
 21
78.11645094683889
 31
0.0
  0
ARC
  5
63F
330
1F
100
AcDbEntity
  8
0
100
AcDbCircle
 10
251.602408778629
 20
92.11645094683889
 30
0.0
 40
0.0
100
AcDbArc
 50
90.0
 51
180.0
  0
ARC
  5
640
330
1F
100
AcDbEntity
  8
0
100
AcDbCircle
 10
265.602408778629
 20
92.11645094683889
 30
0.0
 40
0.0
100
AcDbArc
 50
0.0
 51
90.0
  0
ARC
  5
641
330
1F
100
AcDbEntity
  8
0
100
AcDbCircle
 10
251.602408778629
 20
78.11645094683889
 30
0.0
 40
0.0
100
AcDbArc
 50
180.0
 51
270.0
  0
ARC
  5
642
330
1F
100
AcDbEntity
  8
0
100
AcDbCircle
 10
265.602408778629
 20
78.11645094683889
 30
0.0
 40
0.0
100
AcDbArc
 50
270.0
 51
0.0
  0
LINE
  5
643
330
1F
100
AcDbEntity
  8
0
100
AcDbLine
 10
269.702408778629
 20
92.11645094683889
 30
0.0
 11
270.702408778629
 21
92.11645094683889
 31
0.0
  0
LINE
  5
644
330
1F
100
AcDbEntity
  8
0
100
AcDbLine
 10
269.702408778629
 20
78.11645094683889
 30
0.0
 11
270.702408778629
 21
78.11645094683889
 31
0.0
  0
LINE
  5
645
330
1F
100
AcDbEntity
  8
0
100
AcDbLine
 10
269.202408778629
 20
91.61645094683889
 30
0.0
 11
269.202408778629
 21
78.6164509468389
 31
0.0
  0
LINE
  5
646
330
1F
100
AcDbEntity
  8
0
100
AcDbLine
 10
271.202408778629
 20
91.61645094683889
 30
0.0
 11
271.202408778629
 21
78.6164509468389
 31
0.0
  0
ARC
  5
647
330
1F
100
AcDbEntity
  8
0
100
AcDbCircle
 10
269.702408778629
 20
91.61645094683889
 30
0.0
 40
0.5
100
AcDbArc
 50
90.0
 51
180.0
  0
ARC
  5
648
330
1F
100
AcDbEntity
  8
0
100
AcDbCircle
 10
270.702408778629
 20
91.61645094683889
 30
0.0
 40
0.5
100
AcDbArc
 50
0.0
 51
90.0
  0
ARC
  5
649
330
1F
100
AcDbEntity
  8
0
100
AcDbCircle
 10
269.702408778629
 20
78.6164509468389
 30
0.0
 40
0.5
100
AcDbArc
 50
180.0
 51
270.0
  0
ARC
  5
64A
330
1F
100
AcDbEntity
  8
0
100
AcDbCircle
 10
270.702408778629
 20
78.6164509468389
 30
0.0
 40
0.5
100
AcDbArc
 50
270.0
 51
0.0
  0
LINE
  5
64B
330
1F
100
AcDbEntity
  8
0
100
AcDbLine
 10
246.502408778629
 20
92.11645094683889
 30
0.0
 11
247.502408778629
 21
92.11645094683889
 31
0.0
  0
LINE
  5
64C
330
1F
100
AcDbEntity
  8
0
100
AcDbLine
 10
246.502408778629
 20
78.11645094683889
 30
0.0
 11
247.502408778629
 21
78.11645094683889
 31
0.0
  0
LINE
  5
64D
330
1F
100
AcDbEntity
  8
0
100
AcDbLine
 10
246.002408778629
 20
91.61645094683889
 30
0.0
 11
246.002408778629
 21
78.6164509468389
 31
0.0
  0
LINE
  5
64E
330
1F
100
AcDbEntity
  8
0
100
AcDbLine
 10
248.002408778629
 20
91.61645094683889
 30
0.0
 11
248.002408778629
 21
78.6164509468389
 31
0.0
  0
ARC
  5
64F
330
1F
100
AcDbEntity
  8
0
100
AcDbCircle
 10
246.502408778629
 20
91.61645094683889
 30
0.0
 40
0.5
100
AcDbArc
 50
90.0
 51
180.0
  0
ARC
  5
650
330
1F
100
AcDbEntity
  8
0
100
AcDbCircle
 10
247.502408778629
 20
91.61645094683889
 30
0.0
 40
0.5
100
AcDbArc
 50
0.0
 51
90.0
  0
ARC
  5
651
330
1F
100
AcDbEntity
  8
0
100
AcDbCircle
 10
246.502408778629
 20
78.6164509468389
 30
0.0
 40
0.5
100
AcDbArc
 50
180.0
 51
270.0
  0
ARC
  5
652
330
1F
100
AcDbEntity
  8
0
100
AcDbCircle
 10
247.502408778629
 20
78.6164509468389
 30
0.0
 40
0.5
100
AcDbArc
 50
270.0
 51
0.0
  0
LINE
  5
653
330
1F
100
AcDbEntity
  8
0
100
AcDbLine
 10
18.23990877862901
 20
73.0664509468389
 30
0.0
 11
32.23990877862902
 21
73.0664509468389
 31
0.0
  0
LINE
  5
654
330
1F
100
AcDbEntity
  8
0
100
AcDbLine
 10
18.23990877862901
 20
59.0664509468389
 30
0.0
 11
32.23990877862902
 21
59.0664509468389
 31
0.0
  0
LINE
  5
655
330
1F
100
AcDbEntity
  8
0
100
AcDbLine
 10
18.23990877862901
 20
73.0664509468389
 30
0.0
 11
18.23990877862901
 21
59.0664509468389
 31
0.0
  0
LINE
  5
656
330
1F
100
AcDbEntity
  8
0
100
AcDbLine
 10
32.23990877862902
 20
73.0664509468389
 30
0.0
 11
32.23990877862902
 21
59.0664509468389
 31
0.0
  0
ARC
  5
657
330
1F
100
AcDbEntity
  8
0
100
AcDbCircle
 10
18.23990877862901
 20
73.0664509468389
 30
0.0
 40
0.0
100
AcDbArc
 50
90.0
 51
180.0
  0
ARC
  5
658
330
1F
100
AcDbEntity
  8
0
100
AcDbCircle
 10
32.23990877862902
 20
73.0664509468389
 30
0.0
 40
0.0
100
AcDbArc
 50
0.0
 51
90.0
  0
ARC
  5
659
330
1F
100
AcDbEntity
  8
0
100
AcDbCircle
 10
18.23990877862901
 20
59.0664509468389
 30
0.0
 40
0.0
100
AcDbArc
 50
180.0
 51
270.0
  0
ARC
  5
65A
330
1F
100
AcDbEntity
  8
0
100
AcDbCircle
 10
32.23990877862902
 20
59.0664509468389
 30
0.0
 40
0.0
100
AcDbArc
 50
270.0
 51
0.0
  0
LINE
  5
65B
330
1F
100
AcDbEntity
  8
0
100
AcDbLine
 10
36.33990877862901
 20
73.0664509468389
 30
0.0
 11
37.33990877862901
 21
73.0664509468389
 31
0.0
  0
LINE
  5
65C
330
1F
100
AcDbEntity
  8
0
100
AcDbLine
 10
36.33990877862901
 20
59.0664509468389
 30
0.0
 11
37.33990877862901
 21
59.0664509468389
 31
0.0
  0
LINE
  5
65D
330
1F
100
AcDbEntity
  8
0
100
AcDbLine
 10
35.83990877862901
 20
72.56645094683889
 30
0.0
 11
35.83990877862901
 21
59.5664509468389
 31
0.0
  0
LINE
  5
65E
330
1F
100
AcDbEntity
  8
0
100
AcDbLine
 10
37.83990877862901
 20
72.56645094683889
 30
0.0
 11
37.83990877862901
 21
59.5664509468389
 31
0.0
  0
ARC
  5
65F
330
1F
100
AcDbEntity
  8
0
100
AcDbCircle
 10
36.33990877862901
 20
72.56645094683889
 30
0.0
 40
0.5
100
AcDbArc
 50
90.0
 51
180.0
  0
ARC
  5
660
330
1F
100
AcDbEntity
  8
0
100
AcDbCircle
 10
37.33990877862901
 20
72.56645094683889
 30
0.0
 40
0.5
100
AcDbArc
 50
0.0
 51
90.0
  0
ARC
  5
661
330
1F
100
AcDbEntity
  8
0
100
AcDbCircle
 10
36.33990877862901
 20
59.5664509468389
 30
0.0
 40
0.5
100
AcDbArc
 50
180.0
 51
270.0
  0
ARC
  5
662
330
1F
100
AcDbEntity
  8
0
100
AcDbCircle
 10
37.33990877862901
 20
59.5664509468389
 30
0.0
 40
0.5
100
AcDbArc
 50
270.0
 51
0.0
  0
LINE
  5
663
330
1F
100
AcDbEntity
  8
0
100
AcDbLine
 10
13.13990877862901
 20
73.0664509468389
 30
0.0
 11
14.13990877862901
 21
73.0664509468389
 31
0.0
  0
LINE
  5
664
330
1F
100
AcDbEntity
  8
0
100
AcDbLine
 10
13.13990877862901
 20
59.0664509468389
 30
0.0
 11
14.13990877862901
 21
59.0664509468389
 31
0.0
  0
LINE
  5
665
330
1F
100
AcDbEntity
  8
0
100
AcDbLine
 10
12.63990877862901
 20
72.56645094683889
 30
0.0
 11
12.63990877862901
 21
59.5664509468389
 31
0.0
  0
LINE
  5
666
330
1F
100
AcDbEntity
  8
0
100
AcDbLine
 10
14.63990877862901
 20
72.56645094683889
 30
0.0
 11
14.63990877862901
 21
59.5664509468389
 31
0.0
  0
ARC
  5
667
330
1F
100
AcDbEntity
  8
0
100
AcDbCircle
 10
13.13990877862901
 20
72.56645094683889
 30
0.0
 40
0.5
100
AcDbArc
 50
90.0
 51
180.0
  0
ARC
  5
668
330
1F
100
AcDbEntity
  8
0
100
AcDbCircle
 10
14.13990877862901
 20
72.56645094683889
 30
0.0
 40
0.5
100
AcDbArc
 50
0.0
 51
90.0
  0
ARC
  5
669
330
1F
100
AcDbEntity
  8
0
100
AcDbCircle
 10
13.13990877862901
 20
59.5664509468389
 30
0.0
 40
0.5
100
AcDbArc
 50
180.0
 51
270.0
  0
ARC
  5
66A
330
1F
100
AcDbEntity
  8
0
100
AcDbCircle
 10
14.13990877862901
 20
59.5664509468389
 30
0.0
 40
0.5
100
AcDbArc
 50
270.0
 51
0.0
  0
LINE
  5
66B
330
1F
100
AcDbEntity
  8
0
100
AcDbLine
 10
44.43365877862901
 20
73.0664509468389
 30
0.0
 11
58.433658778629
 21
73.0664509468389
 31
0.0
  0
LINE
  5
66C
330
1F
100
AcDbEntity
  8
0
100
AcDbLine
 10
44.43365877862901
 20
59.0664509468389
 30
0.0
 11
58.433658778629
 21
59.0664509468389
 31
0.0
  0
LINE
  5
66D
330
1F
100
AcDbEntity
  8
0
100
AcDbLine
 10
44.43365877862901
 20
73.0664509468389
 30
0.0
 11
44.43365877862901
 21
59.0664509468389
 31
0.0
  0
LINE
  5
66E
330
1F
100
AcDbEntity
  8
0
100
AcDbLine
 10
58.433658778629
 20
73.0664509468389
 30
0.0
 11
58.433658778629
 21
59.0664509468389
 31
0.0
  0
ARC
  5
66F
330
1F
100
AcDbEntity
  8
0
100
AcDbCircle
 10
44.43365877862901
 20
73.0664509468389
 30
0.0
 40
0.0
100
AcDbArc
 50
90.0
 51
180.0
  0
ARC
  5
670
330
1F
100
AcDbEntity
  8
0
100
AcDbCircle
 10
58.433658778629
 20
73.0664509468389
 30
0.0
 40
0.0
100
AcDbArc
 50
0.0
 51
90.0
  0
ARC
  5
671
330
1F
100
AcDbEntity
  8
0
100
AcDbCircle
 10
44.43365877862901
 20
59.0664509468389
 30
0.0
 40
0.0
100
AcDbArc
 50
180.0
 51
270.0
  0
ARC
  5
672
330
1F
100
AcDbEntity
  8
0
100
AcDbCircle
 10
58.433658778629
 20
59.0664509468389
 30
0.0
 40
0.0
100
AcDbArc
 50
270.0
 51
0.0
  0
LINE
  5
673
330
1F
100
AcDbEntity
  8
0
100
AcDbLine
 10
63.48365877862901
 20
73.0664509468389
 30
0.0
 11
77.48365877862901
 21
73.0664509468389
 31
0.0
  0
LINE
  5
674
330
1F
100
AcDbEntity
  8
0
100
AcDbLine
 10
63.48365877862901
 20
59.0664509468389
 30
0.0
 11
77.48365877862901
 21
59.0664509468389
 31
0.0
  0
LINE
  5
675
330
1F
100
AcDbEntity
  8
0
100
AcDbLine
 10
63.48365877862901
 20
73.0664509468389
 30
0.0
 11
63.48365877862901
 21
59.0664509468389
 31
0.0
  0
LINE
  5
676
330
1F
100
AcDbEntity
  8
0
100
AcDbLine
 10
77.48365877862901
 20
73.0664509468389
 30
0.0
 11
77.48365877862901
 21
59.0664509468389
 31
0.0
  0
ARC
  5
677
330
1F
100
AcDbEntity
  8
0
100
AcDbCircle
 10
63.48365877862901
 20
73.0664509468389
 30
0.0
 40
0.0
100
AcDbArc
 50
90.0
 51
180.0
  0
ARC
  5
678
330
1F
100
AcDbEntity
  8
0
100
AcDbCircle
 10
77.48365877862901
 20
73.0664509468389
 30
0.0
 40
0.0
100
AcDbArc
 50
0.0
 51
90.0
  0
ARC
  5
679
330
1F
100
AcDbEntity
  8
0
100
AcDbCircle
 10
63.48365877862901
 20
59.0664509468389
 30
0.0
 40
0.0
100
AcDbArc
 50
180.0
 51
270.0
  0
ARC
  5
67A
330
1F
100
AcDbEntity
  8
0
100
AcDbCircle
 10
77.48365877862901
 20
59.0664509468389
 30
0.0
 40
0.0
100
AcDbArc
 50
270.0
 51
0.0
  0
LINE
  5
67B
330
1F
100
AcDbEntity
  8
0
100
AcDbLine
 10
82.53365877862902
 20
73.0664509468389
 30
0.0
 11
96.53365877862903
 21
73.0664509468389
 31
0.0
  0
LINE
  5
67C
330
1F
100
AcDbEntity
  8
0
100
AcDbLine
 10
82.53365877862902
 20
59.0664509468389
 30
0.0
 11
96.53365877862903
 21
59.0664509468389
 31
0.0
  0
LINE
  5
67D
330
1F
100
AcDbEntity
  8
0
100
AcDbLine
 10
82.53365877862902
 20
73.0664509468389
 30
0.0
 11
82.53365877862902
 21
59.0664509468389
 31
0.0
  0
LINE
  5
67E
330
1F
100
AcDbEntity
  8
0
100
AcDbLine
 10
96.53365877862903
 20
73.0664509468389
 30
0.0
 11
96.53365877862903
 21
59.0664509468389
 31
0.0
  0
ARC
  5
67F
330
1F
100
AcDbEntity
  8
0
100
AcDbCircle
 10
82.53365877862902
 20
73.0664509468389
 30
0.0
 40
0.0
100
AcDbArc
 50
90.0
 51
180.0
  0
ARC
  5
680
330
1F
100
AcDbEntity
  8
0
100
AcDbCircle
 10
96.53365877862903
 20
73.0664509468389
 30
0.0
 40
0.0
100
AcDbArc
 50
0.0
 51
90.0
  0
ARC
  5
681
330
1F
100
AcDbEntity
  8
0
100
AcDbCircle
 10
82.53365877862902
 20
59.0664509468389
 30
0.0
 40
0.0
100
AcDbArc
 50
180.0
 51
270.0
  0
ARC
  5
682
330
1F
100
AcDbEntity
  8
0
100
AcDbCircle
 10
96.53365877862903
 20
59.0664509468389
 30
0.0
 40
0.0
100
AcDbArc
 50
270.0
 51
0.0
  0
LINE
  5
683
330
1F
100
AcDbEntity
  8
0
100
AcDbLine
 10
101.583658778629
 20
73.0664509468389
 30
0.0
 11
115.583658778629
 21
73.0664509468389
 31
0.0
  0
LINE
  5
684
330
1F
100
AcDbEntity
  8
0
100
AcDbLine
 10
101.583658778629
 20
59.0664509468389
 30
0.0
 11
115.583658778629
 21
59.0664509468389
 31
0.0
  0
LINE
  5
685
330
1F
100
AcDbEntity
  8
0
100
AcDbLine
 10
101.583658778629
 20
73.0664509468389
 30
0.0
 11
101.583658778629
 21
59.0664509468389
 31
0.0
  0
LINE
  5
686
330
1F
100
AcDbEntity
  8
0
100
AcDbLine
 10
115.583658778629
 20
73.0664509468389
 30
0.0
 11
115.583658778629
 21
59.0664509468389
 31
0.0
  0
ARC
  5
687
330
1F
100
AcDbEntity
  8
0
100
AcDbCircle
 10
101.583658778629
 20
73.0664509468389
 30
0.0
 40
0.0
100
AcDbArc
 50
90.0
 51
180.0
  0
ARC
  5
688
330
1F
100
AcDbEntity
  8
0
100
AcDbCircle
 10
115.583658778629
 20
73.0664509468389
 30
0.0
 40
0.0
100
AcDbArc
 50
0.0
 51
90.0
  0
ARC
  5
689
330
1F
100
AcDbEntity
  8
0
100
AcDbCircle
 10
101.583658778629
 20
59.0664509468389
 30
0.0
 40
0.0
100
AcDbArc
 50
180.0
 51
270.0
  0
ARC
  5
68A
330
1F
100
AcDbEntity
  8
0
100
AcDbCircle
 10
115.583658778629
 20
59.0664509468389
 30
0.0
 40
0.0
100
AcDbArc
 50
270.0
 51
0.0
  0
LINE
  5
68B
330
1F
100
AcDbEntity
  8
0
100
AcDbLine
 10
120.633658778629
 20
73.0664509468389
 30
0.0
 11
134.633658778629
 21
73.0664509468389
 31
0.0
  0
LINE
  5
68C
330
1F
100
AcDbEntity
  8
0
100
AcDbLine
 10
120.633658778629
 20
59.0664509468389
 30
0.0
 11
134.633658778629
 21
59.0664509468389
 31
0.0
  0
LINE
  5
68D
330
1F
100
AcDbEntity
  8
0
100
AcDbLine
 10
120.633658778629
 20
73.0664509468389
 30
0.0
 11
120.633658778629
 21
59.0664509468389
 31
0.0
  0
LINE
  5
68E
330
1F
100
AcDbEntity
  8
0
100
AcDbLine
 10
134.633658778629
 20
73.0664509468389
 30
0.0
 11
134.633658778629
 21
59.0664509468389
 31
0.0
  0
ARC
  5
68F
330
1F
100
AcDbEntity
  8
0
100
AcDbCircle
 10
120.633658778629
 20
73.0664509468389
 30
0.0
 40
0.0
100
AcDbArc
 50
90.0
 51
180.0
  0
ARC
  5
690
330
1F
100
AcDbEntity
  8
0
100
AcDbCircle
 10
134.633658778629
 20
73.0664509468389
 30
0.0
 40
0.0
100
AcDbArc
 50
0.0
 51
90.0
  0
ARC
  5
691
330
1F
100
AcDbEntity
  8
0
100
AcDbCircle
 10
120.633658778629
 20
59.0664509468389
 30
0.0
 40
0.0
100
AcDbArc
 50
180.0
 51
270.0
  0
ARC
  5
692
330
1F
100
AcDbEntity
  8
0
100
AcDbCircle
 10
134.633658778629
 20
59.0664509468389
 30
0.0
 40
0.0
100
AcDbArc
 50
270.0
 51
0.0
  0
LINE
  5
693
330
1F
100
AcDbEntity
  8
0
100
AcDbLine
 10
139.683658778629
 20
73.0664509468389
 30
0.0
 11
153.683658778629
 21
73.0664509468389
 31
0.0
  0
LINE
  5
694
330
1F
100
AcDbEntity
  8
0
100
AcDbLine
 10
139.683658778629
 20
59.0664509468389
 30
0.0
 11
153.683658778629
 21
59.0664509468389
 31
0.0
  0
LINE
  5
695
330
1F
100
AcDbEntity
  8
0
100
AcDbLine
 10
139.683658778629
 20
73.0664509468389
 30
0.0
 11
139.683658778629
 21
59.0664509468389
 31
0.0
  0
LINE
  5
696
330
1F
100
AcDbEntity
  8
0
100
AcDbLine
 10
153.683658778629
 20
73.0664509468389
 30
0.0
 11
153.683658778629
 21
59.0664509468389
 31
0.0
  0
ARC
  5
697
330
1F
100
AcDbEntity
  8
0
100
AcDbCircle
 10
139.683658778629
 20
73.0664509468389
 30
0.0
 40
0.0
100
AcDbArc
 50
90.0
 51
180.0
  0
ARC
  5
698
330
1F
100
AcDbEntity
  8
0
100
AcDbCircle
 10
153.683658778629
 20
73.0664509468389
 30
0.0
 40
0.0
100
AcDbArc
 50
0.0
 51
90.0
  0
ARC
  5
699
330
1F
100
AcDbEntity
  8
0
100
AcDbCircle
 10
139.683658778629
 20
59.0664509468389
 30
0.0
 40
0.0
100
AcDbArc
 50
180.0
 51
270.0
  0
ARC
  5
69A
330
1F
100
AcDbEntity
  8
0
100
AcDbCircle
 10
153.683658778629
 20
59.0664509468389
 30
0.0
 40
0.0
100
AcDbArc
 50
270.0
 51
0.0
  0
LINE
  5
69B
330
1F
100
AcDbEntity
  8
0
100
AcDbLine
 10
158.733658778629
 20
73.0664509468389
 30
0.0
 11
172.733658778629
 21
73.0664509468389
 31
0.0
  0
LINE
  5
69C
330
1F
100
AcDbEntity
  8
0
100
AcDbLine
 10
158.733658778629
 20
59.0664509468389
 30
0.0
 11
172.733658778629
 21
59.0664509468389
 31
0.0
  0
LINE
  5
69D
330
1F
100
AcDbEntity
  8
0
100
AcDbLine
 10
158.733658778629
 20
73.0664509468389
 30
0.0
 11
158.733658778629
 21
59.0664509468389
 31
0.0
  0
LINE
  5
69E
330
1F
100
AcDbEntity
  8
0
100
AcDbLine
 10
172.733658778629
 20
73.0664509468389
 30
0.0
 11
172.733658778629
 21
59.0664509468389
 31
0.0
  0
ARC
  5
69F
330
1F
100
AcDbEntity
  8
0
100
AcDbCircle
 10
158.733658778629
 20
73.0664509468389
 30
0.0
 40
0.0
100
AcDbArc
 50
90.0
 51
180.0
  0
ARC
  5
6A0
330
1F
100
AcDbEntity
  8
0
100
AcDbCircle
 10
172.733658778629
 20
73.0664509468389
 30
0.0
 40
0.0
100
AcDbArc
 50
0.0
 51
90.0
  0
ARC
  5
6A1
330
1F
100
AcDbEntity
  8
0
100
AcDbCircle
 10
158.733658778629
 20
59.0664509468389
 30
0.0
 40
0.0
100
AcDbArc
 50
180.0
 51
270.0
  0
ARC
  5
6A2
330
1F
100
AcDbEntity
  8
0
100
AcDbCircle
 10
172.733658778629
 20
59.0664509468389
 30
0.0
 40
0.0
100
AcDbArc
 50
270.0
 51
0.0
  0
LINE
  5
6A3
330
1F
100
AcDbEntity
  8
0
100
AcDbLine
 10
177.783658778629
 20
73.0664509468389
 30
0.0
 11
191.783658778629
 21
73.0664509468389
 31
0.0
  0
LINE
  5
6A4
330
1F
100
AcDbEntity
  8
0
100
AcDbLine
 10
177.783658778629
 20
59.0664509468389
 30
0.0
 11
191.783658778629
 21
59.0664509468389
 31
0.0
  0
LINE
  5
6A5
330
1F
100
AcDbEntity
  8
0
100
AcDbLine
 10
177.783658778629
 20
73.0664509468389
 30
0.0
 11
177.783658778629
 21
59.0664509468389
 31
0.0
  0
LINE
  5
6A6
330
1F
100
AcDbEntity
  8
0
100
AcDbLine
 10
191.783658778629
 20
73.0664509468389
 30
0.0
 11
191.783658778629
 21
59.0664509468389
 31
0.0
  0
ARC
  5
6A7
330
1F
100
AcDbEntity
  8
0
100
AcDbCircle
 10
177.783658778629
 20
73.0664509468389
 30
0.0
 40
0.0
100
AcDbArc
 50
90.0
 51
180.0
  0
ARC
  5
6A8
330
1F
100
AcDbEntity
  8
0
100
AcDbCircle
 10
191.783658778629
 20
73.0664509468389
 30
0.0
 40
0.0
100
AcDbArc
 50
0.0
 51
90.0
  0
ARC
  5
6A9
330
1F
100
AcDbEntity
  8
0
100
AcDbCircle
 10
177.783658778629
 20
59.0664509468389
 30
0.0
 40
0.0
100
AcDbArc
 50
180.0
 51
270.0
  0
ARC
  5
6AA
330
1F
100
AcDbEntity
  8
0
100
AcDbCircle
 10
191.783658778629
 20
59.0664509468389
 30
0.0
 40
0.0
100
AcDbArc
 50
270.0
 51
0.0
  0
LINE
  5
6AB
330
1F
100
AcDbEntity
  8
0
100
AcDbLine
 10
196.833658778629
 20
73.0664509468389
 30
0.0
 11
210.833658778629
 21
73.0664509468389
 31
0.0
  0
LINE
  5
6AC
330
1F
100
AcDbEntity
  8
0
100
AcDbLine
 10
196.833658778629
 20
59.0664509468389
 30
0.0
 11
210.833658778629
 21
59.0664509468389
 31
0.0
  0
LINE
  5
6AD
330
1F
100
AcDbEntity
  8
0
100
AcDbLine
 10
196.833658778629
 20
73.0664509468389
 30
0.0
 11
196.833658778629
 21
59.0664509468389
 31
0.0
  0
LINE
  5
6AE
330
1F
100
AcDbEntity
  8
0
100
AcDbLine
 10
210.833658778629
 20
73.0664509468389
 30
0.0
 11
210.833658778629
 21
59.0664509468389
 31
0.0
  0
ARC
  5
6AF
330
1F
100
AcDbEntity
  8
0
100
AcDbCircle
 10
196.833658778629
 20
73.0664509468389
 30
0.0
 40
0.0
100
AcDbArc
 50
90.0
 51
180.0
  0
ARC
  5
6B0
330
1F
100
AcDbEntity
  8
0
100
AcDbCircle
 10
210.833658778629
 20
73.0664509468389
 30
0.0
 40
0.0
100
AcDbArc
 50
0.0
 51
90.0
  0
ARC
  5
6B1
330
1F
100
AcDbEntity
  8
0
100
AcDbCircle
 10
196.833658778629
 20
59.0664509468389
 30
0.0
 40
0.0
100
AcDbArc
 50
180.0
 51
270.0
  0
ARC
  5
6B2
330
1F
100
AcDbEntity
  8
0
100
AcDbCircle
 10
210.833658778629
 20
59.0664509468389
 30
0.0
 40
0.0
100
AcDbArc
 50
270.0
 51
0.0
  0
LINE
  5
6B3
330
1F
100
AcDbEntity
  8
0
100
AcDbLine
 10
215.883658778629
 20
73.0664509468389
 30
0.0
 11
229.883658778629
 21
73.0664509468389
 31
0.0
  0
LINE
  5
6B4
330
1F
100
AcDbEntity
  8
0
100
AcDbLine
 10
215.883658778629
 20
59.0664509468389
 30
0.0
 11
229.883658778629
 21
59.0664509468389
 31
0.0
  0
LINE
  5
6B5
330
1F
100
AcDbEntity
  8
0
100
AcDbLine
 10
215.883658778629
 20
73.0664509468389
 30
0.0
 11
215.883658778629
 21
59.0664509468389
 31
0.0
  0
LINE
  5
6B6
330
1F
100
AcDbEntity
  8
0
100
AcDbLine
 10
229.883658778629
 20
73.0664509468389
 30
0.0
 11
229.883658778629
 21
59.0664509468389
 31
0.0
  0
ARC
  5
6B7
330
1F
100
AcDbEntity
  8
0
100
AcDbCircle
 10
215.883658778629
 20
73.0664509468389
 30
0.0
 40
0.0
100
AcDbArc
 50
90.0
 51
180.0
  0
ARC
  5
6B8
330
1F
100
AcDbEntity
  8
0
100
AcDbCircle
 10
229.883658778629
 20
73.0664509468389
 30
0.0
 40
0.0
100
AcDbArc
 50
0.0
 51
90.0
  0
ARC
  5
6B9
330
1F
100
AcDbEntity
  8
0
100
AcDbCircle
 10
215.883658778629
 20
59.0664509468389
 30
0.0
 40
0.0
100
AcDbArc
 50
180.0
 51
270.0
  0
ARC
  5
6BA
330
1F
100
AcDbEntity
  8
0
100
AcDbCircle
 10
229.883658778629
 20
59.0664509468389
 30
0.0
 40
0.0
100
AcDbArc
 50
270.0
 51
0.0
  0
LINE
  5
6BB
330
1F
100
AcDbEntity
  8
0
100
AcDbLine
 10
237.314908778629
 20
73.0664509468389
 30
0.0
 11
251.314908778629
 21
73.0664509468389
 31
0.0
  0
LINE
  5
6BC
330
1F
100
AcDbEntity
  8
0
100
AcDbLine
 10
237.314908778629
 20
59.0664509468389
 30
0.0
 11
251.314908778629
 21
59.0664509468389
 31
0.0
  0
LINE
  5
6BD
330
1F
100
AcDbEntity
  8
0
100
AcDbLine
 10
237.314908778629
 20
73.0664509468389
 30
0.0
 11
237.314908778629
 21
59.0664509468389
 31
0.0
  0
LINE
  5
6BE
330
1F
100
AcDbEntity
  8
0
100
AcDbLine
 10
251.314908778629
 20
73.0664509468389
 30
0.0
 11
251.314908778629
 21
59.0664509468389
 31
0.0
  0
ARC
  5
6BF
330
1F
100
AcDbEntity
  8
0
100
AcDbCircle
 10
237.314908778629
 20
73.0664509468389
 30
0.0
 40
0.0
100
AcDbArc
 50
90.0
 51
180.0
  0
ARC
  5
6C0
330
1F
100
AcDbEntity
  8
0
100
AcDbCircle
 10
251.314908778629
 20
73.0664509468389
 30
0.0
 40
0.0
100
AcDbArc
 50
0.0
 51
90.0
  0
ARC
  5
6C1
330
1F
100
AcDbEntity
  8
0
100
AcDbCircle
 10
237.314908778629
 20
59.0664509468389
 30
0.0
 40
0.0
100
AcDbArc
 50
180.0
 51
270.0
  0
ARC
  5
6C2
330
1F
100
AcDbEntity
  8
0
100
AcDbCircle
 10
251.314908778629
 20
59.0664509468389
 30
0.0
 40
0.0
100
AcDbArc
 50
270.0
 51
0.0
  0
LINE
  5
6C3
330
1F
100
AcDbEntity
  8
0
100
AcDbLine
 10
258.746158778629
 20
73.0664509468389
 30
0.0
 11
272.746158778629
 21
73.0664509468389
 31
0.0
  0
LINE
  5
6C4
330
1F
100
AcDbEntity
  8
0
100
AcDbLine
 10
258.746158778629
 20
59.0664509468389
 30
0.0
 11
272.746158778629
 21
59.0664509468389
 31
0.0
  0
LINE
  5
6C5
330
1F
100
AcDbEntity
  8
0
100
AcDbLine
 10
258.746158778629
 20
73.0664509468389
 30
0.0
 11
258.746158778629
 21
59.0664509468389
 31
0.0
  0
LINE
  5
6C6
330
1F
100
AcDbEntity
  8
0
100
AcDbLine
 10
272.746158778629
 20
73.0664509468389
 30
0.0
 11
272.746158778629
 21
59.0664509468389
 31
0.0
  0
ARC
  5
6C7
330
1F
100
AcDbEntity
  8
0
100
AcDbCircle
 10
258.746158778629
 20
73.0664509468389
 30
0.0
 40
0.0
100
AcDbArc
 50
90.0
 51
180.0
  0
ARC
  5
6C8
330
1F
100
AcDbEntity
  8
0
100
AcDbCircle
 10
272.746158778629
 20
73.0664509468389
 30
0.0
 40
0.0
100
AcDbArc
 50
0.0
 51
90.0
  0
ARC
  5
6C9
330
1F
100
AcDbEntity
  8
0
100
AcDbCircle
 10
258.746158778629
 20
59.0664509468389
 30
0.0
 40
0.0
100
AcDbArc
 50
180.0
 51
270.0
  0
ARC
  5
6CA
330
1F
100
AcDbEntity
  8
0
100
AcDbCircle
 10
272.746158778629
 20
59.0664509468389
 30
0.0
 40
0.0
100
AcDbArc
 50
270.0
 51
0.0
  0
LINE
  5
6E3
330
1F
100
AcDbEntity
  8
0
100
AcDbLine
 10
34.90865877862901
 20
54.0164509468389
 30
0.0
 11
48.90865877862901
 21
54.0164509468389
 31
0.0
  0
LINE
  5
6E4
330
1F
100
AcDbEntity
  8
0
100
AcDbLine
 10
34.90865877862901
 20
40.01645094683889
 30
0.0
 11
48.90865877862901
 21
40.01645094683889
 31
0.0
  0
LINE
  5
6E5
330
1F
100
AcDbEntity
  8
0
100
AcDbLine
 10
34.90865877862901
 20
54.0164509468389
 30
0.0
 11
34.90865877862901
 21
40.01645094683889
 31
0.0
  0
LINE
  5
6E6
330
1F
100
AcDbEntity
  8
0
100
AcDbLine
 10
48.90865877862901
 20
54.0164509468389
 30
0.0
 11
48.90865877862901
 21
40.01645094683889
 31
0.0
  0
ARC
  5
6E7
330
1F
100
AcDbEntity
  8
0
100
AcDbCircle
 10
34.90865877862901
 20
54.0164509468389
 30
0.0
 40
0.0
100
AcDbArc
 50
90.0
 51
180.0
  0
ARC
  5
6E8
330
1F
100
AcDbEntity
  8
0
100
AcDbCircle
 10
48.90865877862901
 20
54.0164509468389
 30
0.0
 40
0.0
100
AcDbArc
 50
0.0
 51
90.0
  0
ARC
  5
6EA
330
1F
100
AcDbEntity
  8
0
100
AcDbCircle
 10
48.90865877862901
 20
40.01645094683889
 30
0.0
 40
0.0
100
AcDbArc
 50
270.0
 51
0.0
  0
LINE
  5
6EB
330
1F
100
AcDbEntity
  8
0
100
AcDbLine
 10
56.33990877862901
 20
54.0164509468389
 30
0.0
 11
70.33990877862901
 21
54.0164509468389
 31
0.0
  0
LINE
  5
6EC
330
1F
100
AcDbEntity
  8
0
100
AcDbLine
 10
56.33990877862901
 20
40.01645094683889
 30
0.0
 11
70.33990877862901
 21
40.01645094683889
 31
0.0
  0
LINE
  5
6ED
330
1F
100
AcDbEntity
  8
0
100
AcDbLine
 10
56.33990877862901
 20
54.0164509468389
 30
0.0
 11
56.33990877862901
 21
40.01645094683889
 31
0.0
  0
LINE
  5
6EE
330
1F
100
AcDbEntity
  8
0
100
AcDbLine
 10
70.33990877862901
 20
54.0164509468389
 30
0.0
 11
70.33990877862901
 21
40.01645094683889
 31
0.0
  0
ARC
  5
6EF
330
1F
100
AcDbEntity
  8
0
100
AcDbCircle
 10
56.33990877862901
 20
54.0164509468389
 30
0.0
 40
0.0
100
AcDbArc
 50
90.0
 51
180.0
  0
ARC
  5
6F0
330
1F
100
AcDbEntity
  8
0
100
AcDbCircle
 10
70.33990877862901
 20
54.0164509468389
 30
0.0
 40
0.0
100
AcDbArc
 50
0.0
 51
90.0
  0
ARC
  5
6F1
330
1F
100
AcDbEntity
  8
0
100
AcDbCircle
 10
56.33990877862901
 20
40.01645094683889
 30
0.0
 40
0.0
100
AcDbArc
 50
180.0
 51
270.0
  0
ARC
  5
6F2
330
1F
100
AcDbEntity
  8
0
100
AcDbCircle
 10
70.33990877862901
 20
40.01645094683889
 30
0.0
 40
0.0
100
AcDbArc
 50
270.0
 51
0.0
  0
LINE
  5
6F3
330
1F
100
AcDbEntity
  8
0
100
AcDbLine
 10
77.77115877862901
 20
54.0164509468389
 30
0.0
 11
91.77115877862901
 21
54.0164509468389
 31
0.0
  0
LINE
  5
6F4
330
1F
100
AcDbEntity
  8
0
100
AcDbLine
 10
77.77115877862901
 20
40.01645094683889
 30
0.0
 11
91.77115877862901
 21
40.01645094683889
 31
0.0
  0
LINE
  5
6F5
330
1F
100
AcDbEntity
  8
0
100
AcDbLine
 10
77.77115877862901
 20
54.0164509468389
 30
0.0
 11
77.77115877862901
 21
40.01645094683889
 31
0.0
  0
LINE
  5
6F6
330
1F
100
AcDbEntity
  8
0
100
AcDbLine
 10
91.77115877862901
 20
54.0164509468389
 30
0.0
 11
91.77115877862901
 21
40.01645094683889
 31
0.0
  0
ARC
  5
6F7
330
1F
100
AcDbEntity
  8
0
100
AcDbCircle
 10
77.77115877862901
 20
54.0164509468389
 30
0.0
 40
0.0
100
AcDbArc
 50
90.0
 51
180.0
  0
ARC
  5
6F8
330
1F
100
AcDbEntity
  8
0
100
AcDbCircle
 10
91.77115877862901
 20
54.0164509468389
 30
0.0
 40
0.0
100
AcDbArc
 50
0.0
 51
90.0
  0
ARC
  5
6F9
330
1F
100
AcDbEntity
  8
0
100
AcDbCircle
 10
77.77115877862901
 20
40.01645094683889
 30
0.0
 40
0.0
100
AcDbArc
 50
180.0
 51
270.0
  0
ARC
  5
6FA
330
1F
100
AcDbEntity
  8
0
100
AcDbCircle
 10
91.77115877862901
 20
40.01645094683889
 30
0.0
 40
0.0
100
AcDbArc
 50
270.0
 51
0.0
  0
LINE
  5
6FB
330
1F
100
AcDbEntity
  8
0
100
AcDbLine
 10
108.727408778629
 20
54.0164509468389
 30
0.0
 11
122.727408778629
 21
54.0164509468389
 31
0.0
  0
LINE
  5
6FC
330
1F
100
AcDbEntity
  8
0
100
AcDbLine
 10
108.727408778629
 20
40.01645094683889
 30
0.0
 11
122.727408778629
 21
40.01645094683889
 31
0.0
  0
LINE
  5
6FD
330
1F
100
AcDbEntity
  8
0
100
AcDbLine
 10
108.727408778629
 20
54.0164509468389
 30
0.0
 11
108.727408778629
 21
40.01645094683889
 31
0.0
  0
LINE
  5
6FE
330
1F
100
AcDbEntity
  8
0
100
AcDbLine
 10
122.727408778629
 20
54.0164509468389
 30
0.0
 11
122.727408778629
 21
40.01645094683889
 31
0.0
  0
ARC
  5
6FF
330
1F
100
AcDbEntity
  8
0
100
AcDbCircle
 10
108.727408778629
 20
54.0164509468389
 30
0.0
 40
0.0
100
AcDbArc
 50
90.0
 51
180.0
  0
ARC
  5
700
330
1F
100
AcDbEntity
  8
0
100
AcDbCircle
 10
122.727408778629
 20
54.0164509468389
 30
0.0
 40
0.0
100
AcDbArc
 50
0.0
 51
90.0
  0
ARC
  5
701
330
1F
100
AcDbEntity
  8
0
100
AcDbCircle
 10
108.727408778629
 20
40.01645094683889
 30
0.0
 40
0.0
100
AcDbArc
 50
180.0
 51
270.0
  0
ARC
  5
702
330
1F
100
AcDbEntity
  8
0
100
AcDbCircle
 10
122.727408778629
 20
40.01645094683889
 30
0.0
 40
0.0
100
AcDbArc
 50
270.0
 51
0.0
  0
ARC
  5
707
330
1F
100
AcDbEntity
  8
0
100
AcDbCircle
 10
124.290408778629
 20
53.0164509468389
 30
0.0
 40
0.0
100
AcDbArc
 50
90.0
 51
180.0
  0
ARC
  5
708
330
1F
100
AcDbEntity
  8
0
100
AcDbCircle
 10
131.040408778629
 20
53.0164509468389
 30
0.0
 40
0.0
100
AcDbArc
 50
0.0
 51
90.0
  0
ARC
  5
70F
330
1F
100
AcDbEntity
  8
0
100
AcDbCircle
 10
100.414408778629
 20
53.0164509468389
 30
0.0
 40
0.0
100
AcDbArc
 50
90.0
 51
180.0
  0
ARC
  5
710
330
1F
100
AcDbEntity
  8
0
100
AcDbCircle
 10
107.164408778629
 20
53.0164509468389
 30
0.0
 40
0.0
100
AcDbArc
 50
0.0
 51
90.0
  0
LINE
  5
713
330
1F
100
AcDbEntity
  8
0
100
AcDbLine
 10
156.352408778629
 20
54.0164509468389
 30
0.0
 11
170.352408778629
 21
54.0164509468389
 31
0.0
  0
LINE
  5
714
330
1F
100
AcDbEntity
  8
0
100
AcDbLine
 10
156.352408778629
 20
40.01645094683889
 30
0.0
 11
170.352408778629
 21
40.01645094683889
 31
0.0
  0
LINE
  5
715
330
1F
100
AcDbEntity
  8
0
100
AcDbLine
 10
156.352408778629
 20
54.0164509468389
 30
0.0
 11
156.352408778629
 21
40.01645094683889
 31
0.0
  0
LINE
  5
716
330
1F
100
AcDbEntity
  8
0
100
AcDbLine
 10
170.352408778629
 20
54.0164509468389
 30
0.0
 11
170.352408778629
 21
40.01645094683889
 31
0.0
  0
ARC
  5
717
330
1F
100
AcDbEntity
  8
0
100
AcDbCircle
 10
156.352408778629
 20
54.0164509468389
 30
0.0
 40
0.0
100
AcDbArc
 50
90.0
 51
180.0
  0
ARC
  5
718
330
1F
100
AcDbEntity
  8
0
100
AcDbCircle
 10
170.352408778629
 20
54.0164509468389
 30
0.0
 40
0.0
100
AcDbArc
 50
0.0
 51
90.0
  0
ARC
  5
719
330
1F
100
AcDbEntity
  8
0
100
AcDbCircle
 10
156.352408778629
 20
40.01645094683889
 30
0.0
 40
0.0
100
AcDbArc
 50
180.0
 51
270.0
  0
ARC
  5
71A
330
1F
100
AcDbEntity
  8
0
100
AcDbCircle
 10
170.352408778629
 20
40.01645094683889
 30
0.0
 40
0.0
100
AcDbArc
 50
270.0
 51
0.0
  0
ARC
  5
71F
330
1F
100
AcDbEntity
  8
0
100
AcDbCircle
 10
171.915408778629
 20
53.0164509468389
 30
0.0
 40
0.0
100
AcDbArc
 50
90.0
 51
180.0
  0
ARC
  5
720
330
1F
100
AcDbEntity
  8
0
100
AcDbCircle
 10
178.665408778629
 20
53.0164509468389
 30
0.0
 40
0.0
100
AcDbArc
 50
0.0
 51
90.0
  0
ARC
  5
727
330
1F
100
AcDbEntity
  8
0
100
AcDbCircle
 10
148.039408778629
 20
53.0164509468389
 30
0.0
 40
0.0
100
AcDbArc
 50
90.0
 51
180.0
  0
ARC
  5
728
330
1F
100
AcDbEntity
  8
0
100
AcDbCircle
 10
154.789408778629
 20
53.0164509468389
 30
0.0
 40
0.0
100
AcDbArc
 50
0.0
 51
90.0
  0
LINE
  5
72B
330
1F
100
AcDbEntity
  8
0
100
AcDbLine
 10
192.071158778629
 20
54.0164509468389
 30
0.0
 11
206.071158778629
 21
54.0164509468389
 31
0.0
  0
LINE
  5
72C
330
1F
100
AcDbEntity
  8
0
100
AcDbLine
 10
192.071158778629
 20
40.01645094683889
 30
0.0
 11
206.071158778629
 21
40.01645094683889
 31
0.0
  0
LINE
  5
72D
330
1F
100
AcDbEntity
  8
0
100
AcDbLine
 10
192.071158778629
 20
54.0164509468389
 30
0.0
 11
192.071158778629
 21
40.01645094683889
 31
0.0
  0
LINE
  5
72E
330
1F
100
AcDbEntity
  8
0
100
AcDbLine
 10
206.071158778629
 20
54.0164509468389
 30
0.0
 11
206.071158778629
 21
40.01645094683889
 31
0.0
  0
ARC
  5
72F
330
1F
100
AcDbEntity
  8
0
100
AcDbCircle
 10
192.071158778629
 20
54.0164509468389
 30
0.0
 40
0.0
100
AcDbArc
 50
90.0
 51
180.0
  0
ARC
  5
730
330
1F
100
AcDbEntity
  8
0
100
AcDbCircle
 10
206.071158778629
 20
54.0164509468389
 30
0.0
 40
0.0
100
AcDbArc
 50
0.0
 51
90.0
  0
ARC
  5
731
330
1F
100
AcDbEntity
  8
0
100
AcDbCircle
 10
192.071158778629
 20
40.01645094683889
 30
0.0
 40
0.0
100
AcDbArc
 50
180.0
 51
270.0
  0
ARC
  5
732
330
1F
100
AcDbEntity
  8
0
100
AcDbCircle
 10
206.071158778629
 20
40.01645094683889
 30
0.0
 40
0.0
100
AcDbArc
 50
270.0
 51
0.0
  0
LINE
  5
733
330
1F
100
AcDbEntity
  8
0
100
AcDbLine
 10
213.502408778629
 20
54.0164509468389
 30
0.0
 11
227.502408778629
 21
54.0164509468389
 31
0.0
  0
LINE
  5
734
330
1F
100
AcDbEntity
  8
0
100
AcDbLine
 10
213.502408778629
 20
40.01645094683889
 30
0.0
 11
227.502408778629
 21
40.01645094683889
 31
0.0
  0
LINE
  5
735
330
1F
100
AcDbEntity
  8
0
100
AcDbLine
 10
213.502408778629
 20
54.0164509468389
 30
0.0
 11
213.502408778629
 21
40.01645094683889
 31
0.0
  0
LINE
  5
736
330
1F
100
AcDbEntity
  8
0
100
AcDbLine
 10
227.502408778629
 20
54.0164509468389
 30
0.0
 11
227.502408778629
 21
40.01645094683889
 31
0.0
  0
ARC
  5
737
330
1F
100
AcDbEntity
  8
0
100
AcDbCircle
 10
213.502408778629
 20
54.0164509468389
 30
0.0
 40
0.0
100
AcDbArc
 50
90.0
 51
180.0
  0
ARC
  5
738
330
1F
100
AcDbEntity
  8
0
100
AcDbCircle
 10
227.502408778629
 20
54.0164509468389
 30
0.0
 40
0.0
100
AcDbArc
 50
0.0
 51
90.0
  0
ARC
  5
739
330
1F
100
AcDbEntity
  8
0
100
AcDbCircle
 10
213.502408778629
 20
40.01645094683889
 30
0.0
 40
0.0
100
AcDbArc
 50
180.0
 51
270.0
  0
ARC
  5
73A
330
1F
100
AcDbEntity
  8
0
100
AcDbCircle
 10
227.502408778629
 20
40.01645094683889
 30
0.0
 40
0.0
100
AcDbArc
 50
270.0
 51
0.0
  0
LINE
  5
73B
330
1F
100
AcDbEntity
  8
0
100
AcDbLine
 10
234.933658778629
 20
54.0164509468389
 30
0.0
 11
248.933658778629
 21
54.0164509468389
 31
0.0
  0
LINE
  5
73C
330
1F
100
AcDbEntity
  8
0
100
AcDbLine
 10
234.933658778629
 20
40.01645094683889
 30
0.0
 11
248.933658778629
 21
40.01645094683889
 31
0.0
  0
LINE
  5
73D
330
1F
100
AcDbEntity
  8
0
100
AcDbLine
 10
234.933658778629
 20
54.0164509468389
 30
0.0
 11
234.933658778629
 21
40.01645094683889
 31
0.0
  0
LINE
  5
73E
330
1F
100
AcDbEntity
  8
0
100
AcDbLine
 10
248.933658778629
 20
54.0164509468389
 30
0.0
 11
248.933658778629
 21
40.01645094683889
 31
0.0
  0
ARC
  5
73F
330
1F
100
AcDbEntity
  8
0
100
AcDbCircle
 10
234.933658778629
 20
54.0164509468389
 30
0.0
 40
0.0
100
AcDbArc
 50
90.0
 51
180.0
  0
ARC
  5
740
330
1F
100
AcDbEntity
  8
0
100
AcDbCircle
 10
248.933658778629
 20
54.0164509468389
 30
0.0
 40
0.0
100
AcDbArc
 50
0.0
 51
90.0
  0
ARC
  5
741
330
1F
100
AcDbEntity
  8
0
100
AcDbCircle
 10
234.933658778629
 20
40.01645094683889
 30
0.0
 40
0.0
100
AcDbArc
 50
180.0
 51
270.0
  0
ARC
  5
742
330
1F
100
AcDbEntity
  8
0
100
AcDbCircle
 10
248.933658778629
 20
40.01645094683889
 30
0.0
 40
0.0
100
AcDbArc
 50
270.0
 51
0.0
  0
LINE
  5
7D7
330
1F
100
AcDbEntity
  8
0
100
AcDbLine
 10
275.271158778629
 20
113.6914509468389
 30
0.0
 11
8.571158778629012
 21
113.6914509468389
 31
0.0
  0
LINE
  5
7DA
330
1F
100
AcDbEntity
  8
0
100
AcDbLine
 10
8.571158778629012
 20
37.49145094683891
 30
0.0
 11
275.271158778629
 21
37.49145094683891
 31
0.0
  0
LINE
  5
7DB
330
1F
100
AcDbEntity
  8
0
100
AcDbLine
 10
8.571158778629012
 20
37.49145094683891
 30
0.0
 11
8.571158778629012
 21
113.6914509468389
 31
0.0
  0
LINE
  5
7DC
330
1F
100
AcDbEntity
  8
0
100
AcDbLine
 10
275.271158778629
 20
113.6914509468389
 30
0.0
 11
275.271158778629
 21
37.49145094683891
 31
0.0
  0
LINE
  5
7DD
330
1F
100
AcDbEntity
  8
0
100
AcDbLine
 10
100.414408778629
 20
54.0164509468389
 30
0.0
 11
100.414408778629
 21
40.01645094683889
 31
0.0
  0
LINE
  5
7DE
330
1F
100
AcDbEntity
  8
0
100
AcDbLine
 10
100.414408778629
 20
40.01645094683889
 30
0.0
 11
107.164408778629
 21
40.01645094683889
 31
0.0
  0
LINE
  5
7DF
330
1F
100
AcDbEntity
  8
0
100
AcDbLine
 10
107.164408778629
 20
40.01645094683889
 30
0.0
 11
107.164408778629
 21
54.01645094683889
 31
0.0
  0
LINE
  5
7E0
330
1F
100
AcDbEntity
  8
0
100
AcDbLine
 10
107.164408778629
 20
54.01645094683889
 30
0.0
 11
100.414408778629
 21
54.01645094683889
 31
0.0
  0
LINE
  5
7E1
330
1F
100
AcDbEntity
  8
0
100
AcDbLine
 10
131.040408778629
 20
54.0164509468389
 30
0.0
 11
131.040408778629
 21
40.01645094683889
 31
0.0
  0
LINE
  5
7E2
330
1F
100
AcDbEntity
  8
0
100
AcDbLine
 10
131.040408778629
 20
40.01645094683889
 30
0.0
 11
124.290408778629
 21
40.01645094683889
 31
0.0
  0
LINE
  5
7E3
330
1F
100
AcDbEntity
  8
0
100
AcDbLine
 10
124.290408778629
 20
40.01645094683889
 30
0.0
 11
124.290408778629
 21
54.01645094683891
 31
0.0
  0
LINE
  5
7E4
330
1F
100
AcDbEntity
  8
0
100
AcDbLine
 10
124.290408778629
 20
54.01645094683891
 30
0.0
 11
131.040408778629
 21
54.0164509468389
 31
0.0
  0
LINE
  5
7E5
330
1F
100
AcDbEntity
  8
0
100
AcDbLine
 10
148.039408778629
 20
54.0164509468389
 30
0.0
 11
148.039408778629
 21
40.01645094683889
 31
0.0
  0
LINE
  5
7E6
330
1F
100
AcDbEntity
  8
0
100
AcDbLine
 10
148.039408778629
 20
40.01645094683889
 30
0.0
 11
154.789408778629
 21
40.01645094683889
 31
0.0
  0
LINE
  5
7E7
330
1F
100
AcDbEntity
  8
0
100
AcDbLine
 10
154.789408778629
 20
40.01645094683889
 30
0.0
 11
154.789408778629
 21
54.01645094683891
 31
0.0
  0
LINE
  5
7E8
330
1F
100
AcDbEntity
  8
0
100
AcDbLine
 10
154.789408778629
 20
54.01645094683891
 30
0.0
 11
148.039408778629
 21
54.0164509468389
 31
0.0
  0
LINE
  5
7E9
330
1F
100
AcDbEntity
  8
0
100
AcDbLine
 10
178.665408778629
 20
54.0164509468389
 30
0.0
 11
178.665408778629
 21
40.01645094683889
 31
0.0
  0
LINE
  5
7EA
330
1F
100
AcDbEntity
  8
0
100
AcDbLine
 10
178.665408778629
 20
40.01645094683889
 30
0.0
 11
171.915408778629
 21
40.01645094683889
 31
0.0
  0
LINE
  5
7EB
330
1F
100
AcDbEntity
  8
0
100
AcDbLine
 10
171.915408778629
 20
40.01645094683889
 30
0.0
 11
171.915408778629
 21
54.0164509468389
 31
0.0
  0
LINE
  5
7EC
330
1F
100
AcDbEntity
  8
0
100
AcDbLine
 10
171.915408778629
 20
54.0164509468389
 30
0.0
 11
178.665408778629
 21
54.0164509468389
 31
0.0
  0
ENDSEC
  0
SECTION
  2
OBJECTS
  0
DICTIONARY
  5
C
330
0
100
AcDbDictionary
281
     1
  3
ACAD_CIP_PREVIOUS_PRODUCT_INFO
350
7CD
  3
ACAD_COLOR
350
4E1
  3
ACAD_DETAILVIEWSTYLE
350
7C7
  3
ACAD_GROUP
350
4E2
  3
ACAD_LAYOUT
350
4E3
  3
ACAD_MATERIAL
350
4E4
  3
ACAD_MLEADERSTYLE
350
4E5
  3
ACAD_MLINESTYLE
350
4E6
  3
ACAD_PLOTSETTINGS
350
4E7
  3
ACAD_PLOTSTYLENAME
350
4E9
  3
ACAD_SCALELIST
350
4EA
  3
ACAD_SECTIONVIEWSTYLE
350
7C5
  3
ACAD_TABLESTYLE
350
4EB
  3
ACAD_VISUALSTYLE
350
4EC
  3
ACDB_RECOMPOSE_DATA
350
7FB
  3
AcDbVariableDictionary
350
7F3
  0
XRECORD
  5
7CD
102
{ACAD_REACTORS
330
C
102
}
330
C
100
AcDbXrecord
280
     1
300
ACD
300
2020
300
ACD_F_S
  0
DICTIONARY
  5
4E1
330
C
100
AcDbDictionary
281
     1
  0
DICTIONARY
  5
7C7
102
{ACAD_REACTORS
330
C
102
}
330
C
100
AcDbDictionary
281
     1
  3
Metric50
350
7C8
  0
DICTIONARY
  5
4E2
330
C
100
AcDbDictionary
281
     1
  0
DICTIONARY
  5
4E3
330
C
100
AcDbDictionary
281
     1
  3
Layout1
350
4EE
  3
Model
350
4ED
  0
DICTIONARY
  5
4E4
330
C
100
AcDbDictionary
281
     1
  3
ByBlock
350
789
  3
ByLayer
350
781
  3
Global
350
791
  0
DICTIONARY
  5
4E5
330
C
100
AcDbDictionary
281
     1
  3
Standard
350
7C4
  0
DICTIONARY
  5
4E6
330
C
100
AcDbDictionary
281
     1
  3
Standard
350
7B2
  0
DICTIONARY
  5
4E7
330
C
100
AcDbDictionary
281
     1
  0
ACDBDICTIONARYWDFLT
  5
4E9
330
C
100
AcDbDictionary
281
     1
  3
Normal
350
4E8
100
AcDbDictionaryWithDefault
340
4E8
  0
DICTIONARY
  5
4EA
330
C
100
AcDbDictionary
281
     1
  3
A0
350
7B3
  3
A1
350
7B4
  3
A2
350
7B5
  3
A3
350
7B6
  3
A4
350
7B7
  3
A5
350
7B8
  3
A6
350
7B9
  3
A7
350
7BA
  3
A8
350
7BB
  3
A9
350
7BC
  3
B0
350
7BD
  3
B1
350
7BE
  3
B2
350
7BF
  3
B3
350
7C0
  3
B4
350
7C1
  3
B5
350
7C2
  3
B6
350
7C3
  0
DICTIONARY
  5
7C5
102
{ACAD_REACTORS
330
C
102
}
330
C
100
AcDbDictionary
281
     1
  3
Metric50
350
7C6
  0
DICTIONARY
  5
4EB
330
C
100
AcDbDictionary
281
     1
  3
Standard
350
7B1
  0
DICTIONARY
  5
4EC
330
C
100
AcDbDictionary
281
     1
  3
2dWireframe
350
79E
  3
Basic
350
79D
  3
Brighten
350
7A4
  3
ColorChange
350
7A8
  3
Conceptual
350
7A1
  3
Dim
350
7A3
  3
EdgeColorOff
350
7B0
  3
Facepattern
350
7A7
  3
Flat
350
799
  3
FlatWithEdges
350
79A
  3
Gouraud
350
79B
  3
GouraudWithEdges
350
79C
  3
Hidden
350
7A0
  3
JitterOff
350
7AE
  3
Linepattern
350
7A6
  3
OverhangOff
350
7AF
  3
Realistic
350
7A2
  3
Shaded
350
7AD
  3
Shaded with edges
350
7AC
  3
Shades of Gray
350
7A9
  3
Sketchy
350
7AA
  3
Thicken
350
7A5
  3
Wireframe
350
79F
  3
X-Ray
350
7AB
  0
XRECORD
  5
7FB
102
{ACAD_REACTORS
330
C
102
}
330
C
100
AcDbXrecord
280
     1
 90
        1
330
7B1
  0
DICTIONARY
  5
7F3
102
{ACAD_REACTORS
330
C
102
}
330
C
100
AcDbDictionary
281
     1
  3
CANNOSCALE
350
7F8
  3
CMLEADERSTYLE
350
7F5
  3
CTABLESTYLE
350
7F4
  3
CVIEWDETAILSTYLE
350
7F6
  3
CVIEWSECTIONSTYLE
350
7F7
  0
ACDBDETAILVIEWSTYLE
  5
7C8
102
{ACAD_REACTORS
330
7C7
102
}
330
7C7
100
AcDbModelDocViewStyle
 70
     0
  3
Metric50
290
     0
300
Metric50
 90
        0
100
AcDbDetailViewStyle
 70
     0
 71
     0
 90
        3
 71
     1
340
11
 62
   256
 40
5.0
340
0
 62
   256
 40
5.0
300

 40
0.0
280
     1
 71
     2
340
16
 90
       25
 62
   256
 71
     3
340
11
 62
   256
 40
5.0
 90
        0
 40
15.0
 90
        1
300
%<\AcVar ViewDetailId>% (%<\AcVar ViewScale \f "%sn">%)
 71
     4
340
16
 90
       25
 62
   256
340
16
 90
       25
 62
   256
280
     0
  0
LAYOUT
  5
4EE
330
4E3
100
AcDbPlotSettings
  1

  2
DWFx ePlot (XPS Compatible).pc3
  4
ANSI_A_(8.50_x_11.00_Inches)
  6

 40
5.799999999999999
 41
17.8
 42
5.799999999999999
 43
17.8
 44
215.9
 45
279.4
 46
0.0
 47
0.0
 48
0.0
 49
0.0
140
0.0
141
0.0
142
1.0
143
1.0
 70
   688
 72
     0
 73
     1
 74
     5
  7
acad.ctb
 75
    16
147
1.0
 76
     0
 77
     2
 78
   300
148
0.0
149
0.0
100
AcDbLayout
  1
Layout1
 70
     1
 71
     1
 10
-0.7005418191744587
 20
-0.2281003861915408
 11
10.29945794052965
 21
8.271899373512571
 12
0.0
 22
0.0
 32
0.0
 14
0.6288667663970601
 24
0.7999999523162842
 34
0.0
 15
9.028866384927335
 25
7.199999570846557
 35
0.0
146
0.0
 13
0.0
 23
0.0
 33
0.0
 16
1.0
 26
0.0
 36
0.0
 17
0.0
 27
1.0
 37
0.0
 76
     0
330
58
  0
LAYOUT
  5
4ED
330
4E3
100
AcDbPlotSettings
  1

  2
DWFx ePlot (XPS Compatible).pc3
  4
ANSI_A_(8.50_x_11.00_Inches)
  6

 40
5.799999999999999
 41
17.8
 42
5.799999999999999
 43
17.8
 44
215.9
 45
279.4
 46
0.0
 47
0.0
 48
0.0
 49
0.0
140
0.0
141
0.0
142
1.0
143
14.53
 70
 11952
 72
     0
 73
     1
 74
     0
  7

 75
     0
147
0.069
 76
     0
 77
     2
 78
   300
148
114.98
149
300.29
100
AcDbLayout
  1
Model
 70
     1
 71
     0
 10
0.0
 20
0.0
 11
12.0
 21
9.0
 12
0.0
 22
0.0
 32
0.0
 14
0.0
 24
0.0
 34
0.0
 15
0.0
 25
0.0
 35
0.0
146
0.0
 13
0.0
 23
0.0
 33
0.0
 16
1.0
 26
0.0
 36
0.0
 17
0.0
 27
1.0
 37
0.0
 76
     0
330
1F
331
7CC
  0
MATERIAL
  5
789
102
{ACAD_XDICTIONARY
360
78A
102
}
102
{ACAD_REACTORS
330
4E4
102
}
330
4E4
100
AcDbMaterial
  1
ByBlock
 72
     0
 43
0.0008202099737533
 43
0.0
 43
0.0
 43
0.0
 43
0.0
 43
0.0008202099737533
 43
0.0
 43
0.0
 43
0.0
 43
0.0
 43
1.0
 43
0.0
 43
0.0
 43
0.0
 43
0.0
 43
1.0
 77
     0
 47
0.0008202099737533
 47
0.0
 47
0.0
 47
0.0
 47
0.0
 47
0.0008202099737533
 47
0.0
 47
0.0
 47
0.0
 47
0.0
 47
1.0
 47
0.0
 47
0.0
 47
0.0
 47
0.0
 47
1.0
171
     0
 49
0.0008202099737533
 49
0.0
 49
0.0
 49
0.0
 49
0.0
 49
0.0008202099737533
 49
0.0
 49
0.0
 49
0.0
 49
0.0
 49
1.0
 49
0.0
 49
0.0
 49
0.0
 49
0.0
 49
1.0
175
     0
142
0.0008202099737533
142
0.0
142
0.0
142
0.0
142
0.0
142
0.0008202099737533
142
0.0
142
0.0
142
0.0
142
0.0
142
1.0
142
0.0
142
0.0
142
0.0
142
0.0
142
1.0
179
     0
144
0.0008202099737533
144
0.0
144
0.0
144
0.0
144
0.0
144
0.0008202099737533
144
0.0
144
0.0
144
0.0
144
0.0
144
1.0
144
0.0
144
0.0
144
0.0
144
0.0
144
1.0
147
0.0008202099737533
147
0.0
147
0.0
147
0.0
147
0.0
147
0.0008202099737533
147
0.0
147
0.0
147
0.0
147
0.0
147
1.0
147
0.0
147
0.0
147
0.0
147
0.0
147
1.0
  0
MATERIAL
  5
781
102
{ACAD_XDICTIONARY
360
782
102
}
102
{ACAD_REACTORS
330
4E4
102
}
330
4E4
100
AcDbMaterial
  1
ByLayer
 72
     0
 43
0.0008202099737533
 43
0.0
 43
0.0
 43
0.0
 43
0.0
 43
0.0008202099737533
 43
0.0
 43
0.0
 43
0.0
 43
0.0
 43
1.0
 43
0.0
 43
0.0
 43
0.0
 43
0.0
 43
1.0
 77
     0
 47
0.0008202099737533
 47
0.0
 47
0.0
 47
0.0
 47
0.0
 47
0.0008202099737533
 47
0.0
 47
0.0
 47
0.0
 47
0.0
 47
1.0
 47
0.0
 47
0.0
 47
0.0
 47
0.0
 47
1.0
171
     0
 49
0.0008202099737533
 49
0.0
 49
0.0
 49
0.0
 49
0.0
 49
0.0008202099737533
 49
0.0
 49
0.0
 49
0.0
 49
0.0
 49
1.0
 49
0.0
 49
0.0
 49
0.0
 49
0.0
 49
1.0
175
     0
142
0.0008202099737533
142
0.0
142
0.0
142
0.0
142
0.0
142
0.0008202099737533
142
0.0
142
0.0
142
0.0
142
0.0
142
1.0
142
0.0
142
0.0
142
0.0
142
0.0
142
1.0
179
     0
144
0.0008202099737533
144
0.0
144
0.0
144
0.0
144
0.0
144
0.0008202099737533
144
0.0
144
0.0
144
0.0
144
0.0
144
1.0
144
0.0
144
0.0
144
0.0
144
0.0
144
1.0
147
0.0008202099737533
147
0.0
147
0.0
147
0.0
147
0.0
147
0.0008202099737533
147
0.0
147
0.0
147
0.0
147
0.0
147
1.0
147
0.0
147
0.0
147
0.0
147
0.0
147
1.0
  0
MATERIAL
  5
791
102
{ACAD_XDICTIONARY
360
792
102
}
102
{ACAD_REACTORS
330
4E4
102
}
330
4E4
100
AcDbMaterial
  1
Global
 72
     0
 43
0.0008202099737533
 43
0.0
 43
0.0
 43
0.0
 43
0.0
 43
0.0008202099737533
 43
0.0
 43
0.0
 43
0.0
 43
0.0
 43
1.0
 43
0.0
 43
0.0
 43
0.0
 43
0.0
 43
1.0
 77
     0
 47
0.0008202099737533
 47
0.0
 47
0.0
 47
0.0
 47
0.0
 47
0.0008202099737533
 47
0.0
 47
0.0
 47
0.0
 47
0.0
 47
1.0
 47
0.0
 47
0.0
 47
0.0
 47
0.0
 47
1.0
171
     0
 49
0.0008202099737533
 49
0.0
 49
0.0
 49
0.0
 49
0.0
 49
0.0008202099737533
 49
0.0
 49
0.0
 49
0.0
 49
0.0
 49
1.0
 49
0.0
 49
0.0
 49
0.0
 49
0.0
 49
1.0
175
     0
142
0.0008202099737533
142
0.0
142
0.0
142
0.0
142
0.0
142
0.0008202099737533
142
0.0
142
0.0
142
0.0
142
0.0
142
1.0
142
0.0
142
0.0
142
0.0
142
0.0
142
1.0
179
     0
144
0.0008202099737533
144
0.0
144
0.0
144
0.0
144
0.0
144
0.0008202099737533
144
0.0
144
0.0
144
0.0
144
0.0
144
1.0
144
0.0
144
0.0
144
0.0
144
0.0
144
1.0
147
0.0008202099737533
147
0.0
147
0.0
147
0.0
147
0.0
147
0.0008202099737533
147
0.0
147
0.0
147
0.0
147
0.0
147
1.0
147
0.0
147
0.0
147
0.0
147
0.0
147
1.0
  0
MLEADERSTYLE
  5
7C4
102
{ACAD_REACTORS
330
4E5
102
}
330
4E5
100
AcDbMLeaderStyle
179
     2
170
     2
171
     1
172
     0
 90
        2
 40
0.0
 41
0.0
173
     1
 91
-1056964608
340
14
 92
       -2
290
     1
 42
2.0
291
     1
 43
0.36
  3
Standard
 44
4.0
300

342
11
174
     1
178
     6
175
     1
176
     0
 93
-1056964608
 45
4.0
292
     0
297
     0
 46
4.0
 94
-1056964608
 47
1.0
 49
1.0
140
1.0
293
     1
141
0.0
294
     1
177
     0
142
1.0
295
     0
296
     0
143
0.125
271
     0
272
     9
273
     9
298
     0
  0
MLINESTYLE
  5
7B2
102
{ACAD_REACTORS
330
4E6
102
}
330
4E6
100
AcDbMlineStyle
  2
STANDARD
 70
     0
  3

 62
   256
 51
90.0
 52
90.0
 71
     2
 49
0.5
 62
   256
  6
BYLAYER
 49
-0.5
 62
   256
  6
BYLAYER
  0
ACDBPLACEHOLDER
  5
4E8
330
4E9
  0
SCALE
  5
7B3
102
{ACAD_REACTORS
330
4EA
102
}
330
4EA
100
AcDbScale
 70
     0
300
1:1
140
1.0
141
1.0
290
     1
  0
SCALE
  5
7B4
102
{ACAD_REACTORS
330
4EA
102
}
330
4EA
100
AcDbScale
 70
     0
300
1:2
140
1.0
141
2.0
290
     0
  0
SCALE
  5
7B5
102
{ACAD_REACTORS
330
4EA
102
}
330
4EA
100
AcDbScale
 70
     0
300
1:4
140
1.0
141
4.0
290
     0
  0
SCALE
  5
7B6
102
{ACAD_REACTORS
330
4EA
102
}
330
4EA
100
AcDbScale
 70
     0
300
1:5
140
1.0
141
5.0
290
     0
  0
SCALE
  5
7B7
102
{ACAD_REACTORS
330
4EA
102
}
330
4EA
100
AcDbScale
 70
     0
300
1:8
140
1.0
141
8.0
290
     0
  0
SCALE
  5
7B8
102
{ACAD_REACTORS
330
4EA
102
}
330
4EA
100
AcDbScale
 70
     0
300
1:10
140
1.0
141
10.0
290
     0
  0
SCALE
  5
7B9
102
{ACAD_REACTORS
330
4EA
102
}
330
4EA
100
AcDbScale
 70
     0
300
1:16
140
1.0
141
16.0
290
     0
  0
SCALE
  5
7BA
102
{ACAD_REACTORS
330
4EA
102
}
330
4EA
100
AcDbScale
 70
     0
300
1:20
140
1.0
141
20.0
290
     0
  0
SCALE
  5
7BB
102
{ACAD_REACTORS
330
4EA
102
}
330
4EA
100
AcDbScale
 70
     0
300
1:30
140
1.0
141
30.0
290
     0
  0
SCALE
  5
7BC
102
{ACAD_REACTORS
330
4EA
102
}
330
4EA
100
AcDbScale
 70
     0
300
1:40
140
1.0
141
40.0
290
     0
  0
SCALE
  5
7BD
102
{ACAD_REACTORS
330
4EA
102
}
330
4EA
100
AcDbScale
 70
     0
300
1:50
140
1.0
141
50.0
290
     0
  0
SCALE
  5
7BE
102
{ACAD_REACTORS
330
4EA
102
}
330
4EA
100
AcDbScale
 70
     0
300
1:100
140
1.0
141
100.0
290
     0
  0
SCALE
  5
7BF
102
{ACAD_REACTORS
330
4EA
102
}
330
4EA
100
AcDbScale
 70
     0
300
2:1
140
2.0
141
1.0
290
     0
  0
SCALE
  5
7C0
102
{ACAD_REACTORS
330
4EA
102
}
330
4EA
100
AcDbScale
 70
     0
300
4:1
140
4.0
141
1.0
290
     0
  0
SCALE
  5
7C1
102
{ACAD_REACTORS
330
4EA
102
}
330
4EA
100
AcDbScale
 70
     0
300
8:1
140
8.0
141
1.0
290
     0
  0
SCALE
  5
7C2
102
{ACAD_REACTORS
330
4EA
102
}
330
4EA
100
AcDbScale
 70
     0
300
10:1
140
10.0
141
1.0
290
     0
  0
SCALE
  5
7C3
102
{ACAD_REACTORS
330
4EA
102
}
330
4EA
100
AcDbScale
 70
     0
300
100:1
140
100.0
141
1.0
290
     0
  0
ACDBSECTIONVIEWSTYLE
  5
7C6
102
{ACAD_REACTORS
330
7C5
102
}
330
7C5
100
AcDbModelDocViewStyle
 70
     0
  3
Metric50
290
     0
300
Metric50
 90
        0
100
AcDbSectionViewStyle
 70
     0
 71
     0
 90
      102
 71
     1
340
11
 62
   256
 40
5.0
340
0
340
0
 62
   256
 40
5.0
300
I, O, Q, S, X, Z
 40
10.0
 90
        0
 40
2.5
 90
        0
 71
     2
340
16
 90
       25
 62
   256
340
16
 90
       50
 62
   256
 40
5.0
 40
2.5
 40
5.0
 71
     3
340
11
 62
   256
 40
5.0
 90
        0
 40
15.0
 90
        1
300
%<\AcVar ViewSectionStartId>%-%<\AcVar ViewSectionEndId>% (%<\AcVar ViewScale \f "%sn">%)
 71
     4
 62
   256
 62
   257
300
ANSI31
 40
1.0
 90
        0
290
     0
290
     0
 90
        6
 40
0.0
 40
1.570796326794896
 40
0.2617993877991494
 40
1.308996938995747
 40
-0.2617993877991494
 40
1.832595714594046
  0
TABLESTYLE
  5
7B1
102
{ACAD_XDICTIONARY
360
7F9
102
}
102
{ACAD_REACTORS
330
4EB
102
}
330
4EB
100
AcDbTableStyle
280
     0
  3
Standard
 70
     0
 71
     0
 40
1.5
 41
1.5
280
     0
281
     0
  7
Standard
140
4.5
170
     2
 62
     0
 63
     7
283
     0
 90
      512
 91
        0
  1

274
    -2
284
     1
 64
     0
275
    -2
285
     1
 65
     0
276
    -2
286
     1
 66
     0
277
    -2
287
     1
 67
     0
278
    -2
288
     1
 68
     0
279
    -2
289
     1
 69
     0
  7
Standard
140
6.0
170
     5
 62
     0
 63
     7
283
     0
 90
      512
 91
        0
  1

274
    -2
284
     1
 64
     0
275
    -2
285
     1
 65
     0
276
    -2
286
     1
 66
     0
277
    -2
287
     1
 67
     0
278
    -2
288
     1
 68
     0
279
    -2
289
     1
 69
     0
  7
Standard
140
4.5
170
     5
 62
     0
 63
     7
283
     0
 90
      512
 91
        0
  1

274
    -2
284
     1
 64
     0
275
    -2
285
     1
 65
     0
276
    -2
286
     1
 66
     0
277
    -2
287
     1
 67
     0
278
    -2
288
     1
 68
     0
279
    -2
289
     1
 69
     0
  0
VISUALSTYLE
  5
79E
102
{ACAD_REACTORS
330
4EC
102
}
330
4EC
100
AcDbVisualStyle
  2
2dWireframe
 70
     4
177
     3
291
     0
 70
    58
 90
        0
176
     1
 90
        2
176
     1
 90
        0
176
     1
 90
        0
176
     1
 40
0.6
176
     1
 40
30.0
176
     1
 62
     7
420
 16777215
176
     1
 90
        1
176
     1
 90
        4
176
     1
 62
     7
176
     1
 62
   257
176
     1
 90
        1
176
     1
 90
        1
176
     1
 40
1.0
176
     1
 90
        0
176
     1
 62
   257
176
     1
 40
1.0
176
     1
 90
        1
176
     1
 90
        6
176
     1
 90
        2
176
     1
 62
     7
176
     1
 90
        5
176
     1
 90
        0
176
     1
 90
        0
176
     1
290
     0
176
     1
 90
        1
176
     1
 40
0.0
176
     1
 90
        0
176
     1
290
     1
176
     1
290
     1
176
     1
290
     0
176
     1
290
     0
176
     1
290
     0
176
     1
290
     0
176
     1
290
     0
176
     1
290
     0
176
     1
290
     0
176
     1
 90
       50
176
     1
 40
0.0
176
     1
 40
1.0
176
     1
 90
        0
176
     1
 62
    18
420
        0
176
     1
 90
       50
176
     1
 90
        3
176
     1
 62
     5
420
      255
176
     1
290
     0
176
     1
 90
       50
176
     1
 90
       50
176
     1
 90
       50
176
     1
290
     0
176
     1
 90
       50
176
     1
 62
   256
176
     0
 40
1.0
176
     0
 90
        2
176
     1
  1
strokes_ogs.tif
176
     1
290
     0
176
     1
 40
1.0
176
     1
 40
1.0
176
     1
  0
VISUALSTYLE
  5
79D
102
{ACAD_REACTORS
330
4EC
102
}
330
4EC
100
AcDbVisualStyle
  2
Basic
 70
     7
177
     3
291
     1
 70
    58
 90
        1
176
     1
 90
        0
176
     1
 90
        1
176
     1
 90
        0
176
     1
 40
0.6
176
     1
 40
30.0
176
     1
 62
     7
420
 16777215
176
     1
 90
        0
176
     1
 90
        4
176
     1
 62
     7
176
     1
 62
   257
176
     1
 90
        1
176
     1
 90
        1
176
     1
 40
1.0
176
     1
 90
        8
176
     1
 62
     7
176
     1
 40
1.0
176
     1
 90
        1
176
     1
 90
        6
176
     1
 90
        2
176
     1
 62
     7
176
     1
 90
        5
176
     1
 90
        0
176
     1
 90
        0
176
     1
290
     0
176
     1
 90
        1
176
     1
 40
0.0
176
     1
 90
        0
176
     1
290
     0
176
     1
290
     1
176
     1
290
     1
176
     1
290
     0
176
     1
290
     0
176
     1
290
     0
176
     1
290
     0
176
     1
290
     0
176
     1
290
     0
176
     1
 90
       50
176
     1
 40
0.0
176
     1
 40
1.0
176
     1
 90
        0
176
     1
 62
    18
420
        0
176
     1
 90
       50
176
     1
 90
        3
176
     1
 62
     5
420
      255
176
     1
290
     0
176
     1
 90
       50
176
     1
 90
       50
176
     1
 90
       50
176
     1
290
     0
176
     1
 90
       50
176
     1
 62
   256
176
     0
 40
1.0
176
     0
 90
        2
176
     1
  1
strokes_ogs.tif
176
     1
290
     0
176
     1
 40
1.0
176
     1
 40
1.0
176
     1
  0
VISUALSTYLE
  5
7A4
102
{ACAD_REACTORS
330
4EC
102
}
330
4EC
100
AcDbVisualStyle
  2
Brighten
 70
    12
177
     3
291
     1
 70
    58
 90
        2
176
     1
 90
        2
176
     1
 90
        0
176
     1
 90
        0
176
     1
 40
0.6
176
     1
 40
30.0
176
     1
 62
     7
420
 16777215
176
     1
 90
        1
176
     1
 90
        4
176
     1
 62
     7
176
     1
 62
   257
176
     1
 90
        1
176
     1
 90
        1
176
     1
 40
1.0
176
     1
 90
        8
176
     1
 62
     7
176
     1
 40
1.0
176
     1
 90
        1
176
     1
 90
        6
176
     1
 90
        2
176
     1
 62
     7
176
     1
 90
        5
176
     1
 90
        0
176
     1
 90
        0
176
     1
290
     0
176
     1
 90
        1
176
     1
 40
50.0
176
     1
 90
        0
176
     1
290
     0
176
     1
290
     1
176
     1
290
     1
176
     1
290
     0
176
     1
290
     0
176
     1
290
     0
176
     1
290
     0
176
     1
290
     0
176
     1
290
     0
176
     1
 90
       50
176
     1
 40
0.0
176
     1
 40
1.0
176
     1
 90
        0
176
     1
 62
    18
420
        0
176
     1
 90
       50
176
     1
 90
        3
176
     1
 62
     5
420
      255
176
     1
290
     0
176
     1
 90
       50
176
     1
 90
       50
176
     1
 90
       50
176
     1
290
     0
176
     1
 90
       50
176
     1
 62
   256
176
     0
 40
1.0
176
     0
 90
        2
176
     1
  1
strokes_ogs.tif
176
     1
290
     0
176
     1
 40
1.0
176
     1
 40
1.0
176
     1
  0
VISUALSTYLE
  5
7A8
102
{ACAD_REACTORS
330
4EC
102
}
330
4EC
100
AcDbVisualStyle
  2
ColorChange
 70
    16
177
     3
291
     1
 70
    58
 90
        2
176
     1
 90
        2
176
     1
 90
        3
176
     1
 90
        0
176
     1
 40
0.6
176
     1
 40
30.0
176
     1
 62
     8
420
  8421504
176
     1
 90
        1
176
     1
 90
        4
176
     1
 62
     7
176
     1
 62
   257
176
     1
 90
        1
176
     1
 90
        1
176
     1
 40
1.0
176
     1
 90
        8
176
     1
 62
     8
420
  8421504
176
     1
 40
1.0
176
     1
 90
        1
176
     1
 90
        6
176
     1
 90
        2
176
     1
 62
     7
176
     1
 90
        5
176
     1
 90
        0
176
     1
 90
        0
176
     1
290
     0
176
     1
 90
        1
176
     1
 40
0.0
176
     1
 90
        0
176
     1
290
     0
176
     1
290
     1
176
     1
290
     1
176
     1
290
     0
176
     1
290
     0
176
     1
290
     0
176
     1
290
     0
176
     1
290
     0
176
     1
290
     0
176
     1
 90
       50
176
     1
 40
0.0
176
     1
 40
1.0
176
     1
 90
        0
176
     1
 62
    18
420
        0
176
     1
 90
       50
176
     1
 90
        3
176
     1
 62
     5
420
      255
176
     1
290
     0
176
     1
 90
       50
176
     1
 90
       50
176
     1
 90
       50
176
     1
290
     0
176
     1
 90
       50
176
     1
 62
   256
176
     0
 40
1.0
176
     0
 90
        2
176
     1
  1
strokes_ogs.tif
176
     1
290
     0
176
     1
 40
1.0
176
     1
 40
1.0
176
     1
  0
VISUALSTYLE
  5
7A1
102
{ACAD_REACTORS
330
4EC
102
}
330
4EC
100
AcDbVisualStyle
  2
Conceptual
 70
     9
177
     3
291
     0
 70
    58
 90
        3
176
     1
 90
        2
176
     1
 90
        0
176
     1
 90
        0
176
     1
 40
0.6
176
     1
 40
30.0
176
     1
 62
     7
420
 16777215
176
     1
 90
        2
176
     1
 90
        2
176
     1
 62
     7
176
     1
 62
   257
176
     1
 90
        1
176
     1
 90
        1
176
     1
 40
179.0
176
     1
 90
        8
176
     1
 62
     7
176
     1
 40
1.0
176
     1
 90
        1
176
     1
 90
        6
176
     1
 90
        2
176
     1
 62
     7
176
     1
 90
        3
176
     1
 90
        0
176
     1
 90
        0
176
     1
290
     0
176
     1
 90
        1
176
     1
 40
0.0
176
     1
 90
        0
176
     1
290
     0
176
     1
290
     1
176
     1
290
     1
176
     1
290
     0
176
     1
290
     0
176
     1
290
     0
176
     1
290
     0
176
     1
290
     0
176
     1
290
     0
176
     1
 90
       50
176
     1
 40
0.0
176
     1
 40
1.0
176
     1
 90
        0
176
     1
 62
    18
420
        0
176
     1
 90
       50
176
     1
 90
        3
176
     1
 62
     5
420
      255
176
     1
290
     0
176
     1
 90
       50
176
     1
 90
       50
176
     1
 90
       50
176
     1
290
     0
176
     1
 90
       50
176
     1
 62
   256
176
     0
 40
1.0
176
     0
 90
        2
176
     1
  1
strokes_ogs.tif
176
     1
290
     0
176
     1
 40
1.0
176
     1
 40
1.0
176
     1
  0
VISUALSTYLE
  5
7A3
102
{ACAD_REACTORS
330
4EC
102
}
330
4EC
100
AcDbVisualStyle
  2
Dim
 70
    11
177
     3
291
     1
 70
    58
 90
        2
176
     1
 90
        2
176
     1
 90
        0
176
     1
 90
        0
176
     1
 40
0.6
176
     1
 40
30.0
176
     1
 62
     7
420
 16777215
176
     1
 90
        1
176
     1
 90
        4
176
     1
 62
     7
176
     1
 62
   257
176
     1
 90
        1
176
     1
 90
        1
176
     1
 40
1.0
176
     1
 90
        8
176
     1
 62
     7
176
     1
 40
1.0
176
     1
 90
        1
176
     1
 90
        6
176
     1
 90
        2
176
     1
 62
     7
176
     1
 90
        5
176
     1
 90
        0
176
     1
 90
        0
176
     1
290
     0
176
     1
 90
        1
176
     1
 40
-50.0
176
     1
 90
        0
176
     1
290
     0
176
     1
290
     1
176
     1
290
     1
176
     1
290
     0
176
     1
290
     0
176
     1
290
     0
176
     1
290
     0
176
     1
290
     0
176
     1
290
     0
176
     1
 90
       50
176
     1
 40
0.0
176
     1
 40
1.0
176
     1
 90
        0
176
     1
 62
    18
420
        0
176
     1
 90
       50
176
     1
 90
        3
176
     1
 62
     5
420
      255
176
     1
290
     0
176
     1
 90
       50
176
     1
 90
       50
176
     1
 90
       50
176
     1
290
     0
176
     1
 90
       50
176
     1
 62
   256
176
     0
 40
1.0
176
     0
 90
        2
176
     1
  1
strokes_ogs.tif
176
     1
290
     0
176
     1
 40
1.0
176
     1
 40
1.0
176
     1
  0
VISUALSTYLE
  5
7B0
102
{ACAD_REACTORS
330
4EC
102
}
330
4EC
100
AcDbVisualStyle
  2
EdgeColorOff
 70
    22
177
     3
291
     1
 70
    58
 90
        2
176
     0
 90
        2
176
     0
 90
        0
176
     0
 90
        0
176
     0
 40
0.6
176
     0
 40
30.0
176
     0
 62
     7
420
 16777215
176
     0
 90
        1
176
     0
 90
        4
176
     0
 62
     7
176
     0
 62
   257
176
     0
 90
        1
176
     0
 90
        1
176
     0
 40
1.0
176
     0
 90
        8
176
     2
 62
     7
176
     0
 40
1.0
176
     0
 90
        1
176
     0
 90
        6
176
     0
 90
        2
176
     0
 62
     7
176
     0
 90
        5
176
     0
 90
        0
176
     0
 90
        0
176
     0
290
     0
176
     0
 90
        1
176
     0
 40
0.0
176
     0
 90
        0
176
     0
290
     0
176
     1
290
     1
176
     1
290
     1
176
     1
290
     0
176
     1
290
     0
176
     1
290
     0
176
     1
290
     0
176
     1
290
     0
176
     1
290
     0
176
     1
 90
       50
176
     0
 40
0.0
176
     0
 40
1.0
176
     0
 90
        0
176
     0
 62
    18
420
        0
176
     0
 90
       50
176
     0
 90
        3
176
     0
 62
     5
420
      255
176
     0
290
     0
176
     1
 90
       50
176
     0
 90
       50
176
     0
 90
       50
176
     0
290
     0
176
     1
 90
       50
176
     0
 62
   256
176
     0
 40
1.0
176
     0
 90
        2
176
     0
  1
strokes_ogs.tif
176
     0
290
     0
176
     1
 40
1.0
176
     0
 40
1.0
176
     0
  0
VISUALSTYLE
  5
7A7
102
{ACAD_REACTORS
330
4EC
102
}
330
4EC
100
AcDbVisualStyle
  2
Facepattern
 70
    15
177
     3
291
     1
 70
    58
 90
        2
176
     1
 90
        2
176
     1
 90
        0
176
     1
 90
        0
176
     1
 40
0.6
176
     1
 40
30.0
176
     1
 62
     7
420
 16777215
176
     1
 90
        1
176
     1
 90
        4
176
     1
 62
     7
176
     1
 62
   257
176
     1
 90
        1
176
     1
 90
        1
176
     1
 40
1.0
176
     1
 90
        8
176
     1
 62
     7
176
     1
 40
1.0
176
     1
 90
        1
176
     1
 90
        6
176
     1
 90
        2
176
     1
 62
     7
176
     1
 90
        5
176
     1
 90
        0
176
     1
 90
        0
176
     1
290
     0
176
     1
 90
        1
176
     1
 40
0.0
176
     1
 90
        0
176
     1
290
     0
176
     1
290
     1
176
     1
290
     1
176
     1
290
     0
176
     1
290
     0
176
     1
290
     0
176
     1
290
     0
176
     1
290
     0
176
     1
290
     0
176
     1
 90
       50
176
     1
 40
0.0
176
     1
 40
1.0
176
     1
 90
        0
176
     1
 62
    18
420
        0
176
     1
 90
       50
176
     1
 90
        3
176
     1
 62
     5
420
      255
176
     1
290
     0
176
     1
 90
       50
176
     1
 90
       50
176
     1
 90
       50
176
     1
290
     0
176
     1
 90
       50
176
     1
 62
   256
176
     0
 40
1.0
176
     0
 90
        2
176
     1
  1
strokes_ogs.tif
176
     1
290
     0
176
     1
 40
1.0
176
     1
 40
1.0
176
     1
  0
VISUALSTYLE
  5
799
102
{ACAD_REACTORS
330
4EC
102
}
330
4EC
100
AcDbVisualStyle
  2
Flat
 70
     0
177
     3
291
     1
 70
    58
 90
        2
176
     1
 90
        1
176
     1
 90
        1
176
     1
 90
        2
176
     1
 40
0.6
176
     1
 40
30.0
176
     1
 62
     7
420
 16777215
176
     1
 90
        0
176
     1
 90
        0
176
     1
 62
     7
176
     1
 62
   257
176
     1
 90
        1
176
     1
 90
        1
176
     1
 40
1.0
176
     1
 90
        8
176
     1
 62
     7
176
     1
 40
1.0
176
     1
 90
        1
176
     1
 90
        6
176
     1
 90
        2
176
     1
 62
     7
176
     1
 90
        5
176
     1
 90
        0
176
     1
 90
        0
176
     1
290
     0
176
     1
 90
       13
176
     1
 40
0.0
176
     1
 90
        0
176
     1
290
     0
176
     1
290
     1
176
     1
290
     1
176
     1
290
     0
176
     1
290
     0
176
     1
290
     0
176
     1
290
     0
176
     1
290
     0
176
     1
290
     0
176
     1
 90
       50
176
     1
 40
0.0
176
     1
 40
1.0
176
     1
 90
        0
176
     1
 62
    18
420
        0
176
     1
 90
       50
176
     1
 90
        3
176
     1
 62
     5
420
      255
176
     1
290
     0
176
     1
 90
       50
176
     1
 90
       50
176
     1
 90
       50
176
     1
290
     0
176
     1
 90
       50
176
     1
 62
   256
176
     0
 40
1.0
176
     0
 90
        2
176
     1
  1
strokes_ogs.tif
176
     1
290
     0
176
     1
 40
1.0
176
     1
 40
1.0
176
     1
  0
VISUALSTYLE
  5
79A
102
{ACAD_REACTORS
330
4EC
102
}
330
4EC
100
AcDbVisualStyle
  2
FlatWithEdges
 70
     1
177
     3
291
     1
 70
    58
 90
        2
176
     1
 90
        1
176
     1
 90
        1
176
     1
 90
        2
176
     1
 40
0.6
176
     1
 40
30.0
176
     1
 62
     7
420
 16777215
176
     1
 90
        1
176
     1
 90
        0
176
     1
 62
     7
176
     1
 62
   257
176
     1
 90
        1
176
     1
 90
        1
176
     1
 40
1.0
176
     1
 90
        0
176
     1
 62
   257
176
     1
 40
1.0
176
     1
 90
        1
176
     1
 90
        6
176
     1
 90
        2
176
     1
 62
     7
176
     1
 90
        5
176
     1
 90
        0
176
     1
 90
        0
176
     1
290
     0
176
     1
 90
       13
176
     1
 40
0.0
176
     1
 90
        0
176
     1
290
     0
176
     1
290
     1
176
     1
290
     1
176
     1
290
     0
176
     1
290
     0
176
     1
290
     0
176
     1
290
     0
176
     1
290
     0
176
     1
290
     0
176
     1
 90
       50
176
     1
 40
0.0
176
     1
 40
1.0
176
     1
 90
        0
176
     1
 62
    18
420
        0
176
     1
 90
       50
176
     1
 90
        3
176
     1
 62
     5
420
      255
176
     1
290
     0
176
     1
 90
       50
176
     1
 90
       50
176
     1
 90
       50
176
     1
290
     0
176
     1
 90
       50
176
     1
 62
   256
176
     0
 40
1.0
176
     0
 90
        2
176
     1
  1
strokes_ogs.tif
176
     1
290
     0
176
     1
 40
1.0
176
     1
 40
1.0
176
     1
  0
VISUALSTYLE
  5
79B
102
{ACAD_REACTORS
330
4EC
102
}
330
4EC
100
AcDbVisualStyle
  2
Gouraud
 70
     2
177
     3
291
     1
 70
    58
 90
        2
176
     1
 90
        2
176
     1
 90
        1
176
     1
 90
        2
176
     1
 40
0.6
176
     1
 40
30.0
176
     1
 62
     7
420
 16777215
176
     1
 90
        0
176
     1
 90
        0
176
     1
 62
     7
176
     1
 62
   257
176
     1
 90
        1
176
     1
 90
        1
176
     1
 40
1.0
176
     1
 90
        0
176
     1
 62
     7
176
     1
 40
1.0
176
     1
 90
        1
176
     1
 90
        6
176
     1
 90
        2
176
     1
 62
     7
176
     1
 90
        5
176
     1
 90
        0
176
     1
 90
        0
176
     1
290
     0
176
     1
 90
       13
176
     1
 40
0.0
176
     1
 90
        0
176
     1
290
     0
176
     1
290
     1
176
     1
290
     1
176
     1
290
     0
176
     1
290
     0
176
     1
290
     0
176
     1
290
     0
176
     1
290
     0
176
     1
290
     0
176
     1
 90
       50
176
     1
 40
0.0
176
     1
 40
1.0
176
     1
 90
        0
176
     1
 62
    18
420
        0
176
     1
 90
       50
176
     1
 90
        3
176
     1
 62
     5
420
      255
176
     1
290
     0
176
     1
 90
       50
176
     1
 90
       50
176
     1
 90
       50
176
     1
290
     0
176
     1
 90
       50
176
     1
 62
   256
176
     0
 40
1.0
176
     0
 90
        2
176
     1
  1
strokes_ogs.tif
176
     1
290
     0
176
     1
 40
1.0
176
     1
 40
1.0
176
     1
  0
VISUALSTYLE
  5
79C
102
{ACAD_REACTORS
330
4EC
102
}
330
4EC
100
AcDbVisualStyle
  2
GouraudWithEdges
 70
     3
177
     3
291
     1
 70
    58
 90
        2
176
     1
 90
        2
176
     1
 90
        1
176
     1
 90
        2
176
     1
 40
0.6
176
     1
 40
30.0
176
     1
 62
     7
420
 16777215
176
     1
 90
        1
176
     1
 90
        0
176
     1
 62
     7
176
     1
 62
   257
176
     1
 90
        1
176
     1
 90
        1
176
     1
 40
1.0
176
     1
 90
        0
176
     1
 62
   257
176
     1
 40
1.0
176
     1
 90
        1
176
     1
 90
        6
176
     1
 90
        2
176
     1
 62
     7
176
     1
 90
        5
176
     1
 90
        0
176
     1
 90
        0
176
     1
290
     0
176
     1
 90
       13
176
     1
 40
0.0
176
     1
 90
        0
176
     1
290
     0
176
     1
290
     1
176
     1
290
     1
176
     1
290
     0
176
     1
290
     0
176
     1
290
     0
176
     1
290
     0
176
     1
290
     0
176
     1
290
     0
176
     1
 90
       50
176
     1
 40
0.0
176
     1
 40
1.0
176
     1
 90
        0
176
     1
 62
    18
420
        0
176
     1
 90
       50
176
     1
 90
        3
176
     1
 62
     5
420
      255
176
     1
290
     0
176
     1
 90
       50
176
     1
 90
       50
176
     1
 90
       50
176
     1
290
     0
176
     1
 90
       50
176
     1
 62
   256
176
     0
 40
1.0
176
     0
 90
        2
176
     1
  1
strokes_ogs.tif
176
     1
290
     0
176
     1
 40
1.0
176
     1
 40
1.0
176
     1
  0
VISUALSTYLE
  5
7A0
102
{ACAD_REACTORS
330
4EC
102
}
330
4EC
100
AcDbVisualStyle
  2
Hidden
 70
     6
177
     3
291
     0
 70
    58
 90
        1
176
     1
 90
        2
176
     1
 90
        2
176
     1
 90
        0
176
     1
 40
0.6
176
     1
 40
30.0
176
     1
 62
     7
420
 16777215
176
     1
 90
        2
176
     1
 90
        2
176
     1
 62
     7
176
     1
 62
   257
176
     1
 90
        2
176
     1
 90
        1
176
     1
 40
40.0
176
     1
 90
        0
176
     1
 62
   257
176
     1
 40
1.0
176
     1
 90
        1
176
     1
 90
        6
176
     1
 90
        2
176
     1
 62
     7
176
     1
 90
        3
176
     1
 90
        0
176
     1
 90
        0
176
     1
290
     0
176
     1
 90
        1
176
     1
 40
0.0
176
     1
 90
        0
176
     1
290
     0
176
     1
290
     1
176
     1
290
     1
176
     1
290
     0
176
     1
290
     0
176
     1
290
     0
176
     1
290
     0
176
     1
290
     0
176
     1
290
     0
176
     1
 90
       50
176
     1
 40
0.0
176
     1
 40
1.0
176
     1
 90
        0
176
     1
 62
    18
420
        0
176
     1
 90
       50
176
     1
 90
        3
176
     1
 62
     5
420
      255
176
     1
290
     0
176
     1
 90
       50
176
     1
 90
       50
176
     1
 90
       50
176
     1
290
     0
176
     1
 90
       50
176
     1
 62
   256
176
     0
 40
1.0
176
     0
 90
        2
176
     1
  1
strokes_ogs.tif
176
     1
290
     0
176
     1
 40
1.0
176
     1
 40
1.0
176
     1
  0
VISUALSTYLE
  5
7AE
102
{ACAD_REACTORS
330
4EC
102
}
330
4EC
100
AcDbVisualStyle
  2
JitterOff
 70
    20
177
     3
291
     1
 70
    58
 90
        2
176
     0
 90
        2
176
     0
 90
        0
176
     0
 90
        0
176
     0
 40
0.6
176
     0
 40
30.0
176
     0
 62
     7
420
 16777215
176
     0
 90
        1
176
     0
 90
        4
176
     0
 62
     7
176
     0
 62
   257
176
     0
 90
        1
176
     0
 90
        1
176
     0
 40
1.0
176
     0
 90
       10
176
     2
 62
     7
176
     0
 40
1.0
176
     0
 90
        1
176
     0
 90
        6
176
     0
 90
        2
176
     0
 62
     7
176
     0
 90
        5
176
     0
 90
        0
176
     0
 90
        0
176
     0
290
     0
176
     0
 90
        1
176
     0
 40
0.0
176
     0
 90
        0
176
     0
290
     0
176
     1
290
     1
176
     1
290
     1
176
     1
290
     0
176
     1
290
     0
176
     1
290
     0
176
     1
290
     0
176
     1
290
     0
176
     1
290
     0
176
     1
 90
       50
176
     0
 40
0.0
176
     0
 40
1.0
176
     0
 90
        0
176
     0
 62
    18
420
        0
176
     0
 90
       50
176
     0
 90
        3
176
     0
 62
     5
420
      255
176
     0
290
     0
176
     1
 90
       50
176
     0
 90
       50
176
     0
 90
       50
176
     0
290
     0
176
     1
 90
       50
176
     0
 62
   256
176
     0
 40
1.0
176
     0
 90
        2
176
     0
  1
strokes_ogs.tif
176
     0
290
     0
176
     1
 40
1.0
176
     0
 40
1.0
176
     0
  0
VISUALSTYLE
  5
7A6
102
{ACAD_REACTORS
330
4EC
102
}
330
4EC
100
AcDbVisualStyle
  2
Linepattern
 70
    14
177
     3
291
     1
 70
    58
 90
        2
176
     1
 90
        2
176
     1
 90
        0
176
     1
 90
        0
176
     1
 40
0.6
176
     1
 40
30.0
176
     1
 62
     7
420
 16777215
176
     1
 90
        1
176
     1
 90
        4
176
     1
 62
     7
176
     1
 62
   257
176
     1
 90
        7
176
     1
 90
        7
176
     1
 40
1.0
176
     1
 90
        8
176
     1
 62
     7
176
     1
 40
1.0
176
     1
 90
        1
176
     1
 90
        6
176
     1
 90
        2
176
     1
 62
     7
176
     1
 90
        5
176
     1
 90
        0
176
     1
 90
        0
176
     1
290
     0
176
     1
 90
        1
176
     1
 40
0.0
176
     1
 90
        0
176
     1
290
     0
176
     1
290
     1
176
     1
290
     1
176
     1
290
     0
176
     1
290
     0
176
     1
290
     0
176
     1
290
     0
176
     1
290
     0
176
     1
290
     0
176
     1
 90
       50
176
     1
 40
0.0
176
     1
 40
1.0
176
     1
 90
        0
176
     1
 62
    18
420
        0
176
     1
 90
       50
176
     1
 90
        3
176
     1
 62
     5
420
      255
176
     1
290
     0
176
     1
 90
       50
176
     1
 90
       50
176
     1
 90
       50
176
     1
290
     0
176
     1
 90
       50
176
     1
 62
   256
176
     0
 40
1.0
176
     0
 90
        2
176
     1
  1
strokes_ogs.tif
176
     1
290
     0
176
     1
 40
1.0
176
     1
 40
1.0
176
     1
  0
VISUALSTYLE
  5
7AF
102
{ACAD_REACTORS
330
4EC
102
}
330
4EC
100
AcDbVisualStyle
  2
OverhangOff
 70
    21
177
     3
291
     1
 70
    58
 90
        2
176
     0
 90
        2
176
     0
 90
        0
176
     0
 90
        0
176
     0
 40
0.6
176
     0
 40
30.0
176
     0
 62
     7
420
 16777215
176
     0
 90
        1
176
     0
 90
        4
176
     0
 62
     7
176
     0
 62
   257
176
     0
 90
        1
176
     0
 90
        1
176
     0
 40
1.0
176
     0
 90
        9
176
     2
 62
     7
176
     0
 40
1.0
176
     0
 90
        1
176
     0
 90
        6
176
     0
 90
        2
176
     0
 62
     7
176
     0
 90
        5
176
     0
 90
        0
176
     0
 90
        0
176
     0
290
     0
176
     0
 90
        1
176
     0
 40
0.0
176
     0
 90
        0
176
     0
290
     0
176
     1
290
     1
176
     1
290
     1
176
     1
290
     0
176
     1
290
     0
176
     1
290
     0
176
     1
290
     0
176
     1
290
     0
176
     1
290
     0
176
     1
 90
       50
176
     0
 40
0.0
176
     0
 40
1.0
176
     0
 90
        0
176
     0
 62
    18
420
        0
176
     0
 90
       50
176
     0
 90
        3
176
     0
 62
     5
420
      255
176
     0
290
     0
176
     1
 90
       50
176
     0
 90
       50
176
     0
 90
       50
176
     0
290
     0
176
     1
 90
       50
176
     0
 62
   256
176
     0
 40
1.0
176
     0
 90
        2
176
     0
  1
strokes_ogs.tif
176
     0
290
     0
176
     1
 40
1.0
176
     0
 40
1.0
176
     0
  0
VISUALSTYLE
  5
7A2
102
{ACAD_REACTORS
330
4EC
102
}
330
4EC
100
AcDbVisualStyle
  2
Realistic
 70
     8
177
     3
291
     0
 70
    58
 90
        2
176
     1
 90
        3
176
     1
 90
        0
176
     1
 90
        2
176
     1
 40
0.6
176
     1
 40
30.0
176
     1
 62
     7
420
 16777215
176
     1
 90
        0
176
     1
 90
        0
176
     1
 62
     7
176
     1
 62
   257
176
     1
 90
        1
176
     1
 90
        1
176
     1
 40
1.0
176
     1
 90
        8
176
     1
 62
   257
176
     1
 40
1.0
176
     1
 90
        1
176
     1
 90
        6
176
     1
 90
        2
176
     1
 62
     7
176
     1
 90
        3
176
     1
 90
        0
176
     1
 90
        0
176
     1
290
     0
176
     1
 90
       13
176
     1
 40
0.0
176
     1
 90
        0
176
     1
290
     0
176
     1
290
     1
176
     1
290
     1
176
     1
290
     0
176
     1
290
     0
176
     1
290
     0
176
     1
290
     0
176
     1
290
     0
176
     1
290
     0
176
     1
 90
       50
176
     1
 40
0.0
176
     1
 40
1.0
176
     1
 90
        0
176
     1
 62
    18
420
        0
176
     1
 90
       50
176
     1
 90
        3
176
     1
 62
     5
420
      255
176
     1
290
     0
176
     1
 90
       50
176
     1
 90
       50
176
     1
 90
       50
176
     1
290
     0
176
     1
 90
       50
176
     1
 62
   256
176
     0
 40
1.0
176
     0
 90
        2
176
     1
  1
strokes_ogs.tif
176
     1
290
     0
176
     1
 40
1.0
176
     1
 40
1.0
176
     1
  0
VISUALSTYLE
  5
7AD
102
{ACAD_REACTORS
330
4EC
102
}
330
4EC
100
AcDbVisualStyle
  2
Shaded
 70
    27
177
     3
291
     0
 70
    58
 90
        2
176
     1
 90
        2
176
     1
 90
        1
176
     1
 90
        2
176
     1
 40
0.6
176
     1
 40
30.0
176
     1
 62
     7
420
 16777215
176
     1
 90
        0
176
     1
 90
        4
176
     1
 62
     7
176
     1
 62
   257
176
     1
 90
        1
176
     1
 90
        1
176
     1
 40
1.0
176
     1
 90
        8
176
     1
 62
   257
176
     1
 40
1.0
176
     1
 90
        1
176
     1
 90
        6
176
     1
 90
        2
176
     1
 62
     8
420
  7895160
176
     1
 90
        3
176
     1
 90
        0
176
     1
 90
        0
176
     1
290
     0
176
     1
 90
        5
176
     1
 40
0.0
176
     1
 90
        0
176
     1
290
     0
176
     1
290
     1
176
     1
290
     1
176
     1
290
     0
176
     1
290
     0
176
     1
290
     0
176
     1
290
     0
176
     1
290
     0
176
     1
290
     0
176
     1
 90
       50
176
     1
 40
0.0
176
     1
 40
1.0
176
     1
 90
        0
176
     1
 62
    18
420
        0
176
     1
 90
       50
176
     1
 90
        3
176
     1
 62
     5
420
      255
176
     1
290
     0
176
     1
 90
       50
176
     1
 90
       50
176
     1
 90
       50
176
     1
290
     0
176
     1
 90
       50
176
     1
 62
   256
176
     0
 40
1.0
176
     0
 90
        2
176
     1
  1
strokes_ogs.tif
176
     1
290
     0
176
     1
 40
1.0
176
     1
 40
1.0
176
     1
  0
VISUALSTYLE
  5
7AC
102
{ACAD_REACTORS
330
4EC
102
}
330
4EC
100
AcDbVisualStyle
  2
Shaded with edges
 70
    26
177
     3
291
     0
 70
    58
 90
        2
176
     1
 90
        2
176
     1
 90
        1
176
     1
 90
        2
176
     1
 40
0.6
176
     1
 40
30.0
176
     1
 62
     7
420
 16777215
176
     1
 90
        1
176
     1
 90
        2
176
     1
 62
     7
176
     1
 62
   257
176
     1
 90
        2
176
     1
 90
        1
176
     1
 40
1.0
176
     1
 90
        8
176
     1
 62
   257
176
     1
 40
1.0
176
     1
 90
        1
176
     1
 90
        6
176
     1
 90
        2
176
     1
 62
     7
176
     1
 90
        3
176
     1
 90
        0
176
     1
 90
        0
176
     1
290
     0
176
     1
 90
        5
176
     1
 40
0.0
176
     1
 90
        0
176
     1
290
     0
176
     1
290
     1
176
     1
290
     1
176
     1
290
     0
176
     1
290
     0
176
     1
290
     0
176
     1
290
     0
176
     1
290
     0
176
     1
290
     0
176
     1
 90
       50
176
     1
 40
0.0
176
     1
 40
1.0
176
     1
 90
        0
176
     1
 62
    18
420
        0
176
     1
 90
       50
176
     1
 90
        3
176
     1
 62
     5
420
      255
176
     1
290
     0
176
     1
 90
       50
176
     1
 90
       50
176
     1
 90
       50
176
     1
290
     0
176
     1
 90
       50
176
     1
 62
   256
176
     0
 40
1.0
176
     0
 90
        2
176
     1
  1
strokes_ogs.tif
176
     1
290
     0
176
     1
 40
1.0
176
     1
 40
1.0
176
     1
  0
VISUALSTYLE
  5
7A9
102
{ACAD_REACTORS
330
4EC
102
}
330
4EC
100
AcDbVisualStyle
  2
Shades of Gray
 70
    23
177
     3
291
     0
 70
    58
 90
        2
176
     1
 90
        2
176
     1
 90
        3
176
     1
 90
        0
176
     1
 40
0.6
176
     1
 40
30.0
176
     1
 62
     7
420
 16777215
176
     1
 90
        2
176
     1
 90
        2
176
     1
 62
     7
176
     1
 62
     7
176
     1
 90
        1
176
     1
 90
        1
176
     1
 40
40.0
176
     1
 90
        8
176
     1
 62
     7
176
     1
 40
1.0
176
     1
 90
        1
176
     1
 90
        6
176
     1
 90
        2
176
     1
 62
     7
176
     1
 90
        3
176
     1
 90
        0
176
     1
 90
        0
176
     1
290
     0
176
     1
 90
        1
176
     1
 40
0.0
176
     1
 90
        0
176
     1
290
     0
176
     1
290
     1
176
     1
290
     1
176
     1
290
     0
176
     1
290
     0
176
     1
290
     0
176
     1
290
     0
176
     1
290
     0
176
     1
290
     0
176
     1
 90
       50
176
     1
 40
0.0
176
     1
 40
1.0
176
     1
 90
        0
176
     1
 62
    18
420
        0
176
     1
 90
       50
176
     1
 90
        3
176
     1
 62
     5
420
      255
176
     1
290
     0
176
     1
 90
       50
176
     1
 90
       50
176
     1
 90
       50
176
     1
290
     0
176
     1
 90
       50
176
     1
 62
   256
176
     0
 40
1.0
176
     0
 90
        2
176
     1
  1
strokes_ogs.tif
176
     1
290
     0
176
     1
 40
1.0
176
     1
 40
1.0
176
     1
  0
VISUALSTYLE
  5
7AA
102
{ACAD_REACTORS
330
4EC
102
}
330
4EC
100
AcDbVisualStyle
  2
Sketchy
 70
    24
177
     3
291
     0
 70
    58
 90
        1
176
     1
 90
        2
176
     1
 90
        2
176
     1
 90
        0
176
     1
 40
0.6
176
     1
 40
30.0
176
     1
 62
     7
420
 16777215
176
     1
 90
        2
176
     1
 90
        2
176
     1
 62
     7
176
     1
 62
     7
176
     1
 90
        1
176
     1
 90
        1
176
     1
 40
40.0
176
     1
 90
       11
176
     1
 62
     7
176
     1
 40
1.0
176
     1
 90
        1
176
     1
 90
        6
176
     1
 90
        2
176
     1
 62
     7
176
     1
 90
        6
176
     1
 90
        0
176
     1
 90
        0
176
     1
290
     0
176
     1
 90
        1
176
     1
 40
0.0
176
     1
 90
        0
176
     1
290
     0
176
     1
290
     1
176
     1
290
     1
176
     1
290
     0
176
     1
290
     0
176
     1
290
     0
176
     1
290
     0
176
     1
290
     0
176
     1
290
     0
176
     1
 90
       50
176
     1
 40
0.0
176
     1
 40
1.0
176
     1
 90
        0
176
     1
 62
    18
420
        0
176
     1
 90
       50
176
     1
 90
        3
176
     1
 62
     5
420
      255
176
     1
290
     0
176
     1
 90
       50
176
     1
 90
       50
176
     1
 90
       50
176
     1
290
     0
176
     1
 90
       50
176
     1
 62
   256
176
     0
 40
1.0
176
     0
 90
        2
176
     1
  1
strokes_ogs.tif
176
     1
290
     0
176
     1
 40
1.0
176
     1
 40
1.0
176
     1
  0
VISUALSTYLE
  5
7A5
102
{ACAD_REACTORS
330
4EC
102
}
330
4EC
100
AcDbVisualStyle
  2
Thicken
 70
    13
177
     3
291
     1
 70
    58
 90
        2
176
     1
 90
        2
176
     1
 90
        0
176
     1
 90
        0
176
     1
 40
0.6
176
     1
 40
30.0
176
     1
 62
     7
420
 16777215
176
     1
 90
        1
176
     1
 90
        4
176
     1
 62
     7
176
     1
 62
   257
176
     1
 90
        1
176
     1
 90
        1
176
     1
 40
1.0
176
     1
 90
       12
176
     1
 62
     7
176
     1
 40
1.0
176
     1
 90
        1
176
     1
 90
        6
176
     1
 90
        2
176
     1
 62
     7
176
     1
 90
        5
176
     1
 90
        0
176
     1
 90
        0
176
     1
290
     0
176
     1
 90
        1
176
     1
 40
0.0
176
     1
 90
        0
176
     1
290
     0
176
     1
290
     1
176
     1
290
     1
176
     1
290
     0
176
     1
290
     0
176
     1
290
     0
176
     1
290
     0
176
     1
290
     0
176
     1
290
     0
176
     1
 90
       50
176
     1
 40
0.0
176
     1
 40
1.0
176
     1
 90
        0
176
     1
 62
    18
420
        0
176
     1
 90
       50
176
     1
 90
        3
176
     1
 62
     5
420
      255
176
     1
290
     0
176
     1
 90
       50
176
     1
 90
       50
176
     1
 90
       50
176
     1
290
     0
176
     1
 90
       50
176
     1
 62
   256
176
     0
 40
1.0
176
     0
 90
        2
176
     1
  1
strokes_ogs.tif
176
     1
290
     0
176
     1
 40
1.0
176
     1
 40
1.0
176
     1
  0
VISUALSTYLE
  5
79F
102
{ACAD_REACTORS
330
4EC
102
}
330
4EC
100
AcDbVisualStyle
  2
Wireframe
 70
     5
177
     3
291
     0
 70
    58
 90
        0
176
     1
 90
        2
176
     1
 90
        0
176
     1
 90
        0
176
     1
 40
0.6
176
     1
 40
30.0
176
     1
 62
     7
420
 16777215
176
     1
 90
        1
176
     1
 90
        4
176
     1
 62
     7
176
     1
 62
   257
176
     1
 90
        1
176
     1
 90
        1
176
     1
 40
1.0
176
     1
 90
        0
176
     1
 62
   257
176
     1
 40
1.0
176
     1
 90
        1
176
     1
 90
        6
176
     1
 90
        2
176
     1
 62
     7
176
     1
 90
        3
176
     1
 90
        0
176
     1
 90
        0
176
     1
290
     0
176
     1
 90
        1
176
     1
 40
0.0
176
     1
 90
        0
176
     1
290
     0
176
     1
290
     1
176
     1
290
     1
176
     1
290
     0
176
     1
290
     0
176
     1
290
     0
176
     1
290
     0
176
     1
290
     0
176
     1
290
     0
176
     1
 90
       50
176
     1
 40
0.0
176
     1
 40
1.0
176
     1
 90
        0
176
     1
 62
    18
420
        0
176
     1
 90
       50
176
     1
 90
        3
176
     1
 62
     5
420
      255
176
     1
290
     0
176
     1
 90
       50
176
     1
 90
       50
176
     1
 90
       50
176
     1
290
     0
176
     1
 90
       50
176
     1
 62
   256
176
     0
 40
1.0
176
     0
 90
        2
176
     1
  1
strokes_ogs.tif
176
     1
290
     0
176
     1
 40
1.0
176
     1
 40
1.0
176
     1
  0
VISUALSTYLE
  5
7AB
102
{ACAD_REACTORS
330
4EC
102
}
330
4EC
100
AcDbVisualStyle
  2
X-Ray
 70
    25
177
     3
291
     0
 70
    58
 90
        2
176
     1
 90
        2
176
     1
 90
        1
176
     1
 90
        1
176
     1
 40
0.5
176
     1
 40
30.0
176
     1
 62
     7
420
 16777215
176
     1
 90
        1
176
     1
 90
        0
176
     1
 62
     7
176
     1
 62
   257
176
     1
 90
        1
176
     1
 90
        1
176
     1
 40
1.0
176
     1
 90
        8
176
     1
 62
     7
176
     1
 40
1.0
176
     1
 90
        1
176
     1
 90
        6
176
     1
 90
        2
176
     1
 62
     7
176
     1
 90
        3
176
     1
 90
        0
176
     1
 90
        0
176
     1
290
     0
176
     1
 90
       13
176
     1
 40
0.0
176
     1
 90
        0
176
     1
290
     0
176
     1
290
     1
176
     1
290
     1
176
     1
290
     0
176
     1
290
     0
176
     1
290
     0
176
     1
290
     0
176
     1
290
     0
176
     1
290
     0
176
     1
 90
       50
176
     1
 40
0.0
176
     1
 40
1.0
176
     1
 90
        0
176
     1
 62
    18
420
        0
176
     1
 90
       50
176
     1
 90
        3
176
     1
 62
     5
420
      255
176
     1
290
     0
176
     1
 90
       50
176
     1
 90
       50
176
     1
 90
       50
176
     1
290
     0
176
     1
 90
       50
176
     1
 62
   256
176
     0
 40
1.0
176
     0
 90
        2
176
     1
  1
strokes_ogs.tif
176
     1
290
     0
176
     1
 40
1.0
176
     1
 40
1.0
176
     1
  0
DICTIONARYVAR
  5
7F8
102
{ACAD_REACTORS
330
7F3
102
}
330
7F3
100
DictionaryVariables
280
     0
  1
1:1
  0
DICTIONARYVAR
  5
7F5
102
{ACAD_REACTORS
330
7F3
102
}
330
7F3
100
DictionaryVariables
280
     0
  1
STANDARD
  0
DICTIONARYVAR
  5
7F4
102
{ACAD_REACTORS
330
7F3
102
}
330
7F3
100
DictionaryVariables
280
     0
  1
STANDARD
  0
DICTIONARYVAR
  5
7F6
102
{ACAD_REACTORS
330
7F3
102
}
330
7F3
100
DictionaryVariables
280
     0
  1
Metric50
  0
DICTIONARYVAR
  5
7F7
102
{ACAD_REACTORS
330
7F3
102
}
330
7F3
100
DictionaryVariables
280
     0
  1
Metric50
  0
DICTIONARY
  5
78A
330
789
100
AcDbDictionary
280
     1
281
     1
  3
BUMPTILE
360
78C
  3
DIFFUSETILE
360
78B
  3
OPACITYTILE
360
78F
  3
REFLECTIONTILE
360
78E
  3
REFRACTIONTILE
360
790
  3
SPECULARTILE
360
78D
  0
DICTIONARY
  5
782
330
781
100
AcDbDictionary
280
     1
281
     1
  3
BUMPTILE
360
784
  3
DIFFUSETILE
360
783
  3
OPACITYTILE
360
787
  3
REFLECTIONTILE
360
786
  3
REFRACTIONTILE
360
788
  3
SPECULARTILE
360
785
  0
DICTIONARY
  5
792
330
791
100
AcDbDictionary
280
     1
281
     1
  3
BUMPTILE
360
794
  3
DIFFUSETILE
360
793
  3
OPACITYTILE
360
797
  3
REFLECTIONTILE
360
796
  3
REFRACTIONTILE
360
798
  3
SPECULARTILE
360
795
  0
DICTIONARY
  5
7F9
330
7B1
100
AcDbDictionary
280
     1
281
     1
  3
ACAD_ROUNDTRIP_2008_TABLESTYLE_CELLSTYLEMAP
360
7FA
  0
XRECORD
  5
78C
102
{ACAD_REACTORS
330
78A
102
}
330
78A
100
AcDbXrecord
280
     1
270
     1
271
     1
  0
XRECORD
  5
78B
102
{ACAD_REACTORS
330
78A
102
}
330
78A
100
AcDbXrecord
280
     1
270
     1
271
     1
  0
XRECORD
  5
78F
102
{ACAD_REACTORS
330
78A
102
}
330
78A
100
AcDbXrecord
280
     1
270
     1
271
     1
  0
XRECORD
  5
78E
102
{ACAD_REACTORS
330
78A
102
}
330
78A
100
AcDbXrecord
280
     1
270
     1
271
     1
  0
XRECORD
  5
790
102
{ACAD_REACTORS
330
78A
102
}
330
78A
100
AcDbXrecord
280
     1
270
     1
271
     1
  0
XRECORD
  5
78D
102
{ACAD_REACTORS
330
78A
102
}
330
78A
100
AcDbXrecord
280
     1
270
     1
271
     1
  0
XRECORD
  5
784
102
{ACAD_REACTORS
330
782
102
}
330
782
100
AcDbXrecord
280
     1
270
     1
271
     1
  0
XRECORD
  5
783
102
{ACAD_REACTORS
330
782
102
}
330
782
100
AcDbXrecord
280
     1
270
     1
271
     1
  0
XRECORD
  5
787
102
{ACAD_REACTORS
330
782
102
}
330
782
100
AcDbXrecord
280
     1
270
     1
271
     1
  0
XRECORD
  5
786
102
{ACAD_REACTORS
330
782
102
}
330
782
100
AcDbXrecord
280
     1
270
     1
271
     1
  0
XRECORD
  5
788
102
{ACAD_REACTORS
330
782
102
}
330
782
100
AcDbXrecord
280
     1
270
     1
271
     1
  0
XRECORD
  5
785
102
{ACAD_REACTORS
330
782
102
}
330
782
100
AcDbXrecord
280
     1
270
     1
271
     1
  0
XRECORD
  5
794
102
{ACAD_REACTORS
330
792
102
}
330
792
100
AcDbXrecord
280
     1
270
     1
271
     1
  0
XRECORD
  5
793
102
{ACAD_REACTORS
330
792
102
}
330
792
100
AcDbXrecord
280
     1
270
     1
271
     1
  0
XRECORD
  5
797
102
{ACAD_REACTORS
330
792
102
}
330
792
100
AcDbXrecord
280
     1
270
     1
271
     1
  0
XRECORD
  5
796
102
{ACAD_REACTORS
330
792
102
}
330
792
100
AcDbXrecord
280
     1
270
     1
271
     1
  0
XRECORD
  5
798
102
{ACAD_REACTORS
330
792
102
}
330
792
100
AcDbXrecord
280
     1
270
     1
271
     1
  0
XRECORD
  5
795
102
{ACAD_REACTORS
330
792
102
}
330
792
100
AcDbXrecord
280
     1
270
     1
271
     1
  0
CELLSTYLEMAP
  5
7FA
102
{ACAD_REACTORS
330
7F9
102
}
330
7F9
100
AcDbCellStyleMap
 90
        3
300
CELLSTYLE
  1
TABLEFORMAT_BEGIN
 90
        5
170
     1
 91
        0
 92
    32768
 62
   257
 93
        1
300
CONTENTFORMAT
  1
CONTENTFORMAT_BEGIN
 90
        0
 91
        0
 92
      512
 93
        0
300

 40
0.0
140
1.0
 94
        5
 62
     0
340
11
144
6.0
309
CONTENTFORMAT_END
171
     1
301
MARGIN
  1
CELLMARGIN_BEGIN
 40
1.5
 40
1.5
 40
1.5
 40
1.5
 40
4.5
 40
4.5
309
CELLMARGIN_END
 94
        6
 95
        1
302
GRIDFORMAT
  1
GRIDFORMAT_BEGIN
 90
        0
 91
        1
 62
     0
 92
       -2
340
0
 93
        0
 40
1.125
309
GRIDFORMAT_END
 95
        2
302
GRIDFORMAT
  1
GRIDFORMAT_BEGIN
 90
        0
 91
        1
 62
     0
 92
       -2
340
0
 93
        0
 40
1.125
309
GRIDFORMAT_END
 95
        4
302
GRIDFORMAT
  1
GRIDFORMAT_BEGIN
 90
        0
 91
        1
 62
     0
 92
       -2
340
0
 93
        0
 40
1.125
309
GRIDFORMAT_END
 95
        8
302
GRIDFORMAT
  1
GRIDFORMAT_BEGIN
 90
        0
 91
        1
 62
     0
 92
       -2
340
0
 93
        0
 40
1.125
309
GRIDFORMAT_END
 95
       16
302
GRIDFORMAT
  1
GRIDFORMAT_BEGIN
 90
        0
 91
        1
 62
     0
 92
       -2
340
0
 93
        0
 40
1.125
309
GRIDFORMAT_END
 95
       32
302
GRIDFORMAT
  1
GRIDFORMAT_BEGIN
 90
        0
 91
        1
 62
     0
 92
       -2
340
0
 93
        0
 40
1.125
309
GRIDFORMAT_END
309
TABLEFORMAT_END
  1
CELLSTYLE_BEGIN
 90
        1
 91
        1
300
_TITLE
309
CELLSTYLE_END
300
CELLSTYLE
  1
TABLEFORMAT_BEGIN
 90
        5
170
     1
 91
        0
 92
        0
 62
   257
 93
        1
300
CONTENTFORMAT
  1
CONTENTFORMAT_BEGIN
 90
        0
 91
        0
 92
      512
 93
        0
300

 40
0.0
140
1.0
 94
        5
 62
     0
340
11
144
4.5
309
CONTENTFORMAT_END
171
     1
301
MARGIN
  1
CELLMARGIN_BEGIN
 40
1.5
 40
1.5
 40
1.5
 40
1.5
 40
4.5
 40
4.5
309
CELLMARGIN_END
 94
        6
 95
        1
302
GRIDFORMAT
  1
GRIDFORMAT_BEGIN
 90
        0
 91
        1
 62
     0
 92
       -2
340
0
 93
        0
 40
1.125
309
GRIDFORMAT_END
 95
        2
302
GRIDFORMAT
  1
GRIDFORMAT_BEGIN
 90
        0
 91
        1
 62
     0
 92
       -2
340
0
 93
        0
 40
1.125
309
GRIDFORMAT_END
 95
        4
302
GRIDFORMAT
  1
GRIDFORMAT_BEGIN
 90
        0
 91
        1
 62
     0
 92
       -2
340
0
 93
        0
 40
1.125
309
GRIDFORMAT_END
 95
        8
302
GRIDFORMAT
  1
GRIDFORMAT_BEGIN
 90
        0
 91
        1
 62
     0
 92
       -2
340
0
 93
        0
 40
1.125
309
GRIDFORMAT_END
 95
       16
302
GRIDFORMAT
  1
GRIDFORMAT_BEGIN
 90
        0
 91
        1
 62
     0
 92
       -2
340
0
 93
        0
 40
1.125
309
GRIDFORMAT_END
 95
       32
302
GRIDFORMAT
  1
GRIDFORMAT_BEGIN
 90
        0
 91
        1
 62
     0
 92
       -2
340
0
 93
        0
 40
1.125
309
GRIDFORMAT_END
309
TABLEFORMAT_END
  1
CELLSTYLE_BEGIN
 90
        2
 91
        1
300
_HEADER
309
CELLSTYLE_END
300
CELLSTYLE
  1
TABLEFORMAT_BEGIN
 90
        5
170
     1
 91
        0
 92
        0
 62
   257
 93
        1
300
CONTENTFORMAT
  1
CONTENTFORMAT_BEGIN
 90
        0
 91
        0
 92
      512
 93
        0
300

 40
0.0
140
1.0
 94
        2
 62
     0
340
11
144
4.5
309
CONTENTFORMAT_END
171
     1
301
MARGIN
  1
CELLMARGIN_BEGIN
 40
1.5
 40
1.5
 40
1.5
 40
1.5
 40
4.5
 40
4.5
309
CELLMARGIN_END
 94
        6
 95
        1
302
GRIDFORMAT
  1
GRIDFORMAT_BEGIN
 90
        0
 91
        1
 62
     0
 92
       -2
340
0
 93
        0
 40
1.125
309
GRIDFORMAT_END
 95
        2
302
GRIDFORMAT
  1
GRIDFORMAT_BEGIN
 90
        0
 91
        1
 62
     0
 92
       -2
340
0
 93
        0
 40
1.125
309
GRIDFORMAT_END
 95
        4
302
GRIDFORMAT
  1
GRIDFORMAT_BEGIN
 90
        0
 91
        1
 62
     0
 92
       -2
340
0
 93
        0
 40
1.125
309
GRIDFORMAT_END
 95
        8
302
GRIDFORMAT
  1
GRIDFORMAT_BEGIN
 90
        0
 91
        1
 62
     0
 92
       -2
340
0
 93
        0
 40
1.125
309
GRIDFORMAT_END
 95
       16
302
GRIDFORMAT
  1
GRIDFORMAT_BEGIN
 90
        0
 91
        1
 62
     0
 92
       -2
340
0
 93
        0
 40
1.125
309
GRIDFORMAT_END
 95
       32
302
GRIDFORMAT
  1
GRIDFORMAT_BEGIN
 90
        0
 91
        1
 62
     0
 92
       -2
340
0
 93
        0
 40
1.125
309
GRIDFORMAT_END
309
TABLEFORMAT_END
  1
CELLSTYLE_BEGIN
 90
        3
 91
        2
300
_DATA
309
CELLSTYLE_END
  0
ENDSEC
  0
EOF
